%FSLAX45Y45*%
G04 Gerber Fmt 4.5, Leading zero omitted, Abs format (unit mm)*
G04 Created by KiCad (PCBNEW 4.0.5+dfsg1-4) date Thu Oct  6 23:04:59 2022*
%MOMM*%
%LPD*%
G01*
G04 APERTURE LIST*
%ADD10C,0.127000*%
%ADD11C,0.150000*%
%ADD12C,0.200000*%
%ADD13C,0.300000*%
G04 APERTURE END LIST*
D10*
D11*
X10972000Y-7583000D02*
X16248500Y-7583000D01*
X16248500Y-7583000D02*
X16248500Y-8097500D01*
X16248500Y-8097500D02*
G75*
G03X16911500Y-8097500I331500J0D01*
G01*
X16911500Y-8097500D02*
X16911500Y-7583000D01*
X16911500Y-7583000D02*
X20972000Y-7583000D01*
X20972000Y-7583000D02*
X20972000Y-14197000D01*
X20972000Y-14197000D02*
X16911500Y-14197000D01*
X16911500Y-14197000D02*
X16911500Y-13682500D01*
X16911500Y-13682500D02*
G75*
G03X16248500Y-13682500I-331500J0D01*
G01*
X16248500Y-13682500D02*
X16248500Y-14197000D01*
X16248500Y-14197000D02*
X10972000Y-14197000D01*
X10972000Y-14197000D02*
X10972000Y-11262900D01*
X10972000Y-11262900D02*
X11198060Y-11262900D01*
X11198060Y-11262900D02*
X11198060Y-10649890D01*
X11198060Y-10649890D02*
X11683200Y-10649890D01*
X11683200Y-10649890D02*
X11683200Y-8727110D01*
X11683200Y-8727110D02*
X11198060Y-8727110D01*
X11198060Y-8727110D02*
X11198060Y-8114100D01*
X11198060Y-8114100D02*
X10972000Y-8114100D01*
X10972000Y-8114100D02*
X10972000Y-7583000D01*
D12*
X18138300Y-11404600D02*
X18288300Y-11554600D01*
X18288300Y-11404600D02*
X18138300Y-11554600D01*
X18138300Y-11889600D02*
X18288300Y-12039600D01*
X18288300Y-11889600D02*
X18138300Y-12039600D01*
X18606300Y-11449600D02*
G75*
G03X18606300Y-11449600I-90000J0D01*
G01*
X18606300Y-11994600D02*
G75*
G03X18606300Y-11994600I-90000J0D01*
G01*
X11945000Y-8417000D02*
X11945000Y-8737000D01*
X11785000Y-8577000D02*
X12105000Y-8577000D01*
X11945000Y-13042000D02*
X11945000Y-13362000D01*
X11785000Y-13202000D02*
X12105000Y-13202000D01*
X15945000Y-8417000D02*
X15945000Y-8737000D01*
X15785000Y-8577000D02*
X16105000Y-8577000D01*
X15945000Y-13042000D02*
X15945000Y-13362000D01*
X15785000Y-13202000D02*
X16105000Y-13202000D01*
X18945000Y-8417000D02*
X18945000Y-8737000D01*
X18785000Y-8577000D02*
X19105000Y-8577000D01*
X18945000Y-13042000D02*
X18945000Y-13362000D01*
X18785000Y-13202000D02*
X19105000Y-13202000D01*
D13*
X11235928Y-14670214D02*
X11235928Y-14370214D01*
X11307357Y-14370214D01*
X11350214Y-14384500D01*
X11378786Y-14413071D01*
X11393071Y-14441643D01*
X11407357Y-14498786D01*
X11407357Y-14541643D01*
X11393071Y-14598786D01*
X11378786Y-14627357D01*
X11350214Y-14655929D01*
X11307357Y-14670214D01*
X11235928Y-14670214D01*
X11535928Y-14670214D02*
X11535928Y-14470214D01*
X11535928Y-14527357D02*
X11550214Y-14498786D01*
X11564500Y-14484500D01*
X11593071Y-14470214D01*
X11621643Y-14470214D01*
X11721643Y-14670214D02*
X11721643Y-14470214D01*
X11721643Y-14370214D02*
X11707357Y-14384500D01*
X11721643Y-14398786D01*
X11735928Y-14384500D01*
X11721643Y-14370214D01*
X11721643Y-14398786D01*
X11907357Y-14670214D02*
X11878786Y-14655929D01*
X11864500Y-14627357D01*
X11864500Y-14370214D01*
X12064500Y-14670214D02*
X12035928Y-14655929D01*
X12021643Y-14627357D01*
X12021643Y-14370214D01*
X12407357Y-14670214D02*
X12407357Y-14370214D01*
X12507357Y-14584500D01*
X12607357Y-14370214D01*
X12607357Y-14670214D01*
X12878786Y-14670214D02*
X12878786Y-14513071D01*
X12864500Y-14484500D01*
X12835928Y-14470214D01*
X12778786Y-14470214D01*
X12750214Y-14484500D01*
X12878786Y-14655929D02*
X12850214Y-14670214D01*
X12778786Y-14670214D01*
X12750214Y-14655929D01*
X12735928Y-14627357D01*
X12735928Y-14598786D01*
X12750214Y-14570214D01*
X12778786Y-14555929D01*
X12850214Y-14555929D01*
X12878786Y-14541643D01*
X13021643Y-14470214D02*
X13021643Y-14770214D01*
X13021643Y-14484500D02*
X13050214Y-14470214D01*
X13107357Y-14470214D01*
X13135928Y-14484500D01*
X13150214Y-14498786D01*
X13164500Y-14527357D01*
X13164500Y-14613071D01*
X13150214Y-14641643D01*
X13135928Y-14655929D01*
X13107357Y-14670214D01*
X13050214Y-14670214D01*
X13021643Y-14655929D01*
X13293071Y-14641643D02*
X13307357Y-14655929D01*
X13293071Y-14670214D01*
X13278786Y-14655929D01*
X13293071Y-14641643D01*
X13293071Y-14670214D01*
X13293071Y-14484500D02*
X13307357Y-14498786D01*
X13293071Y-14513071D01*
X13278786Y-14498786D01*
X13293071Y-14484500D01*
X13293071Y-14513071D01*
X10814500Y-15089500D02*
X10964500Y-15239500D01*
X10964500Y-15089500D02*
X10814500Y-15239500D01*
X11393071Y-15300214D02*
X11221643Y-15300214D01*
X11307357Y-15300214D02*
X11307357Y-15000214D01*
X11278786Y-15043071D01*
X11250214Y-15071643D01*
X11221643Y-15085929D01*
X11521643Y-15271643D02*
X11535928Y-15285929D01*
X11521643Y-15300214D01*
X11507357Y-15285929D01*
X11521643Y-15271643D01*
X11521643Y-15300214D01*
X11807357Y-15000214D02*
X11664500Y-15000214D01*
X11650214Y-15143071D01*
X11664500Y-15128786D01*
X11693071Y-15114500D01*
X11764500Y-15114500D01*
X11793071Y-15128786D01*
X11807357Y-15143071D01*
X11821643Y-15171643D01*
X11821643Y-15243071D01*
X11807357Y-15271643D01*
X11793071Y-15285929D01*
X11764500Y-15300214D01*
X11693071Y-15300214D01*
X11664500Y-15285929D01*
X11650214Y-15271643D01*
X12007357Y-15000214D02*
X12035928Y-15000214D01*
X12064500Y-15014500D01*
X12078786Y-15028786D01*
X12093071Y-15057357D01*
X12107357Y-15114500D01*
X12107357Y-15185929D01*
X12093071Y-15243071D01*
X12078786Y-15271643D01*
X12064500Y-15285929D01*
X12035928Y-15300214D01*
X12007357Y-15300214D01*
X11978786Y-15285929D01*
X11964500Y-15271643D01*
X11950214Y-15243071D01*
X11935928Y-15185929D01*
X11935928Y-15114500D01*
X11950214Y-15057357D01*
X11964500Y-15028786D01*
X11978786Y-15014500D01*
X12007357Y-15000214D01*
X12235928Y-15300214D02*
X12235928Y-15100214D01*
X12235928Y-15128786D02*
X12250214Y-15114500D01*
X12278786Y-15100214D01*
X12321643Y-15100214D01*
X12350214Y-15114500D01*
X12364500Y-15143071D01*
X12364500Y-15300214D01*
X12364500Y-15143071D02*
X12378786Y-15114500D01*
X12407357Y-15100214D01*
X12450214Y-15100214D01*
X12478786Y-15114500D01*
X12493071Y-15143071D01*
X12493071Y-15300214D01*
X12635928Y-15300214D02*
X12635928Y-15100214D01*
X12635928Y-15128786D02*
X12650214Y-15114500D01*
X12678786Y-15100214D01*
X12721643Y-15100214D01*
X12750214Y-15114500D01*
X12764500Y-15143071D01*
X12764500Y-15300214D01*
X12764500Y-15143071D02*
X12778786Y-15114500D01*
X12807357Y-15100214D01*
X12850214Y-15100214D01*
X12878786Y-15114500D01*
X12893071Y-15143071D01*
X12893071Y-15300214D01*
X13478786Y-14985929D02*
X13221643Y-15371643D01*
X13864500Y-15000214D02*
X13893071Y-15000214D01*
X13921643Y-15014500D01*
X13935928Y-15028786D01*
X13950214Y-15057357D01*
X13964500Y-15114500D01*
X13964500Y-15185929D01*
X13950214Y-15243071D01*
X13935928Y-15271643D01*
X13921643Y-15285929D01*
X13893071Y-15300214D01*
X13864500Y-15300214D01*
X13835928Y-15285929D01*
X13821643Y-15271643D01*
X13807357Y-15243071D01*
X13793071Y-15185929D01*
X13793071Y-15114500D01*
X13807357Y-15057357D01*
X13821643Y-15028786D01*
X13835928Y-15014500D01*
X13864500Y-15000214D01*
X14093071Y-15271643D02*
X14107357Y-15285929D01*
X14093071Y-15300214D01*
X14078786Y-15285929D01*
X14093071Y-15271643D01*
X14093071Y-15300214D01*
X14293071Y-15000214D02*
X14321643Y-15000214D01*
X14350214Y-15014500D01*
X14364500Y-15028786D01*
X14378785Y-15057357D01*
X14393071Y-15114500D01*
X14393071Y-15185929D01*
X14378785Y-15243071D01*
X14364500Y-15271643D01*
X14350214Y-15285929D01*
X14321643Y-15300214D01*
X14293071Y-15300214D01*
X14264500Y-15285929D01*
X14250214Y-15271643D01*
X14235928Y-15243071D01*
X14221643Y-15185929D01*
X14221643Y-15114500D01*
X14235928Y-15057357D01*
X14250214Y-15028786D01*
X14264500Y-15014500D01*
X14293071Y-15000214D01*
X14664500Y-15000214D02*
X14521643Y-15000214D01*
X14507357Y-15143071D01*
X14521643Y-15128786D01*
X14550214Y-15114500D01*
X14621643Y-15114500D01*
X14650214Y-15128786D01*
X14664500Y-15143071D01*
X14678785Y-15171643D01*
X14678785Y-15243071D01*
X14664500Y-15271643D01*
X14650214Y-15285929D01*
X14621643Y-15300214D01*
X14550214Y-15300214D01*
X14521643Y-15285929D01*
X14507357Y-15271643D01*
X14821643Y-15300214D02*
X14878785Y-15300214D01*
X14907357Y-15285929D01*
X14921643Y-15271643D01*
X14950214Y-15228786D01*
X14964500Y-15171643D01*
X14964500Y-15057357D01*
X14950214Y-15028786D01*
X14935928Y-15014500D01*
X14907357Y-15000214D01*
X14850214Y-15000214D01*
X14821643Y-15014500D01*
X14807357Y-15028786D01*
X14793071Y-15057357D01*
X14793071Y-15128786D01*
X14807357Y-15157357D01*
X14821643Y-15171643D01*
X14850214Y-15185929D01*
X14907357Y-15185929D01*
X14935928Y-15171643D01*
X14950214Y-15157357D01*
X14964500Y-15128786D01*
X15078786Y-15000214D02*
X15078786Y-15057357D01*
X15193071Y-15000214D02*
X15193071Y-15057357D01*
X15635928Y-15414500D02*
X15621643Y-15400214D01*
X15593071Y-15357357D01*
X15578785Y-15328786D01*
X15564500Y-15285929D01*
X15550214Y-15214500D01*
X15550214Y-15157357D01*
X15564500Y-15085929D01*
X15578785Y-15043071D01*
X15593071Y-15014500D01*
X15621643Y-14971643D01*
X15635928Y-14957357D01*
X15735928Y-15028786D02*
X15750214Y-15014500D01*
X15778785Y-15000214D01*
X15850214Y-15000214D01*
X15878785Y-15014500D01*
X15893071Y-15028786D01*
X15907357Y-15057357D01*
X15907357Y-15085929D01*
X15893071Y-15128786D01*
X15721643Y-15300214D01*
X15907357Y-15300214D01*
X16264500Y-15300214D02*
X16264500Y-15000214D01*
X16393071Y-15300214D02*
X16393071Y-15143071D01*
X16378785Y-15114500D01*
X16350214Y-15100214D01*
X16307357Y-15100214D01*
X16278785Y-15114500D01*
X16264500Y-15128786D01*
X16578785Y-15300214D02*
X16550214Y-15285929D01*
X16535928Y-15271643D01*
X16521643Y-15243071D01*
X16521643Y-15157357D01*
X16535928Y-15128786D01*
X16550214Y-15114500D01*
X16578785Y-15100214D01*
X16621643Y-15100214D01*
X16650214Y-15114500D01*
X16664500Y-15128786D01*
X16678785Y-15157357D01*
X16678785Y-15243071D01*
X16664500Y-15271643D01*
X16650214Y-15285929D01*
X16621643Y-15300214D01*
X16578785Y-15300214D01*
X16850214Y-15300214D02*
X16821643Y-15285929D01*
X16807357Y-15257357D01*
X16807357Y-15000214D01*
X17078786Y-15285929D02*
X17050214Y-15300214D01*
X16993071Y-15300214D01*
X16964500Y-15285929D01*
X16950214Y-15257357D01*
X16950214Y-15143071D01*
X16964500Y-15114500D01*
X16993071Y-15100214D01*
X17050214Y-15100214D01*
X17078786Y-15114500D01*
X17093071Y-15143071D01*
X17093071Y-15171643D01*
X16950214Y-15200214D01*
X17207357Y-15285929D02*
X17235929Y-15300214D01*
X17293071Y-15300214D01*
X17321643Y-15285929D01*
X17335929Y-15257357D01*
X17335929Y-15243071D01*
X17321643Y-15214500D01*
X17293071Y-15200214D01*
X17250214Y-15200214D01*
X17221643Y-15185929D01*
X17207357Y-15157357D01*
X17207357Y-15143071D01*
X17221643Y-15114500D01*
X17250214Y-15100214D01*
X17293071Y-15100214D01*
X17321643Y-15114500D01*
X17435928Y-15414500D02*
X17450214Y-15400214D01*
X17478786Y-15357357D01*
X17493071Y-15328786D01*
X17507357Y-15285929D01*
X17521643Y-15214500D01*
X17521643Y-15157357D01*
X17507357Y-15085929D01*
X17493071Y-15043071D01*
X17478786Y-15014500D01*
X17450214Y-14971643D01*
X17435928Y-14957357D01*
X17978786Y-15414500D02*
X17964500Y-15400214D01*
X17935928Y-15357357D01*
X17921643Y-15328786D01*
X17907357Y-15285929D01*
X17893071Y-15214500D01*
X17893071Y-15157357D01*
X17907357Y-15085929D01*
X17921643Y-15043071D01*
X17935928Y-15014500D01*
X17964500Y-14971643D01*
X17978786Y-14957357D01*
X18093071Y-15100214D02*
X18093071Y-15300214D01*
X18093071Y-15128786D02*
X18107357Y-15114500D01*
X18135928Y-15100214D01*
X18178786Y-15100214D01*
X18207357Y-15114500D01*
X18221643Y-15143071D01*
X18221643Y-15300214D01*
X18407357Y-15300214D02*
X18378786Y-15285929D01*
X18364500Y-15271643D01*
X18350214Y-15243071D01*
X18350214Y-15157357D01*
X18364500Y-15128786D01*
X18378786Y-15114500D01*
X18407357Y-15100214D01*
X18450214Y-15100214D01*
X18478786Y-15114500D01*
X18493071Y-15128786D01*
X18507357Y-15157357D01*
X18507357Y-15243071D01*
X18493071Y-15271643D01*
X18478786Y-15285929D01*
X18450214Y-15300214D01*
X18407357Y-15300214D01*
X18593071Y-15100214D02*
X18707357Y-15100214D01*
X18635929Y-15000214D02*
X18635929Y-15257357D01*
X18650214Y-15285929D01*
X18678786Y-15300214D01*
X18707357Y-15300214D01*
X19035929Y-15100214D02*
X19035929Y-15400214D01*
X19035929Y-15114500D02*
X19064500Y-15100214D01*
X19121643Y-15100214D01*
X19150214Y-15114500D01*
X19164500Y-15128786D01*
X19178786Y-15157357D01*
X19178786Y-15243071D01*
X19164500Y-15271643D01*
X19150214Y-15285929D01*
X19121643Y-15300214D01*
X19064500Y-15300214D01*
X19035929Y-15285929D01*
X19350214Y-15300214D02*
X19321643Y-15285929D01*
X19307357Y-15257357D01*
X19307357Y-15000214D01*
X19593071Y-15300214D02*
X19593071Y-15143071D01*
X19578786Y-15114500D01*
X19550214Y-15100214D01*
X19493071Y-15100214D01*
X19464500Y-15114500D01*
X19593071Y-15285929D02*
X19564500Y-15300214D01*
X19493071Y-15300214D01*
X19464500Y-15285929D01*
X19450214Y-15257357D01*
X19450214Y-15228786D01*
X19464500Y-15200214D01*
X19493071Y-15185929D01*
X19564500Y-15185929D01*
X19593071Y-15171643D01*
X19693071Y-15100214D02*
X19807357Y-15100214D01*
X19735929Y-15000214D02*
X19735929Y-15257357D01*
X19750214Y-15285929D01*
X19778786Y-15300214D01*
X19807357Y-15300214D01*
X20021643Y-15285929D02*
X19993072Y-15300214D01*
X19935929Y-15300214D01*
X19907357Y-15285929D01*
X19893072Y-15257357D01*
X19893072Y-15143071D01*
X19907357Y-15114500D01*
X19935929Y-15100214D01*
X19993072Y-15100214D01*
X20021643Y-15114500D01*
X20035929Y-15143071D01*
X20035929Y-15171643D01*
X19893072Y-15200214D01*
X20293072Y-15300214D02*
X20293072Y-15000214D01*
X20293072Y-15285929D02*
X20264500Y-15300214D01*
X20207357Y-15300214D01*
X20178786Y-15285929D01*
X20164500Y-15271643D01*
X20150214Y-15243071D01*
X20150214Y-15157357D01*
X20164500Y-15128786D01*
X20178786Y-15114500D01*
X20207357Y-15100214D01*
X20264500Y-15100214D01*
X20293072Y-15114500D01*
X20407357Y-15414500D02*
X20421643Y-15400214D01*
X20450214Y-15357357D01*
X20464500Y-15328786D01*
X20478786Y-15285929D01*
X20493072Y-15214500D01*
X20493072Y-15157357D01*
X20478786Y-15085929D01*
X20464500Y-15043071D01*
X20450214Y-15014500D01*
X20421643Y-14971643D01*
X20407357Y-14957357D01*
X10964500Y-15560500D02*
G75*
G03X10964500Y-15560500I-90000J0D01*
G01*
X11393071Y-15696214D02*
X11221643Y-15696214D01*
X11307357Y-15696214D02*
X11307357Y-15396214D01*
X11278786Y-15439071D01*
X11250214Y-15467643D01*
X11221643Y-15481929D01*
X11521643Y-15667643D02*
X11535928Y-15681929D01*
X11521643Y-15696214D01*
X11507357Y-15681929D01*
X11521643Y-15667643D01*
X11521643Y-15696214D01*
X11707357Y-15524786D02*
X11678786Y-15510500D01*
X11664500Y-15496214D01*
X11650214Y-15467643D01*
X11650214Y-15453357D01*
X11664500Y-15424786D01*
X11678786Y-15410500D01*
X11707357Y-15396214D01*
X11764500Y-15396214D01*
X11793071Y-15410500D01*
X11807357Y-15424786D01*
X11821643Y-15453357D01*
X11821643Y-15467643D01*
X11807357Y-15496214D01*
X11793071Y-15510500D01*
X11764500Y-15524786D01*
X11707357Y-15524786D01*
X11678786Y-15539071D01*
X11664500Y-15553357D01*
X11650214Y-15581929D01*
X11650214Y-15639071D01*
X11664500Y-15667643D01*
X11678786Y-15681929D01*
X11707357Y-15696214D01*
X11764500Y-15696214D01*
X11793071Y-15681929D01*
X11807357Y-15667643D01*
X11821643Y-15639071D01*
X11821643Y-15581929D01*
X11807357Y-15553357D01*
X11793071Y-15539071D01*
X11764500Y-15524786D01*
X12007357Y-15396214D02*
X12035928Y-15396214D01*
X12064500Y-15410500D01*
X12078786Y-15424786D01*
X12093071Y-15453357D01*
X12107357Y-15510500D01*
X12107357Y-15581929D01*
X12093071Y-15639071D01*
X12078786Y-15667643D01*
X12064500Y-15681929D01*
X12035928Y-15696214D01*
X12007357Y-15696214D01*
X11978786Y-15681929D01*
X11964500Y-15667643D01*
X11950214Y-15639071D01*
X11935928Y-15581929D01*
X11935928Y-15510500D01*
X11950214Y-15453357D01*
X11964500Y-15424786D01*
X11978786Y-15410500D01*
X12007357Y-15396214D01*
X12235928Y-15696214D02*
X12235928Y-15496214D01*
X12235928Y-15524786D02*
X12250214Y-15510500D01*
X12278786Y-15496214D01*
X12321643Y-15496214D01*
X12350214Y-15510500D01*
X12364500Y-15539071D01*
X12364500Y-15696214D01*
X12364500Y-15539071D02*
X12378786Y-15510500D01*
X12407357Y-15496214D01*
X12450214Y-15496214D01*
X12478786Y-15510500D01*
X12493071Y-15539071D01*
X12493071Y-15696214D01*
X12635928Y-15696214D02*
X12635928Y-15496214D01*
X12635928Y-15524786D02*
X12650214Y-15510500D01*
X12678786Y-15496214D01*
X12721643Y-15496214D01*
X12750214Y-15510500D01*
X12764500Y-15539071D01*
X12764500Y-15696214D01*
X12764500Y-15539071D02*
X12778786Y-15510500D01*
X12807357Y-15496214D01*
X12850214Y-15496214D01*
X12878786Y-15510500D01*
X12893071Y-15539071D01*
X12893071Y-15696214D01*
X13478786Y-15381929D02*
X13221643Y-15767643D01*
X13864500Y-15396214D02*
X13893071Y-15396214D01*
X13921643Y-15410500D01*
X13935928Y-15424786D01*
X13950214Y-15453357D01*
X13964500Y-15510500D01*
X13964500Y-15581929D01*
X13950214Y-15639071D01*
X13935928Y-15667643D01*
X13921643Y-15681929D01*
X13893071Y-15696214D01*
X13864500Y-15696214D01*
X13835928Y-15681929D01*
X13821643Y-15667643D01*
X13807357Y-15639071D01*
X13793071Y-15581929D01*
X13793071Y-15510500D01*
X13807357Y-15453357D01*
X13821643Y-15424786D01*
X13835928Y-15410500D01*
X13864500Y-15396214D01*
X14093071Y-15667643D02*
X14107357Y-15681929D01*
X14093071Y-15696214D01*
X14078786Y-15681929D01*
X14093071Y-15667643D01*
X14093071Y-15696214D01*
X14293071Y-15396214D02*
X14321643Y-15396214D01*
X14350214Y-15410500D01*
X14364500Y-15424786D01*
X14378785Y-15453357D01*
X14393071Y-15510500D01*
X14393071Y-15581929D01*
X14378785Y-15639071D01*
X14364500Y-15667643D01*
X14350214Y-15681929D01*
X14321643Y-15696214D01*
X14293071Y-15696214D01*
X14264500Y-15681929D01*
X14250214Y-15667643D01*
X14235928Y-15639071D01*
X14221643Y-15581929D01*
X14221643Y-15510500D01*
X14235928Y-15453357D01*
X14250214Y-15424786D01*
X14264500Y-15410500D01*
X14293071Y-15396214D01*
X14493071Y-15396214D02*
X14693071Y-15396214D01*
X14564500Y-15696214D01*
X14964500Y-15696214D02*
X14793071Y-15696214D01*
X14878785Y-15696214D02*
X14878785Y-15396214D01*
X14850214Y-15439071D01*
X14821643Y-15467643D01*
X14793071Y-15481929D01*
X15078786Y-15396214D02*
X15078786Y-15453357D01*
X15193071Y-15396214D02*
X15193071Y-15453357D01*
X15635928Y-15810500D02*
X15621643Y-15796214D01*
X15593071Y-15753357D01*
X15578785Y-15724786D01*
X15564500Y-15681929D01*
X15550214Y-15610500D01*
X15550214Y-15553357D01*
X15564500Y-15481929D01*
X15578785Y-15439071D01*
X15593071Y-15410500D01*
X15621643Y-15367643D01*
X15635928Y-15353357D01*
X15735928Y-15424786D02*
X15750214Y-15410500D01*
X15778785Y-15396214D01*
X15850214Y-15396214D01*
X15878785Y-15410500D01*
X15893071Y-15424786D01*
X15907357Y-15453357D01*
X15907357Y-15481929D01*
X15893071Y-15524786D01*
X15721643Y-15696214D01*
X15907357Y-15696214D01*
X16264500Y-15696214D02*
X16264500Y-15396214D01*
X16393071Y-15696214D02*
X16393071Y-15539071D01*
X16378785Y-15510500D01*
X16350214Y-15496214D01*
X16307357Y-15496214D01*
X16278785Y-15510500D01*
X16264500Y-15524786D01*
X16578785Y-15696214D02*
X16550214Y-15681929D01*
X16535928Y-15667643D01*
X16521643Y-15639071D01*
X16521643Y-15553357D01*
X16535928Y-15524786D01*
X16550214Y-15510500D01*
X16578785Y-15496214D01*
X16621643Y-15496214D01*
X16650214Y-15510500D01*
X16664500Y-15524786D01*
X16678785Y-15553357D01*
X16678785Y-15639071D01*
X16664500Y-15667643D01*
X16650214Y-15681929D01*
X16621643Y-15696214D01*
X16578785Y-15696214D01*
X16850214Y-15696214D02*
X16821643Y-15681929D01*
X16807357Y-15653357D01*
X16807357Y-15396214D01*
X17078786Y-15681929D02*
X17050214Y-15696214D01*
X16993071Y-15696214D01*
X16964500Y-15681929D01*
X16950214Y-15653357D01*
X16950214Y-15539071D01*
X16964500Y-15510500D01*
X16993071Y-15496214D01*
X17050214Y-15496214D01*
X17078786Y-15510500D01*
X17093071Y-15539071D01*
X17093071Y-15567643D01*
X16950214Y-15596214D01*
X17207357Y-15681929D02*
X17235929Y-15696214D01*
X17293071Y-15696214D01*
X17321643Y-15681929D01*
X17335929Y-15653357D01*
X17335929Y-15639071D01*
X17321643Y-15610500D01*
X17293071Y-15596214D01*
X17250214Y-15596214D01*
X17221643Y-15581929D01*
X17207357Y-15553357D01*
X17207357Y-15539071D01*
X17221643Y-15510500D01*
X17250214Y-15496214D01*
X17293071Y-15496214D01*
X17321643Y-15510500D01*
X17435928Y-15810500D02*
X17450214Y-15796214D01*
X17478786Y-15753357D01*
X17493071Y-15724786D01*
X17507357Y-15681929D01*
X17521643Y-15610500D01*
X17521643Y-15553357D01*
X17507357Y-15481929D01*
X17493071Y-15439071D01*
X17478786Y-15410500D01*
X17450214Y-15367643D01*
X17435928Y-15353357D01*
X17978786Y-15810500D02*
X17964500Y-15796214D01*
X17935928Y-15753357D01*
X17921643Y-15724786D01*
X17907357Y-15681929D01*
X17893071Y-15610500D01*
X17893071Y-15553357D01*
X17907357Y-15481929D01*
X17921643Y-15439071D01*
X17935928Y-15410500D01*
X17964500Y-15367643D01*
X17978786Y-15353357D01*
X18093071Y-15496214D02*
X18093071Y-15696214D01*
X18093071Y-15524786D02*
X18107357Y-15510500D01*
X18135928Y-15496214D01*
X18178786Y-15496214D01*
X18207357Y-15510500D01*
X18221643Y-15539071D01*
X18221643Y-15696214D01*
X18407357Y-15696214D02*
X18378786Y-15681929D01*
X18364500Y-15667643D01*
X18350214Y-15639071D01*
X18350214Y-15553357D01*
X18364500Y-15524786D01*
X18378786Y-15510500D01*
X18407357Y-15496214D01*
X18450214Y-15496214D01*
X18478786Y-15510500D01*
X18493071Y-15524786D01*
X18507357Y-15553357D01*
X18507357Y-15639071D01*
X18493071Y-15667643D01*
X18478786Y-15681929D01*
X18450214Y-15696214D01*
X18407357Y-15696214D01*
X18593071Y-15496214D02*
X18707357Y-15496214D01*
X18635929Y-15396214D02*
X18635929Y-15653357D01*
X18650214Y-15681929D01*
X18678786Y-15696214D01*
X18707357Y-15696214D01*
X19035929Y-15496214D02*
X19035929Y-15796214D01*
X19035929Y-15510500D02*
X19064500Y-15496214D01*
X19121643Y-15496214D01*
X19150214Y-15510500D01*
X19164500Y-15524786D01*
X19178786Y-15553357D01*
X19178786Y-15639071D01*
X19164500Y-15667643D01*
X19150214Y-15681929D01*
X19121643Y-15696214D01*
X19064500Y-15696214D01*
X19035929Y-15681929D01*
X19350214Y-15696214D02*
X19321643Y-15681929D01*
X19307357Y-15653357D01*
X19307357Y-15396214D01*
X19593071Y-15696214D02*
X19593071Y-15539071D01*
X19578786Y-15510500D01*
X19550214Y-15496214D01*
X19493071Y-15496214D01*
X19464500Y-15510500D01*
X19593071Y-15681929D02*
X19564500Y-15696214D01*
X19493071Y-15696214D01*
X19464500Y-15681929D01*
X19450214Y-15653357D01*
X19450214Y-15624786D01*
X19464500Y-15596214D01*
X19493071Y-15581929D01*
X19564500Y-15581929D01*
X19593071Y-15567643D01*
X19693071Y-15496214D02*
X19807357Y-15496214D01*
X19735929Y-15396214D02*
X19735929Y-15653357D01*
X19750214Y-15681929D01*
X19778786Y-15696214D01*
X19807357Y-15696214D01*
X20021643Y-15681929D02*
X19993072Y-15696214D01*
X19935929Y-15696214D01*
X19907357Y-15681929D01*
X19893072Y-15653357D01*
X19893072Y-15539071D01*
X19907357Y-15510500D01*
X19935929Y-15496214D01*
X19993072Y-15496214D01*
X20021643Y-15510500D01*
X20035929Y-15539071D01*
X20035929Y-15567643D01*
X19893072Y-15596214D01*
X20293072Y-15696214D02*
X20293072Y-15396214D01*
X20293072Y-15681929D02*
X20264500Y-15696214D01*
X20207357Y-15696214D01*
X20178786Y-15681929D01*
X20164500Y-15667643D01*
X20150214Y-15639071D01*
X20150214Y-15553357D01*
X20164500Y-15524786D01*
X20178786Y-15510500D01*
X20207357Y-15496214D01*
X20264500Y-15496214D01*
X20293072Y-15510500D01*
X20407357Y-15810500D02*
X20421643Y-15796214D01*
X20450214Y-15753357D01*
X20464500Y-15724786D01*
X20478786Y-15681929D01*
X20493072Y-15610500D01*
X20493072Y-15553357D01*
X20478786Y-15481929D01*
X20464500Y-15439071D01*
X20450214Y-15410500D01*
X20421643Y-15367643D01*
X20407357Y-15353357D01*
X10804500Y-15796500D02*
X10804500Y-16116500D01*
X10644500Y-15956500D02*
X10964500Y-15956500D01*
X11207357Y-15792214D02*
X11393071Y-15792214D01*
X11293071Y-15906500D01*
X11335928Y-15906500D01*
X11364500Y-15920786D01*
X11378786Y-15935071D01*
X11393071Y-15963643D01*
X11393071Y-16035071D01*
X11378786Y-16063643D01*
X11364500Y-16077929D01*
X11335928Y-16092214D01*
X11250214Y-16092214D01*
X11221643Y-16077929D01*
X11207357Y-16063643D01*
X11521643Y-16063643D02*
X11535928Y-16077929D01*
X11521643Y-16092214D01*
X11507357Y-16077929D01*
X11521643Y-16063643D01*
X11521643Y-16092214D01*
X11650214Y-15820786D02*
X11664500Y-15806500D01*
X11693071Y-15792214D01*
X11764500Y-15792214D01*
X11793071Y-15806500D01*
X11807357Y-15820786D01*
X11821643Y-15849357D01*
X11821643Y-15877929D01*
X11807357Y-15920786D01*
X11635928Y-16092214D01*
X11821643Y-16092214D01*
X12007357Y-15792214D02*
X12035928Y-15792214D01*
X12064500Y-15806500D01*
X12078786Y-15820786D01*
X12093071Y-15849357D01*
X12107357Y-15906500D01*
X12107357Y-15977929D01*
X12093071Y-16035071D01*
X12078786Y-16063643D01*
X12064500Y-16077929D01*
X12035928Y-16092214D01*
X12007357Y-16092214D01*
X11978786Y-16077929D01*
X11964500Y-16063643D01*
X11950214Y-16035071D01*
X11935928Y-15977929D01*
X11935928Y-15906500D01*
X11950214Y-15849357D01*
X11964500Y-15820786D01*
X11978786Y-15806500D01*
X12007357Y-15792214D01*
X12235928Y-16092214D02*
X12235928Y-15892214D01*
X12235928Y-15920786D02*
X12250214Y-15906500D01*
X12278786Y-15892214D01*
X12321643Y-15892214D01*
X12350214Y-15906500D01*
X12364500Y-15935071D01*
X12364500Y-16092214D01*
X12364500Y-15935071D02*
X12378786Y-15906500D01*
X12407357Y-15892214D01*
X12450214Y-15892214D01*
X12478786Y-15906500D01*
X12493071Y-15935071D01*
X12493071Y-16092214D01*
X12635928Y-16092214D02*
X12635928Y-15892214D01*
X12635928Y-15920786D02*
X12650214Y-15906500D01*
X12678786Y-15892214D01*
X12721643Y-15892214D01*
X12750214Y-15906500D01*
X12764500Y-15935071D01*
X12764500Y-16092214D01*
X12764500Y-15935071D02*
X12778786Y-15906500D01*
X12807357Y-15892214D01*
X12850214Y-15892214D01*
X12878786Y-15906500D01*
X12893071Y-15935071D01*
X12893071Y-16092214D01*
X13478786Y-15777929D02*
X13221643Y-16163643D01*
X13864500Y-15792214D02*
X13893071Y-15792214D01*
X13921643Y-15806500D01*
X13935928Y-15820786D01*
X13950214Y-15849357D01*
X13964500Y-15906500D01*
X13964500Y-15977929D01*
X13950214Y-16035071D01*
X13935928Y-16063643D01*
X13921643Y-16077929D01*
X13893071Y-16092214D01*
X13864500Y-16092214D01*
X13835928Y-16077929D01*
X13821643Y-16063643D01*
X13807357Y-16035071D01*
X13793071Y-15977929D01*
X13793071Y-15906500D01*
X13807357Y-15849357D01*
X13821643Y-15820786D01*
X13835928Y-15806500D01*
X13864500Y-15792214D01*
X14093071Y-16063643D02*
X14107357Y-16077929D01*
X14093071Y-16092214D01*
X14078786Y-16077929D01*
X14093071Y-16063643D01*
X14093071Y-16092214D01*
X14393071Y-16092214D02*
X14221643Y-16092214D01*
X14307357Y-16092214D02*
X14307357Y-15792214D01*
X14278785Y-15835071D01*
X14250214Y-15863643D01*
X14221643Y-15877929D01*
X14507357Y-15820786D02*
X14521643Y-15806500D01*
X14550214Y-15792214D01*
X14621643Y-15792214D01*
X14650214Y-15806500D01*
X14664500Y-15820786D01*
X14678785Y-15849357D01*
X14678785Y-15877929D01*
X14664500Y-15920786D01*
X14493071Y-16092214D01*
X14678785Y-16092214D01*
X14935928Y-15792214D02*
X14878785Y-15792214D01*
X14850214Y-15806500D01*
X14835928Y-15820786D01*
X14807357Y-15863643D01*
X14793071Y-15920786D01*
X14793071Y-16035071D01*
X14807357Y-16063643D01*
X14821643Y-16077929D01*
X14850214Y-16092214D01*
X14907357Y-16092214D01*
X14935928Y-16077929D01*
X14950214Y-16063643D01*
X14964500Y-16035071D01*
X14964500Y-15963643D01*
X14950214Y-15935071D01*
X14935928Y-15920786D01*
X14907357Y-15906500D01*
X14850214Y-15906500D01*
X14821643Y-15920786D01*
X14807357Y-15935071D01*
X14793071Y-15963643D01*
X15078786Y-15792214D02*
X15078786Y-15849357D01*
X15193071Y-15792214D02*
X15193071Y-15849357D01*
X15635928Y-16206500D02*
X15621643Y-16192214D01*
X15593071Y-16149357D01*
X15578785Y-16120786D01*
X15564500Y-16077929D01*
X15550214Y-16006500D01*
X15550214Y-15949357D01*
X15564500Y-15877929D01*
X15578785Y-15835071D01*
X15593071Y-15806500D01*
X15621643Y-15763643D01*
X15635928Y-15749357D01*
X15878785Y-15792214D02*
X15821643Y-15792214D01*
X15793071Y-15806500D01*
X15778785Y-15820786D01*
X15750214Y-15863643D01*
X15735928Y-15920786D01*
X15735928Y-16035071D01*
X15750214Y-16063643D01*
X15764500Y-16077929D01*
X15793071Y-16092214D01*
X15850214Y-16092214D01*
X15878785Y-16077929D01*
X15893071Y-16063643D01*
X15907357Y-16035071D01*
X15907357Y-15963643D01*
X15893071Y-15935071D01*
X15878785Y-15920786D01*
X15850214Y-15906500D01*
X15793071Y-15906500D01*
X15764500Y-15920786D01*
X15750214Y-15935071D01*
X15735928Y-15963643D01*
X16264500Y-16092214D02*
X16264500Y-15792214D01*
X16393071Y-16092214D02*
X16393071Y-15935071D01*
X16378785Y-15906500D01*
X16350214Y-15892214D01*
X16307357Y-15892214D01*
X16278785Y-15906500D01*
X16264500Y-15920786D01*
X16578785Y-16092214D02*
X16550214Y-16077929D01*
X16535928Y-16063643D01*
X16521643Y-16035071D01*
X16521643Y-15949357D01*
X16535928Y-15920786D01*
X16550214Y-15906500D01*
X16578785Y-15892214D01*
X16621643Y-15892214D01*
X16650214Y-15906500D01*
X16664500Y-15920786D01*
X16678785Y-15949357D01*
X16678785Y-16035071D01*
X16664500Y-16063643D01*
X16650214Y-16077929D01*
X16621643Y-16092214D01*
X16578785Y-16092214D01*
X16850214Y-16092214D02*
X16821643Y-16077929D01*
X16807357Y-16049357D01*
X16807357Y-15792214D01*
X17078786Y-16077929D02*
X17050214Y-16092214D01*
X16993071Y-16092214D01*
X16964500Y-16077929D01*
X16950214Y-16049357D01*
X16950214Y-15935071D01*
X16964500Y-15906500D01*
X16993071Y-15892214D01*
X17050214Y-15892214D01*
X17078786Y-15906500D01*
X17093071Y-15935071D01*
X17093071Y-15963643D01*
X16950214Y-15992214D01*
X17207357Y-16077929D02*
X17235929Y-16092214D01*
X17293071Y-16092214D01*
X17321643Y-16077929D01*
X17335929Y-16049357D01*
X17335929Y-16035071D01*
X17321643Y-16006500D01*
X17293071Y-15992214D01*
X17250214Y-15992214D01*
X17221643Y-15977929D01*
X17207357Y-15949357D01*
X17207357Y-15935071D01*
X17221643Y-15906500D01*
X17250214Y-15892214D01*
X17293071Y-15892214D01*
X17321643Y-15906500D01*
X17435928Y-16206500D02*
X17450214Y-16192214D01*
X17478786Y-16149357D01*
X17493071Y-16120786D01*
X17507357Y-16077929D01*
X17521643Y-16006500D01*
X17521643Y-15949357D01*
X17507357Y-15877929D01*
X17493071Y-15835071D01*
X17478786Y-15806500D01*
X17450214Y-15763643D01*
X17435928Y-15749357D01*
X17978786Y-16206500D02*
X17964500Y-16192214D01*
X17935928Y-16149357D01*
X17921643Y-16120786D01*
X17907357Y-16077929D01*
X17893071Y-16006500D01*
X17893071Y-15949357D01*
X17907357Y-15877929D01*
X17921643Y-15835071D01*
X17935928Y-15806500D01*
X17964500Y-15763643D01*
X17978786Y-15749357D01*
X18093071Y-15892214D02*
X18093071Y-16092214D01*
X18093071Y-15920786D02*
X18107357Y-15906500D01*
X18135928Y-15892214D01*
X18178786Y-15892214D01*
X18207357Y-15906500D01*
X18221643Y-15935071D01*
X18221643Y-16092214D01*
X18407357Y-16092214D02*
X18378786Y-16077929D01*
X18364500Y-16063643D01*
X18350214Y-16035071D01*
X18350214Y-15949357D01*
X18364500Y-15920786D01*
X18378786Y-15906500D01*
X18407357Y-15892214D01*
X18450214Y-15892214D01*
X18478786Y-15906500D01*
X18493071Y-15920786D01*
X18507357Y-15949357D01*
X18507357Y-16035071D01*
X18493071Y-16063643D01*
X18478786Y-16077929D01*
X18450214Y-16092214D01*
X18407357Y-16092214D01*
X18593071Y-15892214D02*
X18707357Y-15892214D01*
X18635929Y-15792214D02*
X18635929Y-16049357D01*
X18650214Y-16077929D01*
X18678786Y-16092214D01*
X18707357Y-16092214D01*
X19035929Y-15892214D02*
X19035929Y-16192214D01*
X19035929Y-15906500D02*
X19064500Y-15892214D01*
X19121643Y-15892214D01*
X19150214Y-15906500D01*
X19164500Y-15920786D01*
X19178786Y-15949357D01*
X19178786Y-16035071D01*
X19164500Y-16063643D01*
X19150214Y-16077929D01*
X19121643Y-16092214D01*
X19064500Y-16092214D01*
X19035929Y-16077929D01*
X19350214Y-16092214D02*
X19321643Y-16077929D01*
X19307357Y-16049357D01*
X19307357Y-15792214D01*
X19593071Y-16092214D02*
X19593071Y-15935071D01*
X19578786Y-15906500D01*
X19550214Y-15892214D01*
X19493071Y-15892214D01*
X19464500Y-15906500D01*
X19593071Y-16077929D02*
X19564500Y-16092214D01*
X19493071Y-16092214D01*
X19464500Y-16077929D01*
X19450214Y-16049357D01*
X19450214Y-16020786D01*
X19464500Y-15992214D01*
X19493071Y-15977929D01*
X19564500Y-15977929D01*
X19593071Y-15963643D01*
X19693071Y-15892214D02*
X19807357Y-15892214D01*
X19735929Y-15792214D02*
X19735929Y-16049357D01*
X19750214Y-16077929D01*
X19778786Y-16092214D01*
X19807357Y-16092214D01*
X20021643Y-16077929D02*
X19993072Y-16092214D01*
X19935929Y-16092214D01*
X19907357Y-16077929D01*
X19893072Y-16049357D01*
X19893072Y-15935071D01*
X19907357Y-15906500D01*
X19935929Y-15892214D01*
X19993072Y-15892214D01*
X20021643Y-15906500D01*
X20035929Y-15935071D01*
X20035929Y-15963643D01*
X19893072Y-15992214D01*
X20293072Y-16092214D02*
X20293072Y-15792214D01*
X20293072Y-16077929D02*
X20264500Y-16092214D01*
X20207357Y-16092214D01*
X20178786Y-16077929D01*
X20164500Y-16063643D01*
X20150214Y-16035071D01*
X20150214Y-15949357D01*
X20164500Y-15920786D01*
X20178786Y-15906500D01*
X20207357Y-15892214D01*
X20264500Y-15892214D01*
X20293072Y-15906500D01*
X20407357Y-16206500D02*
X20421643Y-16192214D01*
X20450214Y-16149357D01*
X20464500Y-16120786D01*
X20478786Y-16077929D01*
X20493072Y-16006500D01*
X20493072Y-15949357D01*
X20478786Y-15877929D01*
X20464500Y-15835071D01*
X20450214Y-15806500D01*
X20421643Y-15763643D01*
X20407357Y-15749357D01*
M02*
