G04 #@! TF.FileFunction,Profile,NP*
%FSLAX46Y46*%
G04 Gerber Fmt 4.6, Leading zero omitted, Abs format (unit mm)*
G04 Created by KiCad (PCBNEW 4.0.5+dfsg1-4) date Thu Oct  6 23:04:55 2022*
%MOMM*%
%LPD*%
G01*
G04 APERTURE LIST*
%ADD10C,0.150000*%
G04 APERTURE END LIST*
D10*
X109720000Y-75830000D02*
X162485000Y-75830000D01*
X162485000Y-75830000D02*
X162485000Y-80975000D01*
X162485000Y-80975000D02*
G75*
G03X169115000Y-80975000I3315000J0D01*
G01*
X169115000Y-80975000D02*
X169115000Y-75830000D01*
X169115000Y-75830000D02*
X209720000Y-75830000D01*
X209720000Y-75830000D02*
X209720000Y-141970000D01*
X209720000Y-141970000D02*
X169115000Y-141970000D01*
X169115000Y-141970000D02*
X169115000Y-136825000D01*
X169115000Y-136825000D02*
G75*
G03X162485000Y-136825000I-3315000J0D01*
G01*
X162485000Y-136825000D02*
X162485000Y-141970000D01*
X162485000Y-141970000D02*
X109720000Y-141970000D01*
X109720000Y-141970000D02*
X109720000Y-112629000D01*
X109720000Y-112629000D02*
X111980600Y-112629000D01*
X111980600Y-112629000D02*
X111980600Y-106498900D01*
X111980600Y-106498900D02*
X116832000Y-106498900D01*
X116832000Y-106498900D02*
X116832000Y-87271100D01*
X116832000Y-87271100D02*
X111980600Y-87271100D01*
X111980600Y-87271100D02*
X111980600Y-81141000D01*
X111980600Y-81141000D02*
X109720000Y-81141000D01*
X109720000Y-81141000D02*
X109720000Y-75830000D01*
M02*
