M48
;DRILL file {KiCad 4.0.5+dfsg1-4} date Sat Oct 15 20:35:42 2022
;FORMAT={-:-/ absolute / metric / decimal}
FMAT,2
METRIC,TZ
T1C0.400
T2C0.600
T3C0.800
T4C0.800
T5C0.813
T6C1.001
T7C1.016
T8C1.020
T9C1.270
%
G90
G05
M71
T1
X111.76Y-136.398
X130.429Y-125.73
X130.429Y-136.398
X131.826Y-86.741
X131.826Y-99.441
X132.461Y-88.011
X132.461Y-98.171
X133.096Y-89.281
X133.096Y-101.981
X133.731Y-90.551
X133.731Y-96.901
X134.366Y-91.821
X134.366Y-100.711
X135.001Y-93.218
X135.001Y-103.632
X137.033Y-134.366
X142.748Y-84.201
X142.748Y-98.171
X147.193Y-136.271
X149.987Y-86.741
X149.987Y-98.171
X156.083Y-88.011
X156.083Y-97.028
X161.036Y-91.821
X161.036Y-99.441
X162.433Y-91.821
X162.433Y-95.631
X164.973Y-85.217
X164.973Y-94.234
X167.767Y-86.741
X167.767Y-90.551
X170.053Y-81.661
X170.053Y-93.091
X171.323Y-90.551
X171.323Y-98.171
X172.593Y-89.281
X172.593Y-94.361
X177.673Y-99.441
X178.562Y-86.741
X178.562Y-104.775
X179.578Y-89.281
X179.578Y-103.886
X182.753Y-104.775
X185.293Y-103.886
T2
X111.76Y-133.858
X113.03Y-133.858
X114.3Y-133.858
T3
X111.76Y-138.176
X125.095Y-125.73
X125.095Y-128.27
X125.095Y-130.81
X125.095Y-133.35
X129.286Y-82.042
X132.715Y-125.73
X132.715Y-128.27
X132.715Y-130.81
X132.715Y-133.35
X133.858Y-85.471
X142.748Y-78.359
X149.733Y-84.582
X153.162Y-80.772
X174.879Y-79.121
X174.879Y-81.661
X174.879Y-84.201
X174.879Y-86.741
X174.879Y-89.281
X174.879Y-91.821
X174.879Y-94.361
X174.879Y-96.901
X174.879Y-99.441
X174.879Y-101.981
X182.499Y-79.121
X182.499Y-81.661
X182.499Y-84.201
X182.499Y-86.741
X182.499Y-89.281
X182.499Y-91.821
X182.499Y-94.361
X182.499Y-96.901
X182.499Y-99.441
X182.499Y-101.981
X186.182Y-78.359
T4
X114.26Y-138.176
X129.286Y-84.542
X133.858Y-82.971
X140.248Y-78.359
X149.733Y-82.082
X153.162Y-85.852
X186.182Y-80.859
T5
X139.573Y-131.572
X139.573Y-134.366
X147.193Y-131.572
X147.193Y-134.366
X195.045Y-84.516
X195.045Y-91.12
X195.045Y-97.724
X195.045Y-104.328
X195.045Y-110.932
X195.045Y-117.536
X195.045Y-124.14
X195.045Y-130.744
X202.665Y-84.516
X202.665Y-91.12
X202.665Y-97.724
X202.665Y-104.328
X202.665Y-110.932
X202.665Y-117.536
X202.665Y-124.14
X202.665Y-130.744
T6
X182.753Y-133.099
X205.74Y-84.516
X205.74Y-87.056
X205.74Y-91.12
X205.74Y-93.66
X205.74Y-97.724
X205.74Y-100.264
X205.74Y-104.328
X205.74Y-106.868
X205.74Y-110.932
X205.74Y-113.472
X205.74Y-117.536
X205.74Y-120.076
X205.74Y-124.14
X205.74Y-126.68
X205.74Y-130.744
X205.74Y-133.284
T7
X126.365Y-91.805
X126.365Y-94.345
X126.365Y-96.885
X126.365Y-99.425
X126.365Y-101.965
X128.905Y-91.805
X128.905Y-94.345
X128.905Y-96.885
X128.905Y-99.425
X128.905Y-101.965
T8
X137.033Y-108.331
X137.033Y-126.111
X139.573Y-108.331
X139.573Y-126.111
X142.113Y-108.331
X142.113Y-126.111
X144.653Y-108.331
X144.653Y-126.111
X147.193Y-108.331
X147.193Y-126.111
X149.733Y-108.331
X149.733Y-126.111
X152.273Y-108.331
X152.273Y-126.111
X154.813Y-108.331
X154.813Y-126.111
X155.563Y-117.805
X155.563Y-120.345
X155.563Y-122.885
X157.353Y-108.331
X157.353Y-126.111
X159.893Y-108.331
X159.893Y-126.111
X162.433Y-108.331
X162.433Y-126.111
X164.973Y-108.331
X164.973Y-126.111
X167.513Y-108.331
X167.513Y-126.111
X170.053Y-108.331
X170.053Y-126.111
X172.593Y-108.331
X172.593Y-126.111
X175.133Y-108.331
X175.133Y-126.111
X177.673Y-108.331
X177.673Y-126.111
X180.213Y-108.331
X180.213Y-126.111
X182.753Y-108.331
X182.753Y-126.111
X185.293Y-108.331
X185.293Y-126.111
T9
X172.593Y-133.099
T6
X113.611Y-121.231G85X113.611Y-123.229
G05
X115.611Y-126.929G85X117.61Y-126.929
G05
X119.61Y-121.231G85X119.61Y-123.229
G05
T0
M30
