G04 #@! TF.FileFunction,Copper,L1,Top,Signal*
%FSLAX46Y46*%
G04 Gerber Fmt 4.6, Leading zero omitted, Abs format (unit mm)*
G04 Created by KiCad (PCBNEW 4.0.5+dfsg1-4) date Thu Oct  6 23:04:55 2022*
%MOMM*%
%LPD*%
G01*
G04 APERTURE LIST*
%ADD10C,0.150000*%
%ADD11R,1.300000X1.300000*%
%ADD12C,1.300000*%
%ADD13R,3.500120X3.500120*%
%ADD14R,2.000000X2.000000*%
%ADD15C,2.000000*%
%ADD16C,1.998980*%
%ADD17R,1.998980X1.998980*%
%ADD18R,1.727200X1.727200*%
%ADD19O,1.727200X1.727200*%
%ADD20C,1.397000*%
%ADD21R,2.000000X0.600000*%
%ADD22O,2.300000X1.600000*%
%ADD23O,1.700000X1.700000*%
%ADD24R,1.700000X1.700000*%
%ADD25R,1.700000X3.500000*%
%ADD26O,0.899160X1.501140*%
%ADD27C,0.600000*%
%ADD28C,0.254000*%
%ADD29C,0.508000*%
G04 APERTURE END LIST*
D10*
D11*
X129286000Y-82042000D03*
D12*
X129286000Y-84542000D03*
D11*
X133858000Y-85471000D03*
D12*
X133858000Y-82971000D03*
D11*
X149733000Y-84582000D03*
D12*
X149733000Y-82082000D03*
D11*
X142748000Y-78359000D03*
D12*
X140248000Y-78359000D03*
D11*
X186182000Y-78359000D03*
D12*
X186182000Y-80859000D03*
D11*
X153162000Y-80772000D03*
D12*
X153162000Y-85852000D03*
D11*
X111760000Y-138176000D03*
D12*
X114260000Y-138176000D03*
D13*
X119610140Y-122230000D03*
X113610660Y-122230000D03*
X116610400Y-126929000D03*
D14*
X205740000Y-84516000D03*
D15*
X205740000Y-87056000D03*
D14*
X205740000Y-91120000D03*
D15*
X205740000Y-93660000D03*
D14*
X205740000Y-97724000D03*
D15*
X205740000Y-100264000D03*
D14*
X205740000Y-104328000D03*
D15*
X205740000Y-106868000D03*
D14*
X205740000Y-110932000D03*
D15*
X205740000Y-113472000D03*
D14*
X205740000Y-117536000D03*
D15*
X205740000Y-120076000D03*
D14*
X205740000Y-124140000D03*
D15*
X205740000Y-126680000D03*
D14*
X205740000Y-130744000D03*
D15*
X205740000Y-133284000D03*
D16*
X172593000Y-133098540D03*
D17*
X182753000Y-133098540D03*
D18*
X128905000Y-101965000D03*
D19*
X126365000Y-101965000D03*
X128905000Y-99425000D03*
X126365000Y-99425000D03*
X128905000Y-96885000D03*
X126365000Y-96885000D03*
X128905000Y-94345000D03*
X126365000Y-94345000D03*
X128905000Y-91805000D03*
X126365000Y-91805000D03*
D20*
X195045000Y-84516000D03*
X202665000Y-84516000D03*
X195045000Y-91120000D03*
X202665000Y-91120000D03*
X195045000Y-97724000D03*
X202665000Y-97724000D03*
X195045000Y-104328000D03*
X202665000Y-104328000D03*
X195045000Y-110932000D03*
X202665000Y-110932000D03*
X195045000Y-117536000D03*
X202665000Y-117536000D03*
X195045000Y-124140000D03*
X202665000Y-124140000D03*
X195045000Y-130744000D03*
X202665000Y-130744000D03*
X147193000Y-131572000D03*
X139573000Y-131572000D03*
X147193000Y-134366000D03*
X139573000Y-134366000D03*
D21*
X136905000Y-81661000D03*
X136905000Y-82931000D03*
X136905000Y-84201000D03*
X136905000Y-85471000D03*
X136905000Y-86741000D03*
X136905000Y-88011000D03*
X136905000Y-89281000D03*
X136905000Y-90551000D03*
X136905000Y-91821000D03*
X136905000Y-93091000D03*
X136905000Y-94361000D03*
X136905000Y-95631000D03*
X136905000Y-96901000D03*
X136905000Y-98171000D03*
X146305000Y-98171000D03*
X146305000Y-96901000D03*
X146305000Y-95631000D03*
X146305000Y-94361000D03*
X146305000Y-93091000D03*
X146305000Y-91821000D03*
X146305000Y-90551000D03*
X146305000Y-89281000D03*
X146305000Y-88011000D03*
X146305000Y-86741000D03*
X146305000Y-85471000D03*
X146305000Y-84201000D03*
X146305000Y-82931000D03*
X146305000Y-81661000D03*
D22*
X174879000Y-79121000D03*
X174879000Y-81661000D03*
X174879000Y-84201000D03*
X174879000Y-86741000D03*
X174879000Y-89281000D03*
X174879000Y-91821000D03*
X174879000Y-94361000D03*
X174879000Y-96901000D03*
X174879000Y-99441000D03*
X174879000Y-101981000D03*
X182499000Y-101981000D03*
X182499000Y-99441000D03*
X182499000Y-96901000D03*
X182499000Y-94361000D03*
X182499000Y-91821000D03*
X182499000Y-89281000D03*
X182499000Y-86741000D03*
X182499000Y-84201000D03*
X182499000Y-81661000D03*
X182499000Y-79121000D03*
D23*
X185293000Y-108331000D03*
X182753000Y-108331000D03*
D24*
X180213000Y-108331000D03*
D23*
X177673000Y-108331000D03*
X175133000Y-108331000D03*
X172593000Y-108331000D03*
X170053000Y-108331000D03*
D24*
X167513000Y-108331000D03*
D23*
X164973000Y-108331000D03*
X162433000Y-108331000D03*
X159893000Y-108331000D03*
X157353000Y-108331000D03*
D24*
X154813000Y-108331000D03*
D23*
X152273000Y-108331000D03*
X149733000Y-108331000D03*
X147193000Y-108331000D03*
X144653000Y-108331000D03*
D24*
X142113000Y-108331000D03*
D23*
X139573000Y-108331000D03*
X137033000Y-108331000D03*
X137033000Y-126111000D03*
X139573000Y-126111000D03*
D24*
X142113000Y-126111000D03*
D23*
X144653000Y-126111000D03*
X147193000Y-126111000D03*
X149733000Y-126111000D03*
X152273000Y-126111000D03*
D24*
X154813000Y-126111000D03*
D23*
X157353000Y-126111000D03*
X159893000Y-126111000D03*
X162433000Y-126111000D03*
X164973000Y-126111000D03*
D24*
X167513000Y-126111000D03*
D23*
X170053000Y-126111000D03*
X172593000Y-126111000D03*
X175133000Y-126111000D03*
X177673000Y-126111000D03*
D24*
X180213000Y-126111000D03*
D23*
X182753000Y-126111000D03*
X185293000Y-126111000D03*
X155563000Y-117805100D03*
D24*
X155563000Y-120345100D03*
D23*
X155563000Y-122885100D03*
D25*
X185293000Y-107431000D03*
X182753000Y-107431000D03*
X180213000Y-107431000D03*
X177673000Y-107431000D03*
X175133000Y-107431000D03*
X172593000Y-107431000D03*
X170053000Y-107431000D03*
X167513000Y-107431000D03*
X164973000Y-107431000D03*
X162433000Y-107431000D03*
X159893000Y-107431000D03*
X157353000Y-107431000D03*
X154813000Y-107431000D03*
X152273000Y-107431000D03*
X149733000Y-107431000D03*
X147193000Y-107431000D03*
X144653000Y-107431000D03*
X142113000Y-107431000D03*
X139573000Y-107431000D03*
X137033000Y-107431000D03*
X137033000Y-127011000D03*
X139573000Y-127011000D03*
X142113000Y-127011000D03*
X144653000Y-127011000D03*
X147193000Y-127011000D03*
X149733000Y-127011000D03*
X152273000Y-127011000D03*
X154813000Y-127011000D03*
X157353000Y-127011000D03*
X159893000Y-127011000D03*
X162433000Y-127011000D03*
X164973000Y-127011000D03*
X167513000Y-127011000D03*
X170053000Y-127011000D03*
X172593000Y-127011000D03*
X175133000Y-127011000D03*
X177673000Y-127011000D03*
X180213000Y-127011000D03*
X182753000Y-127011000D03*
X185293000Y-127011000D03*
D26*
X113030000Y-133858000D03*
X114300000Y-133858000D03*
X111760000Y-133858000D03*
D22*
X125095000Y-125730000D03*
X125095000Y-128270000D03*
X125095000Y-130810000D03*
X125095000Y-133350000D03*
X132715000Y-133350000D03*
X132715000Y-130810000D03*
X132715000Y-128270000D03*
X132715000Y-125730000D03*
D27*
X111760000Y-136398000D03*
X147193000Y-136271000D03*
X130429000Y-136398000D03*
X130429000Y-125730000D03*
X142748000Y-98171000D03*
X142748000Y-84201000D03*
X133096000Y-101981000D03*
X133096000Y-89281000D03*
X135001000Y-93218000D03*
X135001000Y-103632000D03*
X131826000Y-99441000D03*
X131826000Y-86741000D03*
X134366000Y-100711000D03*
X134366000Y-91821000D03*
X133731000Y-96901000D03*
X133731000Y-90551000D03*
X132461000Y-98171000D03*
X132461000Y-88011000D03*
X137033000Y-134366000D03*
X162433000Y-91821000D03*
X162433000Y-95631000D03*
X164973000Y-85217000D03*
X164973000Y-94234000D03*
X170053000Y-81661000D03*
X170053000Y-93091000D03*
X177673000Y-99441000D03*
X161036000Y-91821000D03*
X161036000Y-99441000D03*
X178689000Y-89281000D03*
X178689000Y-104902000D03*
X182753000Y-104902000D03*
X172593000Y-94361000D03*
X172593000Y-89281000D03*
X156083000Y-97028000D03*
X156083000Y-88011000D03*
X179832000Y-86741000D03*
X179832000Y-104140000D03*
X185293000Y-104140000D03*
X150749000Y-86741000D03*
X150749000Y-101092000D03*
X167386000Y-101092000D03*
X167386000Y-86741000D03*
D28*
X136905000Y-81661000D02*
X129667000Y-81661000D01*
X129667000Y-81661000D02*
X129286000Y-82042000D01*
X136905000Y-84201000D02*
X129627000Y-84201000D01*
X129627000Y-84201000D02*
X129286000Y-84542000D01*
X136905000Y-85471000D02*
X133858000Y-85471000D01*
D29*
X113030000Y-133858000D02*
X113030000Y-122810660D01*
X113030000Y-122810660D02*
X113610660Y-122230000D01*
X130429000Y-136398000D02*
X111760000Y-136398000D01*
X146305000Y-84201000D02*
X149352000Y-84201000D01*
X149352000Y-84201000D02*
X149733000Y-84582000D01*
X132715000Y-125730000D02*
X130429000Y-125730000D01*
X130556000Y-136271000D02*
X147193000Y-136271000D01*
X130429000Y-136398000D02*
X130556000Y-136271000D01*
X142748000Y-98171000D02*
X136905000Y-98171000D01*
X146305000Y-84201000D02*
X142748000Y-84201000D01*
D28*
X148884000Y-82931000D02*
X146305000Y-82931000D01*
X149733000Y-82082000D02*
X148884000Y-82931000D01*
D29*
X182499000Y-79121000D02*
X174879000Y-79121000D01*
D28*
X147194000Y-80772000D02*
X153162000Y-80772000D01*
X146305000Y-81661000D02*
X147194000Y-80772000D01*
X146305000Y-85471000D02*
X146686000Y-85852000D01*
X146686000Y-85852000D02*
X153162000Y-85852000D01*
X136905000Y-89281000D02*
X133096000Y-89281000D01*
X133096000Y-101981000D02*
X128921000Y-101981000D01*
X128921000Y-101981000D02*
X128905000Y-101965000D01*
X136905000Y-93091000D02*
X136778000Y-93218000D01*
X136778000Y-93218000D02*
X135001000Y-93218000D01*
X135001000Y-103632000D02*
X128032000Y-103632000D01*
X128032000Y-103632000D02*
X126365000Y-101965000D01*
X136905000Y-86741000D02*
X131826000Y-86741000D01*
X131826000Y-99441000D02*
X128921000Y-99441000D01*
X128921000Y-99441000D02*
X128905000Y-99425000D01*
X136905000Y-91821000D02*
X134366000Y-91821000D01*
X127651000Y-100711000D02*
X126365000Y-99425000D01*
X134366000Y-100711000D02*
X127651000Y-100711000D01*
X136905000Y-90551000D02*
X133731000Y-90551000D01*
X133731000Y-96901000D02*
X128921000Y-96901000D01*
X128921000Y-96901000D02*
X128905000Y-96885000D01*
X128921000Y-96901000D02*
X128905000Y-96885000D01*
X136905000Y-88011000D02*
X132461000Y-88011000D01*
X127651000Y-98171000D02*
X126365000Y-96885000D01*
X132461000Y-98171000D02*
X127651000Y-98171000D01*
X128905000Y-94345000D02*
X128921000Y-94361000D01*
X128921000Y-94361000D02*
X136905000Y-94361000D01*
X126365000Y-94345000D02*
X127651000Y-95631000D01*
X127651000Y-95631000D02*
X136905000Y-95631000D01*
X139573000Y-131572000D02*
X139446000Y-131699000D01*
X139446000Y-131699000D02*
X135890000Y-131699000D01*
X135001000Y-130810000D02*
X132715000Y-130810000D01*
X135890000Y-131699000D02*
X135001000Y-130810000D01*
X137033000Y-134366000D02*
X136017000Y-133350000D01*
X136017000Y-133350000D02*
X132715000Y-133350000D01*
X137033000Y-134366000D02*
X139573000Y-134366000D01*
X162433000Y-91821000D02*
X174879000Y-91821000D01*
X146305000Y-95631000D02*
X162433000Y-95631000D01*
X168783000Y-84201000D02*
X174879000Y-84201000D01*
X167767000Y-85217000D02*
X168783000Y-84201000D01*
X164973000Y-85217000D02*
X167767000Y-85217000D01*
X146305000Y-94361000D02*
X146432000Y-94234000D01*
X146432000Y-94234000D02*
X164973000Y-94234000D01*
X170053000Y-81661000D02*
X174879000Y-81661000D01*
X146305000Y-93091000D02*
X170053000Y-93091000D01*
X177673000Y-99441000D02*
X174879000Y-99441000D01*
X174879000Y-99441000D02*
X161036000Y-99441000D01*
X161036000Y-91821000D02*
X146305000Y-91821000D01*
X178689000Y-89281000D02*
X174879000Y-89281000D01*
X182753000Y-104902000D02*
X178689000Y-104902000D01*
X146305000Y-90551000D02*
X173609000Y-90551000D01*
X173609000Y-90551000D02*
X174879000Y-89281000D01*
X146305000Y-89281000D02*
X172593000Y-89281000D01*
X172593000Y-94361000D02*
X174879000Y-94361000D01*
X146305000Y-88011000D02*
X156083000Y-88011000D01*
X156210000Y-96901000D02*
X174879000Y-96901000D01*
X156083000Y-97028000D02*
X156210000Y-96901000D01*
X179832000Y-86741000D02*
X174879000Y-86741000D01*
X185293000Y-104140000D02*
X179832000Y-104140000D01*
X174879000Y-86741000D02*
X167386000Y-86741000D01*
X150749000Y-86741000D02*
X146305000Y-86741000D01*
X167386000Y-101092000D02*
X150749000Y-101092000D01*
G36*
X161775000Y-80975000D02*
X161788642Y-81043584D01*
X161788642Y-81113514D01*
X162040981Y-82382110D01*
X162070808Y-82454117D01*
X162146996Y-82638051D01*
X162865598Y-83713514D01*
X163061486Y-83909402D01*
X164136949Y-84628004D01*
X164209483Y-84658048D01*
X164180808Y-84686673D01*
X164038162Y-85030201D01*
X164037838Y-85402167D01*
X164179883Y-85745943D01*
X164442673Y-86009192D01*
X164786201Y-86151838D01*
X165158167Y-86152162D01*
X165501943Y-86010117D01*
X165533114Y-85979000D01*
X166825886Y-85979000D01*
X166593808Y-86210673D01*
X166451162Y-86554201D01*
X166450838Y-86926167D01*
X166592883Y-87269943D01*
X166855673Y-87533192D01*
X167199201Y-87675838D01*
X167571167Y-87676162D01*
X167914943Y-87534117D01*
X167946114Y-87503000D01*
X173310484Y-87503000D01*
X173479332Y-87755698D01*
X173861418Y-88011000D01*
X173479332Y-88266302D01*
X173247526Y-88613224D01*
X173123327Y-88488808D01*
X172779799Y-88346162D01*
X172407833Y-88345838D01*
X172064057Y-88487883D01*
X172032886Y-88519000D01*
X156884463Y-88519000D01*
X157017838Y-88197799D01*
X157018162Y-87825833D01*
X156876117Y-87482057D01*
X156613327Y-87218808D01*
X156269799Y-87076162D01*
X155897833Y-87075838D01*
X155554057Y-87217883D01*
X155522886Y-87249000D01*
X151550463Y-87249000D01*
X151683838Y-86927799D01*
X151684111Y-86614000D01*
X152106991Y-86614000D01*
X152433155Y-86940735D01*
X152905276Y-87136777D01*
X153416481Y-87137223D01*
X153888943Y-86942005D01*
X154250735Y-86580845D01*
X154403635Y-86212619D01*
X157214613Y-86212619D01*
X157554155Y-87034372D01*
X158182321Y-87663636D01*
X159003481Y-88004611D01*
X159892619Y-88005387D01*
X160714372Y-87665845D01*
X161343636Y-87037679D01*
X161684611Y-86216519D01*
X161685387Y-85327381D01*
X161345845Y-84505628D01*
X160717679Y-83876364D01*
X159896519Y-83535389D01*
X159007381Y-83534613D01*
X158185628Y-83874155D01*
X157556364Y-84502321D01*
X157215389Y-85323481D01*
X157214613Y-86212619D01*
X154403635Y-86212619D01*
X154446777Y-86108724D01*
X154447223Y-85597519D01*
X154252005Y-85125057D01*
X153890845Y-84763265D01*
X153418724Y-84567223D01*
X152907519Y-84566777D01*
X152435057Y-84761995D01*
X152106478Y-85090000D01*
X151030440Y-85090000D01*
X151030440Y-83932000D01*
X150986162Y-83696683D01*
X150847090Y-83480559D01*
X150634890Y-83335569D01*
X150383000Y-83284560D01*
X150187540Y-83284560D01*
X150459943Y-83172005D01*
X150821735Y-82810845D01*
X151017777Y-82338724D01*
X151018223Y-81827519D01*
X150896943Y-81534000D01*
X151885634Y-81534000D01*
X151908838Y-81657317D01*
X152047910Y-81873441D01*
X152260110Y-82018431D01*
X152512000Y-82069440D01*
X153812000Y-82069440D01*
X154047317Y-82025162D01*
X154263441Y-81886090D01*
X154408431Y-81673890D01*
X154459440Y-81422000D01*
X154459440Y-80122000D01*
X154415162Y-79886683D01*
X154276090Y-79670559D01*
X154063890Y-79525569D01*
X153812000Y-79474560D01*
X152512000Y-79474560D01*
X152276683Y-79518838D01*
X152060559Y-79657910D01*
X151915569Y-79870110D01*
X151887241Y-80010000D01*
X147194000Y-80010000D01*
X146902395Y-80068004D01*
X146711927Y-80195271D01*
X146655185Y-80233185D01*
X146174810Y-80713560D01*
X145305000Y-80713560D01*
X145069683Y-80757838D01*
X144853559Y-80896910D01*
X144708569Y-81109110D01*
X144657560Y-81361000D01*
X144657560Y-81961000D01*
X144701838Y-82196317D01*
X144765678Y-82295528D01*
X144708569Y-82379110D01*
X144657560Y-82631000D01*
X144657560Y-83231000D01*
X144672801Y-83312000D01*
X143045189Y-83312000D01*
X142934799Y-83266162D01*
X142562833Y-83265838D01*
X142219057Y-83407883D01*
X141955808Y-83670673D01*
X141813162Y-84014201D01*
X141812838Y-84386167D01*
X141954883Y-84729943D01*
X142217673Y-84993192D01*
X142561201Y-85135838D01*
X142933167Y-85136162D01*
X143044888Y-85090000D01*
X144673963Y-85090000D01*
X144657560Y-85171000D01*
X144657560Y-85771000D01*
X144701838Y-86006317D01*
X144765678Y-86105528D01*
X144708569Y-86189110D01*
X144657560Y-86441000D01*
X144657560Y-87041000D01*
X144701838Y-87276317D01*
X144765678Y-87375528D01*
X144708569Y-87459110D01*
X144657560Y-87711000D01*
X144657560Y-88311000D01*
X144701838Y-88546317D01*
X144765678Y-88645528D01*
X144708569Y-88729110D01*
X144657560Y-88981000D01*
X144657560Y-89581000D01*
X144701838Y-89816317D01*
X144765678Y-89915528D01*
X144708569Y-89999110D01*
X144657560Y-90251000D01*
X144657560Y-90851000D01*
X144701838Y-91086317D01*
X144765678Y-91185528D01*
X144708569Y-91269110D01*
X144657560Y-91521000D01*
X144657560Y-92121000D01*
X144701838Y-92356317D01*
X144765678Y-92455528D01*
X144708569Y-92539110D01*
X144657560Y-92791000D01*
X144657560Y-93391000D01*
X144701838Y-93626317D01*
X144765678Y-93725528D01*
X144708569Y-93809110D01*
X144657560Y-94061000D01*
X144657560Y-94661000D01*
X144701838Y-94896317D01*
X144765678Y-94995528D01*
X144708569Y-95079110D01*
X144657560Y-95331000D01*
X144657560Y-95931000D01*
X144701838Y-96166317D01*
X144765678Y-96265528D01*
X144708569Y-96349110D01*
X144657560Y-96601000D01*
X144657560Y-97201000D01*
X144701838Y-97436317D01*
X144760178Y-97526980D01*
X144670000Y-97744690D01*
X144670000Y-97885250D01*
X144828750Y-98044000D01*
X146178000Y-98044000D01*
X146178000Y-98024000D01*
X146432000Y-98024000D01*
X146432000Y-98044000D01*
X147781250Y-98044000D01*
X147940000Y-97885250D01*
X147940000Y-97744690D01*
X147850194Y-97527878D01*
X147901431Y-97452890D01*
X147952440Y-97201000D01*
X147952440Y-96601000D01*
X147913302Y-96393000D01*
X155395664Y-96393000D01*
X155290808Y-96497673D01*
X155148162Y-96841201D01*
X155147838Y-97213167D01*
X155289883Y-97556943D01*
X155552673Y-97820192D01*
X155896201Y-97962838D01*
X156268167Y-97963162D01*
X156611943Y-97821117D01*
X156770336Y-97663000D01*
X173310484Y-97663000D01*
X173479332Y-97915698D01*
X173861418Y-98171000D01*
X173479332Y-98426302D01*
X173310484Y-98679000D01*
X161596466Y-98679000D01*
X161566327Y-98648808D01*
X161222799Y-98506162D01*
X160850833Y-98505838D01*
X160507057Y-98647883D01*
X160243808Y-98910673D01*
X160101162Y-99254201D01*
X160100838Y-99626167D01*
X160242883Y-99969943D01*
X160505673Y-100233192D01*
X160738811Y-100330000D01*
X151309466Y-100330000D01*
X151279327Y-100299808D01*
X150935799Y-100157162D01*
X150563833Y-100156838D01*
X150220057Y-100298883D01*
X149956808Y-100561673D01*
X149814162Y-100905201D01*
X149813838Y-101277167D01*
X149955883Y-101620943D01*
X150218673Y-101884192D01*
X150562201Y-102026838D01*
X150934167Y-102027162D01*
X151277943Y-101885117D01*
X151309114Y-101854000D01*
X166825534Y-101854000D01*
X166855673Y-101884192D01*
X167199201Y-102026838D01*
X167571167Y-102027162D01*
X167914943Y-101885117D01*
X168178192Y-101622327D01*
X168320838Y-101278799D01*
X168321162Y-100906833D01*
X168179117Y-100563057D01*
X167916327Y-100299808D01*
X167683189Y-100203000D01*
X173310484Y-100203000D01*
X173479332Y-100455698D01*
X173857151Y-100708149D01*
X173424500Y-101056104D01*
X173154633Y-101549181D01*
X173137096Y-101631961D01*
X173259085Y-101854000D01*
X174752000Y-101854000D01*
X174752000Y-101834000D01*
X175006000Y-101834000D01*
X175006000Y-101854000D01*
X176498915Y-101854000D01*
X176620904Y-101631961D01*
X176603367Y-101549181D01*
X176333500Y-101056104D01*
X175900849Y-100708149D01*
X176278668Y-100455698D01*
X176447516Y-100203000D01*
X177112534Y-100203000D01*
X177142673Y-100233192D01*
X177486201Y-100375838D01*
X177858167Y-100376162D01*
X178201943Y-100234117D01*
X178465192Y-99971327D01*
X178607838Y-99627799D01*
X178608162Y-99255833D01*
X178466117Y-98912057D01*
X178203327Y-98648808D01*
X177859799Y-98506162D01*
X177487833Y-98505838D01*
X177144057Y-98647883D01*
X177112886Y-98679000D01*
X176447516Y-98679000D01*
X176278668Y-98426302D01*
X175896582Y-98171000D01*
X176278668Y-97915698D01*
X176589737Y-97450151D01*
X176698970Y-96901000D01*
X176589737Y-96351849D01*
X176278668Y-95886302D01*
X175896582Y-95631000D01*
X176278668Y-95375698D01*
X176589737Y-94910151D01*
X176698970Y-94361000D01*
X176589737Y-93811849D01*
X176278668Y-93346302D01*
X175896582Y-93091000D01*
X176278668Y-92835698D01*
X176589737Y-92370151D01*
X176698970Y-91821000D01*
X176589737Y-91271849D01*
X176278668Y-90806302D01*
X175896582Y-90551000D01*
X176278668Y-90295698D01*
X176447516Y-90043000D01*
X178128534Y-90043000D01*
X178158673Y-90073192D01*
X178502201Y-90215838D01*
X178874167Y-90216162D01*
X179217943Y-90074117D01*
X179481192Y-89811327D01*
X179623838Y-89467799D01*
X179624162Y-89095833D01*
X179482117Y-88752057D01*
X179219327Y-88488808D01*
X178875799Y-88346162D01*
X178503833Y-88345838D01*
X178160057Y-88487883D01*
X178128886Y-88519000D01*
X176447516Y-88519000D01*
X176278668Y-88266302D01*
X175896582Y-88011000D01*
X176278668Y-87755698D01*
X176447516Y-87503000D01*
X179271534Y-87503000D01*
X179301673Y-87533192D01*
X179645201Y-87675838D01*
X180017167Y-87676162D01*
X180360943Y-87534117D01*
X180624192Y-87271327D01*
X180732592Y-87010273D01*
X180788263Y-87290151D01*
X181099332Y-87755698D01*
X181481418Y-88011000D01*
X181099332Y-88266302D01*
X180788263Y-88731849D01*
X180679030Y-89281000D01*
X180788263Y-89830151D01*
X181099332Y-90295698D01*
X181481418Y-90551000D01*
X181099332Y-90806302D01*
X180788263Y-91271849D01*
X180679030Y-91821000D01*
X180788263Y-92370151D01*
X181099332Y-92835698D01*
X181481418Y-93091000D01*
X181099332Y-93346302D01*
X180788263Y-93811849D01*
X180679030Y-94361000D01*
X180788263Y-94910151D01*
X181099332Y-95375698D01*
X181481418Y-95631000D01*
X181099332Y-95886302D01*
X180788263Y-96351849D01*
X180679030Y-96901000D01*
X180788263Y-97450151D01*
X181099332Y-97915698D01*
X181481418Y-98171000D01*
X181099332Y-98426302D01*
X180788263Y-98891849D01*
X180679030Y-99441000D01*
X180788263Y-99990151D01*
X181099332Y-100455698D01*
X181481418Y-100711000D01*
X181099332Y-100966302D01*
X180788263Y-101431849D01*
X180679030Y-101981000D01*
X180788263Y-102530151D01*
X181099332Y-102995698D01*
X181564879Y-103306767D01*
X181922991Y-103378000D01*
X180392466Y-103378000D01*
X180362327Y-103347808D01*
X180018799Y-103205162D01*
X179646833Y-103204838D01*
X179303057Y-103346883D01*
X179039808Y-103609673D01*
X178897162Y-103953201D01*
X178897142Y-103976024D01*
X178875799Y-103967162D01*
X178503833Y-103966838D01*
X178160057Y-104108883D01*
X177896808Y-104371673D01*
X177754162Y-104715201D01*
X177753885Y-105033560D01*
X176823000Y-105033560D01*
X176587683Y-105077838D01*
X176400923Y-105198015D01*
X176234890Y-105084569D01*
X175983000Y-105033560D01*
X174283000Y-105033560D01*
X174047683Y-105077838D01*
X173860923Y-105198015D01*
X173694890Y-105084569D01*
X173443000Y-105033560D01*
X171743000Y-105033560D01*
X171507683Y-105077838D01*
X171320923Y-105198015D01*
X171154890Y-105084569D01*
X170903000Y-105033560D01*
X169203000Y-105033560D01*
X168967683Y-105077838D01*
X168779169Y-105199143D01*
X168722699Y-105142673D01*
X168489310Y-105046000D01*
X167798750Y-105046000D01*
X167640000Y-105204750D01*
X167640000Y-109657250D01*
X167798750Y-109816000D01*
X168489310Y-109816000D01*
X168722699Y-109719327D01*
X168780897Y-109661129D01*
X168951110Y-109777431D01*
X169203000Y-109828440D01*
X169969280Y-109828440D01*
X170053000Y-109845093D01*
X170136720Y-109828440D01*
X170903000Y-109828440D01*
X171138317Y-109784162D01*
X171325077Y-109663985D01*
X171491110Y-109777431D01*
X171743000Y-109828440D01*
X172509280Y-109828440D01*
X172593000Y-109845093D01*
X172676720Y-109828440D01*
X173443000Y-109828440D01*
X173678317Y-109784162D01*
X173865077Y-109663985D01*
X174031110Y-109777431D01*
X174283000Y-109828440D01*
X175049280Y-109828440D01*
X175133000Y-109845093D01*
X175216720Y-109828440D01*
X175983000Y-109828440D01*
X176218317Y-109784162D01*
X176405077Y-109663985D01*
X176571110Y-109777431D01*
X176823000Y-109828440D01*
X177589280Y-109828440D01*
X177673000Y-109845093D01*
X177756720Y-109828440D01*
X178523000Y-109828440D01*
X178758317Y-109784162D01*
X178946831Y-109662857D01*
X179003301Y-109719327D01*
X179236690Y-109816000D01*
X179927250Y-109816000D01*
X180086000Y-109657250D01*
X180086000Y-107284000D01*
X180340000Y-107284000D01*
X180340000Y-109657250D01*
X180498750Y-109816000D01*
X181189310Y-109816000D01*
X181422699Y-109719327D01*
X181480897Y-109661129D01*
X181651110Y-109777431D01*
X181903000Y-109828440D01*
X182669280Y-109828440D01*
X182753000Y-109845093D01*
X182836720Y-109828440D01*
X183603000Y-109828440D01*
X183838317Y-109784162D01*
X184025077Y-109663985D01*
X184191110Y-109777431D01*
X184443000Y-109828440D01*
X185209280Y-109828440D01*
X185293000Y-109845093D01*
X185376720Y-109828440D01*
X186143000Y-109828440D01*
X186378317Y-109784162D01*
X186594441Y-109645090D01*
X186739431Y-109432890D01*
X186790440Y-109181000D01*
X186790440Y-105681000D01*
X186746162Y-105445683D01*
X186607090Y-105229559D01*
X186394890Y-105084569D01*
X186143000Y-105033560D01*
X185578852Y-105033560D01*
X185821943Y-104933117D01*
X186085192Y-104670327D01*
X186117680Y-104592086D01*
X193711269Y-104592086D01*
X193913854Y-105082380D01*
X194288647Y-105457827D01*
X194778587Y-105661268D01*
X195309086Y-105661731D01*
X195799380Y-105459146D01*
X196174827Y-105084353D01*
X196378268Y-104594413D01*
X196378270Y-104592086D01*
X201331269Y-104592086D01*
X201533854Y-105082380D01*
X201908647Y-105457827D01*
X202398587Y-105661268D01*
X202929086Y-105661731D01*
X203419380Y-105459146D01*
X203794827Y-105084353D01*
X203998268Y-104594413D01*
X203998731Y-104063914D01*
X203796146Y-103573620D01*
X203550954Y-103328000D01*
X204092560Y-103328000D01*
X204092560Y-105328000D01*
X204136838Y-105563317D01*
X204275910Y-105779441D01*
X204418561Y-105876910D01*
X204354722Y-105940637D01*
X204105284Y-106541352D01*
X204104716Y-107191795D01*
X204353106Y-107792943D01*
X204812637Y-108253278D01*
X205413352Y-108502716D01*
X206063795Y-108503284D01*
X206664943Y-108254894D01*
X207125278Y-107795363D01*
X207374716Y-107194648D01*
X207375284Y-106544205D01*
X207126894Y-105943057D01*
X207060379Y-105876426D01*
X207191441Y-105792090D01*
X207336431Y-105579890D01*
X207387440Y-105328000D01*
X207387440Y-103328000D01*
X207343162Y-103092683D01*
X207204090Y-102876559D01*
X206991890Y-102731569D01*
X206740000Y-102680560D01*
X204740000Y-102680560D01*
X204504683Y-102724838D01*
X204288559Y-102863910D01*
X204143569Y-103076110D01*
X204092560Y-103328000D01*
X203550954Y-103328000D01*
X203421353Y-103198173D01*
X202931413Y-102994732D01*
X202400914Y-102994269D01*
X201910620Y-103196854D01*
X201535173Y-103571647D01*
X201331732Y-104061587D01*
X201331269Y-104592086D01*
X196378270Y-104592086D01*
X196378731Y-104063914D01*
X196176146Y-103573620D01*
X195801353Y-103198173D01*
X195311413Y-102994732D01*
X194780914Y-102994269D01*
X194290620Y-103196854D01*
X193915173Y-103571647D01*
X193711732Y-104061587D01*
X193711269Y-104592086D01*
X186117680Y-104592086D01*
X186227838Y-104326799D01*
X186228162Y-103954833D01*
X186086117Y-103611057D01*
X185823327Y-103347808D01*
X185479799Y-103205162D01*
X185107833Y-103204838D01*
X184764057Y-103346883D01*
X184732886Y-103378000D01*
X183075009Y-103378000D01*
X183433121Y-103306767D01*
X183898668Y-102995698D01*
X184209737Y-102530151D01*
X184318970Y-101981000D01*
X184209737Y-101431849D01*
X183898668Y-100966302D01*
X183516582Y-100711000D01*
X183898668Y-100455698D01*
X184209737Y-99990151D01*
X184318970Y-99441000D01*
X184209737Y-98891849D01*
X183898668Y-98426302D01*
X183516582Y-98171000D01*
X183790331Y-97988086D01*
X193711269Y-97988086D01*
X193913854Y-98478380D01*
X194288647Y-98853827D01*
X194778587Y-99057268D01*
X195309086Y-99057731D01*
X195799380Y-98855146D01*
X196174827Y-98480353D01*
X196378268Y-97990413D01*
X196378270Y-97988086D01*
X201331269Y-97988086D01*
X201533854Y-98478380D01*
X201908647Y-98853827D01*
X202398587Y-99057268D01*
X202929086Y-99057731D01*
X203419380Y-98855146D01*
X203794827Y-98480353D01*
X203998268Y-97990413D01*
X203998731Y-97459914D01*
X203796146Y-96969620D01*
X203550954Y-96724000D01*
X204092560Y-96724000D01*
X204092560Y-98724000D01*
X204136838Y-98959317D01*
X204275910Y-99175441D01*
X204418561Y-99272910D01*
X204354722Y-99336637D01*
X204105284Y-99937352D01*
X204104716Y-100587795D01*
X204353106Y-101188943D01*
X204812637Y-101649278D01*
X205413352Y-101898716D01*
X206063795Y-101899284D01*
X206664943Y-101650894D01*
X207125278Y-101191363D01*
X207374716Y-100590648D01*
X207375284Y-99940205D01*
X207126894Y-99339057D01*
X207060379Y-99272426D01*
X207191441Y-99188090D01*
X207336431Y-98975890D01*
X207387440Y-98724000D01*
X207387440Y-96724000D01*
X207343162Y-96488683D01*
X207204090Y-96272559D01*
X206991890Y-96127569D01*
X206740000Y-96076560D01*
X204740000Y-96076560D01*
X204504683Y-96120838D01*
X204288559Y-96259910D01*
X204143569Y-96472110D01*
X204092560Y-96724000D01*
X203550954Y-96724000D01*
X203421353Y-96594173D01*
X202931413Y-96390732D01*
X202400914Y-96390269D01*
X201910620Y-96592854D01*
X201535173Y-96967647D01*
X201331732Y-97457587D01*
X201331269Y-97988086D01*
X196378270Y-97988086D01*
X196378731Y-97459914D01*
X196176146Y-96969620D01*
X195801353Y-96594173D01*
X195311413Y-96390732D01*
X194780914Y-96390269D01*
X194290620Y-96592854D01*
X193915173Y-96967647D01*
X193711732Y-97457587D01*
X193711269Y-97988086D01*
X183790331Y-97988086D01*
X183898668Y-97915698D01*
X184209737Y-97450151D01*
X184318970Y-96901000D01*
X184209737Y-96351849D01*
X183898668Y-95886302D01*
X183516582Y-95631000D01*
X183898668Y-95375698D01*
X184209737Y-94910151D01*
X184318970Y-94361000D01*
X184209737Y-93811849D01*
X183898668Y-93346302D01*
X183516582Y-93091000D01*
X183898668Y-92835698D01*
X184209737Y-92370151D01*
X184318970Y-91821000D01*
X184232063Y-91384086D01*
X193711269Y-91384086D01*
X193913854Y-91874380D01*
X194288647Y-92249827D01*
X194778587Y-92453268D01*
X195309086Y-92453731D01*
X195799380Y-92251146D01*
X196174827Y-91876353D01*
X196378268Y-91386413D01*
X196378270Y-91384086D01*
X201331269Y-91384086D01*
X201533854Y-91874380D01*
X201908647Y-92249827D01*
X202398587Y-92453268D01*
X202929086Y-92453731D01*
X203419380Y-92251146D01*
X203794827Y-91876353D01*
X203998268Y-91386413D01*
X203998731Y-90855914D01*
X203796146Y-90365620D01*
X203550954Y-90120000D01*
X204092560Y-90120000D01*
X204092560Y-92120000D01*
X204136838Y-92355317D01*
X204275910Y-92571441D01*
X204418561Y-92668910D01*
X204354722Y-92732637D01*
X204105284Y-93333352D01*
X204104716Y-93983795D01*
X204353106Y-94584943D01*
X204812637Y-95045278D01*
X205413352Y-95294716D01*
X206063795Y-95295284D01*
X206664943Y-95046894D01*
X207125278Y-94587363D01*
X207374716Y-93986648D01*
X207375284Y-93336205D01*
X207126894Y-92735057D01*
X207060379Y-92668426D01*
X207191441Y-92584090D01*
X207336431Y-92371890D01*
X207387440Y-92120000D01*
X207387440Y-90120000D01*
X207343162Y-89884683D01*
X207204090Y-89668559D01*
X206991890Y-89523569D01*
X206740000Y-89472560D01*
X204740000Y-89472560D01*
X204504683Y-89516838D01*
X204288559Y-89655910D01*
X204143569Y-89868110D01*
X204092560Y-90120000D01*
X203550954Y-90120000D01*
X203421353Y-89990173D01*
X202931413Y-89786732D01*
X202400914Y-89786269D01*
X201910620Y-89988854D01*
X201535173Y-90363647D01*
X201331732Y-90853587D01*
X201331269Y-91384086D01*
X196378270Y-91384086D01*
X196378731Y-90855914D01*
X196176146Y-90365620D01*
X195801353Y-89990173D01*
X195311413Y-89786732D01*
X194780914Y-89786269D01*
X194290620Y-89988854D01*
X193915173Y-90363647D01*
X193711732Y-90853587D01*
X193711269Y-91384086D01*
X184232063Y-91384086D01*
X184209737Y-91271849D01*
X183898668Y-90806302D01*
X183516582Y-90551000D01*
X183898668Y-90295698D01*
X184209737Y-89830151D01*
X184318970Y-89281000D01*
X184209737Y-88731849D01*
X183898668Y-88266302D01*
X183516582Y-88011000D01*
X183898668Y-87755698D01*
X184209737Y-87290151D01*
X184318970Y-86741000D01*
X184213869Y-86212619D01*
X187214613Y-86212619D01*
X187554155Y-87034372D01*
X188182321Y-87663636D01*
X189003481Y-88004611D01*
X189892619Y-88005387D01*
X190714372Y-87665845D01*
X191343636Y-87037679D01*
X191684611Y-86216519D01*
X191685387Y-85327381D01*
X191459249Y-84780086D01*
X193711269Y-84780086D01*
X193913854Y-85270380D01*
X194288647Y-85645827D01*
X194778587Y-85849268D01*
X195309086Y-85849731D01*
X195799380Y-85647146D01*
X196174827Y-85272353D01*
X196378268Y-84782413D01*
X196378270Y-84780086D01*
X201331269Y-84780086D01*
X201533854Y-85270380D01*
X201908647Y-85645827D01*
X202398587Y-85849268D01*
X202929086Y-85849731D01*
X203419380Y-85647146D01*
X203794827Y-85272353D01*
X203998268Y-84782413D01*
X203998731Y-84251914D01*
X203796146Y-83761620D01*
X203550954Y-83516000D01*
X204092560Y-83516000D01*
X204092560Y-85516000D01*
X204136838Y-85751317D01*
X204275910Y-85967441D01*
X204418561Y-86064910D01*
X204354722Y-86128637D01*
X204105284Y-86729352D01*
X204104716Y-87379795D01*
X204353106Y-87980943D01*
X204812637Y-88441278D01*
X205413352Y-88690716D01*
X206063795Y-88691284D01*
X206664943Y-88442894D01*
X207125278Y-87983363D01*
X207374716Y-87382648D01*
X207375284Y-86732205D01*
X207126894Y-86131057D01*
X207060379Y-86064426D01*
X207191441Y-85980090D01*
X207336431Y-85767890D01*
X207387440Y-85516000D01*
X207387440Y-83516000D01*
X207343162Y-83280683D01*
X207204090Y-83064559D01*
X206991890Y-82919569D01*
X206740000Y-82868560D01*
X204740000Y-82868560D01*
X204504683Y-82912838D01*
X204288559Y-83051910D01*
X204143569Y-83264110D01*
X204092560Y-83516000D01*
X203550954Y-83516000D01*
X203421353Y-83386173D01*
X202931413Y-83182732D01*
X202400914Y-83182269D01*
X201910620Y-83384854D01*
X201535173Y-83759647D01*
X201331732Y-84249587D01*
X201331269Y-84780086D01*
X196378270Y-84780086D01*
X196378731Y-84251914D01*
X196176146Y-83761620D01*
X195801353Y-83386173D01*
X195311413Y-83182732D01*
X194780914Y-83182269D01*
X194290620Y-83384854D01*
X193915173Y-83759647D01*
X193711732Y-84249587D01*
X193711269Y-84780086D01*
X191459249Y-84780086D01*
X191345845Y-84505628D01*
X190717679Y-83876364D01*
X189896519Y-83535389D01*
X189007381Y-83534613D01*
X188185628Y-83874155D01*
X187556364Y-84502321D01*
X187215389Y-85323481D01*
X187214613Y-86212619D01*
X184213869Y-86212619D01*
X184209737Y-86191849D01*
X183898668Y-85726302D01*
X183516582Y-85471000D01*
X183898668Y-85215698D01*
X184209737Y-84750151D01*
X184318970Y-84201000D01*
X184209737Y-83651849D01*
X183898668Y-83186302D01*
X183520849Y-82933851D01*
X183953500Y-82585896D01*
X184223367Y-82092819D01*
X184240904Y-82010039D01*
X184118915Y-81788000D01*
X182626000Y-81788000D01*
X182626000Y-81808000D01*
X182372000Y-81808000D01*
X182372000Y-81788000D01*
X180879085Y-81788000D01*
X180757096Y-82010039D01*
X180774633Y-82092819D01*
X181044500Y-82585896D01*
X181477151Y-82933851D01*
X181099332Y-83186302D01*
X180788263Y-83651849D01*
X180679030Y-84201000D01*
X180788263Y-84750151D01*
X181099332Y-85215698D01*
X181481418Y-85471000D01*
X181099332Y-85726302D01*
X180788263Y-86191849D01*
X180732533Y-86472024D01*
X180625117Y-86212057D01*
X180362327Y-85948808D01*
X180018799Y-85806162D01*
X179646833Y-85805838D01*
X179303057Y-85947883D01*
X179271886Y-85979000D01*
X176447516Y-85979000D01*
X176278668Y-85726302D01*
X175896582Y-85471000D01*
X176278668Y-85215698D01*
X176589737Y-84750151D01*
X176698970Y-84201000D01*
X176589737Y-83651849D01*
X176278668Y-83186302D01*
X175896582Y-82931000D01*
X176278668Y-82675698D01*
X176589737Y-82210151D01*
X176679672Y-81758016D01*
X185462590Y-81758016D01*
X185518271Y-81988611D01*
X186001078Y-82156622D01*
X186511428Y-82127083D01*
X186845729Y-81988611D01*
X186901410Y-81758016D01*
X186182000Y-81038605D01*
X185462590Y-81758016D01*
X176679672Y-81758016D01*
X176698970Y-81661000D01*
X176589737Y-81111849D01*
X176278668Y-80646302D01*
X175896582Y-80391000D01*
X176278668Y-80135698D01*
X176362657Y-80010000D01*
X181015343Y-80010000D01*
X181099332Y-80135698D01*
X181477151Y-80388149D01*
X181044500Y-80736104D01*
X180774633Y-81229181D01*
X180757096Y-81311961D01*
X180879085Y-81534000D01*
X182372000Y-81534000D01*
X182372000Y-81514000D01*
X182626000Y-81514000D01*
X182626000Y-81534000D01*
X184118915Y-81534000D01*
X184240904Y-81311961D01*
X184223367Y-81229181D01*
X183953500Y-80736104D01*
X183881350Y-80678078D01*
X184884378Y-80678078D01*
X184913917Y-81188428D01*
X185052389Y-81522729D01*
X185282984Y-81578410D01*
X186002395Y-80859000D01*
X186361605Y-80859000D01*
X187081016Y-81578410D01*
X187311611Y-81522729D01*
X187479622Y-81039922D01*
X187450083Y-80529572D01*
X187311611Y-80195271D01*
X187081016Y-80139590D01*
X186361605Y-80859000D01*
X186002395Y-80859000D01*
X185282984Y-80139590D01*
X185052389Y-80195271D01*
X184884378Y-80678078D01*
X183881350Y-80678078D01*
X183520849Y-80388149D01*
X183898668Y-80135698D01*
X184209737Y-79670151D01*
X184318970Y-79121000D01*
X184209737Y-78571849D01*
X183898668Y-78106302D01*
X183433121Y-77795233D01*
X182999599Y-77709000D01*
X184884560Y-77709000D01*
X184884560Y-79009000D01*
X184928838Y-79244317D01*
X185067910Y-79460441D01*
X185280110Y-79605431D01*
X185532000Y-79656440D01*
X185694385Y-79656440D01*
X185518271Y-79729389D01*
X185462590Y-79959984D01*
X186182000Y-80679395D01*
X186901410Y-79959984D01*
X186845729Y-79729389D01*
X186636098Y-79656440D01*
X186832000Y-79656440D01*
X187067317Y-79612162D01*
X187283441Y-79473090D01*
X187428431Y-79260890D01*
X187479440Y-79009000D01*
X187479440Y-77709000D01*
X187435162Y-77473683D01*
X187296090Y-77257559D01*
X187083890Y-77112569D01*
X186832000Y-77061560D01*
X185532000Y-77061560D01*
X185296683Y-77105838D01*
X185080559Y-77244910D01*
X184935569Y-77457110D01*
X184884560Y-77709000D01*
X182999599Y-77709000D01*
X182883970Y-77686000D01*
X182114030Y-77686000D01*
X181564879Y-77795233D01*
X181099332Y-78106302D01*
X181015343Y-78232000D01*
X176362657Y-78232000D01*
X176278668Y-78106302D01*
X175813121Y-77795233D01*
X175263970Y-77686000D01*
X174494030Y-77686000D01*
X173944879Y-77795233D01*
X173479332Y-78106302D01*
X173168263Y-78571849D01*
X173059030Y-79121000D01*
X173168263Y-79670151D01*
X173479332Y-80135698D01*
X173861418Y-80391000D01*
X173479332Y-80646302D01*
X173310484Y-80899000D01*
X170613466Y-80899000D01*
X170583327Y-80868808D01*
X170239799Y-80726162D01*
X169867833Y-80725838D01*
X169825000Y-80743536D01*
X169825000Y-76540000D01*
X209010000Y-76540000D01*
X209010000Y-141260000D01*
X169825000Y-141260000D01*
X169825000Y-136825000D01*
X169811358Y-136756416D01*
X169811358Y-136686486D01*
X169559019Y-135417890D01*
X169459362Y-135177299D01*
X169453004Y-135161949D01*
X168734402Y-134086486D01*
X168538514Y-133890598D01*
X167837559Y-133422234D01*
X170958226Y-133422234D01*
X171206538Y-134023195D01*
X171665927Y-134483386D01*
X172266453Y-134732746D01*
X172916694Y-134733314D01*
X173517655Y-134485002D01*
X173977846Y-134025613D01*
X174227206Y-133425087D01*
X174227774Y-132774846D01*
X173979462Y-132173885D01*
X173904758Y-132099050D01*
X181106070Y-132099050D01*
X181106070Y-134098030D01*
X181150348Y-134333347D01*
X181289420Y-134549471D01*
X181501620Y-134694461D01*
X181753510Y-134745470D01*
X183752490Y-134745470D01*
X183987807Y-134701192D01*
X184203931Y-134562120D01*
X184348921Y-134349920D01*
X184399930Y-134098030D01*
X184399930Y-132462619D01*
X187214613Y-132462619D01*
X187554155Y-133284372D01*
X188182321Y-133913636D01*
X189003481Y-134254611D01*
X189892619Y-134255387D01*
X190714372Y-133915845D01*
X191343636Y-133287679D01*
X191684611Y-132466519D01*
X191685387Y-131577381D01*
X191450159Y-131008086D01*
X193711269Y-131008086D01*
X193913854Y-131498380D01*
X194288647Y-131873827D01*
X194778587Y-132077268D01*
X195309086Y-132077731D01*
X195799380Y-131875146D01*
X196174827Y-131500353D01*
X196378268Y-131010413D01*
X196378270Y-131008086D01*
X201331269Y-131008086D01*
X201533854Y-131498380D01*
X201908647Y-131873827D01*
X202398587Y-132077268D01*
X202929086Y-132077731D01*
X203419380Y-131875146D01*
X203794827Y-131500353D01*
X203998268Y-131010413D01*
X203998731Y-130479914D01*
X203796146Y-129989620D01*
X203550954Y-129744000D01*
X204092560Y-129744000D01*
X204092560Y-131744000D01*
X204136838Y-131979317D01*
X204275910Y-132195441D01*
X204418561Y-132292910D01*
X204354722Y-132356637D01*
X204105284Y-132957352D01*
X204104716Y-133607795D01*
X204353106Y-134208943D01*
X204812637Y-134669278D01*
X205413352Y-134918716D01*
X206063795Y-134919284D01*
X206664943Y-134670894D01*
X207125278Y-134211363D01*
X207374716Y-133610648D01*
X207375284Y-132960205D01*
X207126894Y-132359057D01*
X207060379Y-132292426D01*
X207191441Y-132208090D01*
X207336431Y-131995890D01*
X207387440Y-131744000D01*
X207387440Y-129744000D01*
X207343162Y-129508683D01*
X207204090Y-129292559D01*
X206991890Y-129147569D01*
X206740000Y-129096560D01*
X204740000Y-129096560D01*
X204504683Y-129140838D01*
X204288559Y-129279910D01*
X204143569Y-129492110D01*
X204092560Y-129744000D01*
X203550954Y-129744000D01*
X203421353Y-129614173D01*
X202931413Y-129410732D01*
X202400914Y-129410269D01*
X201910620Y-129612854D01*
X201535173Y-129987647D01*
X201331732Y-130477587D01*
X201331269Y-131008086D01*
X196378270Y-131008086D01*
X196378731Y-130479914D01*
X196176146Y-129989620D01*
X195801353Y-129614173D01*
X195311413Y-129410732D01*
X194780914Y-129410269D01*
X194290620Y-129612854D01*
X193915173Y-129987647D01*
X193711732Y-130477587D01*
X193711269Y-131008086D01*
X191450159Y-131008086D01*
X191345845Y-130755628D01*
X190717679Y-130126364D01*
X189896519Y-129785389D01*
X189007381Y-129784613D01*
X188185628Y-130124155D01*
X187556364Y-130752321D01*
X187215389Y-131573481D01*
X187214613Y-132462619D01*
X184399930Y-132462619D01*
X184399930Y-132099050D01*
X184355652Y-131863733D01*
X184216580Y-131647609D01*
X184004380Y-131502619D01*
X183752490Y-131451610D01*
X181753510Y-131451610D01*
X181518193Y-131495888D01*
X181302069Y-131634960D01*
X181157079Y-131847160D01*
X181106070Y-132099050D01*
X173904758Y-132099050D01*
X173520073Y-131713694D01*
X172919547Y-131464334D01*
X172269306Y-131463766D01*
X171668345Y-131712078D01*
X171208154Y-132171467D01*
X170958794Y-132771993D01*
X170958226Y-133422234D01*
X167837559Y-133422234D01*
X167463051Y-133171996D01*
X167388087Y-133140945D01*
X167207110Y-133065981D01*
X165938514Y-132813642D01*
X165800000Y-132813643D01*
X165661486Y-132813642D01*
X164392890Y-133065981D01*
X164211913Y-133140945D01*
X164136949Y-133171996D01*
X163061486Y-133890598D01*
X162865598Y-134086486D01*
X162146996Y-135161949D01*
X162140638Y-135177299D01*
X162040981Y-135417890D01*
X161788642Y-136686486D01*
X161788642Y-136756416D01*
X161775000Y-136825000D01*
X161775000Y-141260000D01*
X110430000Y-141260000D01*
X110430000Y-137526000D01*
X110462560Y-137526000D01*
X110462560Y-138826000D01*
X110506838Y-139061317D01*
X110645910Y-139277441D01*
X110858110Y-139422431D01*
X111110000Y-139473440D01*
X112410000Y-139473440D01*
X112645317Y-139429162D01*
X112861441Y-139290090D01*
X113006431Y-139077890D01*
X113007012Y-139075016D01*
X113540590Y-139075016D01*
X113596271Y-139305611D01*
X114079078Y-139473622D01*
X114589428Y-139444083D01*
X114923729Y-139305611D01*
X114979410Y-139075016D01*
X114260000Y-138355605D01*
X113540590Y-139075016D01*
X113007012Y-139075016D01*
X113057440Y-138826000D01*
X113057440Y-138663615D01*
X113130389Y-138839729D01*
X113360984Y-138895410D01*
X114080395Y-138176000D01*
X114066252Y-138161858D01*
X114245858Y-137982252D01*
X114260000Y-137996395D01*
X114274142Y-137982252D01*
X114453748Y-138161858D01*
X114439605Y-138176000D01*
X115159016Y-138895410D01*
X115389611Y-138839729D01*
X115557622Y-138356922D01*
X115528083Y-137846572D01*
X115389611Y-137512271D01*
X115159018Y-137456590D01*
X115274478Y-137341130D01*
X115220348Y-137287000D01*
X130131811Y-137287000D01*
X130242201Y-137332838D01*
X130614167Y-137333162D01*
X130957943Y-137191117D01*
X130989114Y-137160000D01*
X146895811Y-137160000D01*
X147006201Y-137205838D01*
X147378167Y-137206162D01*
X147721943Y-137064117D01*
X147985192Y-136801327D01*
X148127838Y-136457799D01*
X148128162Y-136085833D01*
X147986117Y-135742057D01*
X147801715Y-135557333D01*
X147947380Y-135497146D01*
X148322827Y-135122353D01*
X148526268Y-134632413D01*
X148526731Y-134101914D01*
X148324146Y-133611620D01*
X147949353Y-133236173D01*
X147459413Y-133032732D01*
X146928914Y-133032269D01*
X146438620Y-133234854D01*
X146063173Y-133609647D01*
X145859732Y-134099587D01*
X145859269Y-134630086D01*
X146061854Y-135120380D01*
X146323018Y-135382000D01*
X140442727Y-135382000D01*
X140702827Y-135122353D01*
X140906268Y-134632413D01*
X140906731Y-134101914D01*
X140704146Y-133611620D01*
X140329353Y-133236173D01*
X139839413Y-133032732D01*
X139308914Y-133032269D01*
X138818620Y-133234854D01*
X138448830Y-133604000D01*
X137593466Y-133604000D01*
X137563327Y-133573808D01*
X137219799Y-133431162D01*
X137175754Y-133431124D01*
X136555815Y-132811185D01*
X136483628Y-132762951D01*
X136308605Y-132646004D01*
X136017000Y-132588000D01*
X134283516Y-132588000D01*
X134114668Y-132335302D01*
X133732582Y-132080000D01*
X134114668Y-131824698D01*
X134283516Y-131572000D01*
X134685370Y-131572000D01*
X135351185Y-132237815D01*
X135598395Y-132402996D01*
X135890000Y-132461000D01*
X138576240Y-132461000D01*
X138816647Y-132701827D01*
X139306587Y-132905268D01*
X139837086Y-132905731D01*
X140327380Y-132703146D01*
X140702827Y-132328353D01*
X140906268Y-131838413D01*
X140906270Y-131836086D01*
X145859269Y-131836086D01*
X146061854Y-132326380D01*
X146436647Y-132701827D01*
X146926587Y-132905268D01*
X147457086Y-132905731D01*
X147947380Y-132703146D01*
X148188326Y-132462619D01*
X157214613Y-132462619D01*
X157554155Y-133284372D01*
X158182321Y-133913636D01*
X159003481Y-134254611D01*
X159892619Y-134255387D01*
X160714372Y-133915845D01*
X161343636Y-133287679D01*
X161684611Y-132466519D01*
X161685387Y-131577381D01*
X161345845Y-130755628D01*
X160717679Y-130126364D01*
X159896519Y-129785389D01*
X159007381Y-129784613D01*
X158185628Y-130124155D01*
X157556364Y-130752321D01*
X157215389Y-131573481D01*
X157214613Y-132462619D01*
X148188326Y-132462619D01*
X148322827Y-132328353D01*
X148526268Y-131838413D01*
X148526731Y-131307914D01*
X148324146Y-130817620D01*
X147949353Y-130442173D01*
X147459413Y-130238732D01*
X146928914Y-130238269D01*
X146438620Y-130440854D01*
X146063173Y-130815647D01*
X145859732Y-131305587D01*
X145859269Y-131836086D01*
X140906270Y-131836086D01*
X140906731Y-131307914D01*
X140704146Y-130817620D01*
X140329353Y-130442173D01*
X139839413Y-130238732D01*
X139308914Y-130238269D01*
X138818620Y-130440854D01*
X138443173Y-130815647D01*
X138392783Y-130937000D01*
X136205630Y-130937000D01*
X135539815Y-130271185D01*
X135490553Y-130238269D01*
X135292605Y-130106004D01*
X135001000Y-130048000D01*
X134283516Y-130048000D01*
X134114668Y-129795302D01*
X133736849Y-129542851D01*
X134169500Y-129194896D01*
X134439367Y-128701819D01*
X134456904Y-128619039D01*
X134334915Y-128397000D01*
X132842000Y-128397000D01*
X132842000Y-128417000D01*
X132588000Y-128417000D01*
X132588000Y-128397000D01*
X131095085Y-128397000D01*
X130973096Y-128619039D01*
X130990633Y-128701819D01*
X131260500Y-129194896D01*
X131693151Y-129542851D01*
X131315332Y-129795302D01*
X131004263Y-130260849D01*
X130895030Y-130810000D01*
X131004263Y-131359151D01*
X131315332Y-131824698D01*
X131697418Y-132080000D01*
X131315332Y-132335302D01*
X131004263Y-132800849D01*
X130895030Y-133350000D01*
X131004263Y-133899151D01*
X131315332Y-134364698D01*
X131780879Y-134675767D01*
X132330030Y-134785000D01*
X133099970Y-134785000D01*
X133649121Y-134675767D01*
X134114668Y-134364698D01*
X134283516Y-134112000D01*
X135701370Y-134112000D01*
X136097875Y-134508505D01*
X136097838Y-134551167D01*
X136239883Y-134894943D01*
X136502673Y-135158192D01*
X136846201Y-135300838D01*
X137218167Y-135301162D01*
X137561943Y-135159117D01*
X137593114Y-135128000D01*
X138449461Y-135128000D01*
X138703018Y-135382000D01*
X130556000Y-135382000D01*
X130215794Y-135449671D01*
X130127002Y-135509000D01*
X112057189Y-135509000D01*
X111946799Y-135463162D01*
X111574833Y-135462838D01*
X111231057Y-135604883D01*
X110967808Y-135867673D01*
X110825162Y-136211201D01*
X110824838Y-136583167D01*
X110958658Y-136907037D01*
X110874683Y-136922838D01*
X110658559Y-137061910D01*
X110513569Y-137274110D01*
X110462560Y-137526000D01*
X110430000Y-137526000D01*
X110430000Y-133529865D01*
X110675420Y-133529865D01*
X110675420Y-134186135D01*
X110757979Y-134601186D01*
X110993086Y-134953049D01*
X111344949Y-135188156D01*
X111760000Y-135270715D01*
X112175051Y-135188156D01*
X112399238Y-135038359D01*
X112736065Y-135202981D01*
X112903000Y-135076068D01*
X112903000Y-133985000D01*
X112883000Y-133985000D01*
X112883000Y-133731000D01*
X112903000Y-133731000D01*
X112903000Y-132639932D01*
X113157000Y-132639932D01*
X113157000Y-133731000D01*
X113177000Y-133731000D01*
X113177000Y-133985000D01*
X113157000Y-133985000D01*
X113157000Y-135076068D01*
X113323935Y-135202981D01*
X113660762Y-135038359D01*
X113884949Y-135188156D01*
X114300000Y-135270715D01*
X114715051Y-135188156D01*
X115066914Y-134953049D01*
X115302021Y-134601186D01*
X115384580Y-134186135D01*
X115384580Y-133529865D01*
X115302021Y-133114814D01*
X115066914Y-132762951D01*
X114715051Y-132527844D01*
X114387144Y-132462619D01*
X117214613Y-132462619D01*
X117554155Y-133284372D01*
X118182321Y-133913636D01*
X119003481Y-134254611D01*
X119892619Y-134255387D01*
X120714372Y-133915845D01*
X120931556Y-133699039D01*
X123353096Y-133699039D01*
X123370633Y-133781819D01*
X123640500Y-134274896D01*
X124078517Y-134627166D01*
X124618000Y-134785000D01*
X124968000Y-134785000D01*
X124968000Y-133477000D01*
X125222000Y-133477000D01*
X125222000Y-134785000D01*
X125572000Y-134785000D01*
X126111483Y-134627166D01*
X126549500Y-134274896D01*
X126819367Y-133781819D01*
X126836904Y-133699039D01*
X126714915Y-133477000D01*
X125222000Y-133477000D01*
X124968000Y-133477000D01*
X123475085Y-133477000D01*
X123353096Y-133699039D01*
X120931556Y-133699039D01*
X121343636Y-133287679D01*
X121684611Y-132466519D01*
X121685387Y-131577381D01*
X121512532Y-131159039D01*
X123353096Y-131159039D01*
X123370633Y-131241819D01*
X123640500Y-131734896D01*
X124069607Y-132080000D01*
X123640500Y-132425104D01*
X123370633Y-132918181D01*
X123353096Y-133000961D01*
X123475085Y-133223000D01*
X124968000Y-133223000D01*
X124968000Y-130937000D01*
X125222000Y-130937000D01*
X125222000Y-133223000D01*
X126714915Y-133223000D01*
X126836904Y-133000961D01*
X126819367Y-132918181D01*
X126549500Y-132425104D01*
X126120393Y-132080000D01*
X126549500Y-131734896D01*
X126819367Y-131241819D01*
X126836904Y-131159039D01*
X126714915Y-130937000D01*
X125222000Y-130937000D01*
X124968000Y-130937000D01*
X123475085Y-130937000D01*
X123353096Y-131159039D01*
X121512532Y-131159039D01*
X121345845Y-130755628D01*
X120717679Y-130126364D01*
X119896519Y-129785389D01*
X119007381Y-129784613D01*
X118185628Y-130124155D01*
X117556364Y-130752321D01*
X117215389Y-131573481D01*
X117214613Y-132462619D01*
X114387144Y-132462619D01*
X114300000Y-132445285D01*
X113884949Y-132527844D01*
X113660762Y-132677641D01*
X113323935Y-132513019D01*
X113157000Y-132639932D01*
X112903000Y-132639932D01*
X112736065Y-132513019D01*
X112399238Y-132677641D01*
X112175051Y-132527844D01*
X111760000Y-132445285D01*
X111344949Y-132527844D01*
X110993086Y-132762951D01*
X110757979Y-133114814D01*
X110675420Y-133529865D01*
X110430000Y-133529865D01*
X110430000Y-124841000D01*
X114322704Y-124841000D01*
X114263909Y-124927050D01*
X114212900Y-125178940D01*
X114212900Y-128679060D01*
X114257178Y-128914377D01*
X114396250Y-129130501D01*
X114608450Y-129275491D01*
X114860340Y-129326500D01*
X118360460Y-129326500D01*
X118595777Y-129282222D01*
X118811901Y-129143150D01*
X118956891Y-128930950D01*
X119007900Y-128679060D01*
X119007900Y-128619039D01*
X123353096Y-128619039D01*
X123370633Y-128701819D01*
X123640500Y-129194896D01*
X124069607Y-129540000D01*
X123640500Y-129885104D01*
X123370633Y-130378181D01*
X123353096Y-130460961D01*
X123475085Y-130683000D01*
X124968000Y-130683000D01*
X124968000Y-128397000D01*
X125222000Y-128397000D01*
X125222000Y-130683000D01*
X126714915Y-130683000D01*
X126836904Y-130460961D01*
X126819367Y-130378181D01*
X126549500Y-129885104D01*
X126120393Y-129540000D01*
X126549500Y-129194896D01*
X126819367Y-128701819D01*
X126836904Y-128619039D01*
X126714915Y-128397000D01*
X125222000Y-128397000D01*
X124968000Y-128397000D01*
X123475085Y-128397000D01*
X123353096Y-128619039D01*
X119007900Y-128619039D01*
X119007900Y-126079039D01*
X123353096Y-126079039D01*
X123370633Y-126161819D01*
X123640500Y-126654896D01*
X124069607Y-127000000D01*
X123640500Y-127345104D01*
X123370633Y-127838181D01*
X123353096Y-127920961D01*
X123475085Y-128143000D01*
X124968000Y-128143000D01*
X124968000Y-125857000D01*
X125222000Y-125857000D01*
X125222000Y-128143000D01*
X126714915Y-128143000D01*
X126836904Y-127920961D01*
X126819367Y-127838181D01*
X126549500Y-127345104D01*
X126120393Y-127000000D01*
X126549500Y-126654896D01*
X126819367Y-126161819D01*
X126836904Y-126079039D01*
X126714915Y-125857000D01*
X125222000Y-125857000D01*
X124968000Y-125857000D01*
X123475085Y-125857000D01*
X123353096Y-126079039D01*
X119007900Y-126079039D01*
X119007900Y-125178940D01*
X118963622Y-124943623D01*
X118897586Y-124841000D01*
X123620854Y-124841000D01*
X123370633Y-125298181D01*
X123353096Y-125380961D01*
X123475085Y-125603000D01*
X124968000Y-125603000D01*
X124968000Y-125583000D01*
X125222000Y-125583000D01*
X125222000Y-125603000D01*
X126714915Y-125603000D01*
X126836904Y-125380961D01*
X126819367Y-125298181D01*
X126569146Y-124841000D01*
X130132112Y-124841000D01*
X129900057Y-124936883D01*
X129636808Y-125199673D01*
X129494162Y-125543201D01*
X129493838Y-125915167D01*
X129635883Y-126258943D01*
X129898673Y-126522192D01*
X130242201Y-126664838D01*
X130614167Y-126665162D01*
X130725888Y-126619000D01*
X131231343Y-126619000D01*
X131315332Y-126744698D01*
X131693151Y-126997149D01*
X131260500Y-127345104D01*
X130990633Y-127838181D01*
X130973096Y-127920961D01*
X131095085Y-128143000D01*
X132588000Y-128143000D01*
X132588000Y-128123000D01*
X132842000Y-128123000D01*
X132842000Y-128143000D01*
X134334915Y-128143000D01*
X134456904Y-127920961D01*
X134439367Y-127838181D01*
X134169500Y-127345104D01*
X133736849Y-126997149D01*
X134114668Y-126744698D01*
X134425737Y-126279151D01*
X134534970Y-125730000D01*
X134425737Y-125180849D01*
X134198657Y-124841000D01*
X135701434Y-124841000D01*
X135586569Y-125009110D01*
X135535560Y-125261000D01*
X135535560Y-128761000D01*
X135579838Y-128996317D01*
X135718910Y-129212441D01*
X135931110Y-129357431D01*
X136183000Y-129408440D01*
X137883000Y-129408440D01*
X138118317Y-129364162D01*
X138305077Y-129243985D01*
X138471110Y-129357431D01*
X138723000Y-129408440D01*
X140423000Y-129408440D01*
X140658317Y-129364162D01*
X140846831Y-129242857D01*
X140903301Y-129299327D01*
X141136690Y-129396000D01*
X141827250Y-129396000D01*
X141986000Y-129237250D01*
X141986000Y-126864000D01*
X142240000Y-126864000D01*
X142240000Y-129237250D01*
X142398750Y-129396000D01*
X143089310Y-129396000D01*
X143322699Y-129299327D01*
X143380897Y-129241129D01*
X143551110Y-129357431D01*
X143803000Y-129408440D01*
X145503000Y-129408440D01*
X145738317Y-129364162D01*
X145925077Y-129243985D01*
X146091110Y-129357431D01*
X146343000Y-129408440D01*
X148043000Y-129408440D01*
X148278317Y-129364162D01*
X148465077Y-129243985D01*
X148631110Y-129357431D01*
X148883000Y-129408440D01*
X150583000Y-129408440D01*
X150818317Y-129364162D01*
X151005077Y-129243985D01*
X151171110Y-129357431D01*
X151423000Y-129408440D01*
X153123000Y-129408440D01*
X153358317Y-129364162D01*
X153546831Y-129242857D01*
X153603301Y-129299327D01*
X153836690Y-129396000D01*
X154527250Y-129396000D01*
X154686000Y-129237250D01*
X154686000Y-124784750D01*
X154940000Y-124784750D01*
X154940000Y-129237250D01*
X155098750Y-129396000D01*
X155789310Y-129396000D01*
X156022699Y-129299327D01*
X156080897Y-129241129D01*
X156251110Y-129357431D01*
X156503000Y-129408440D01*
X158203000Y-129408440D01*
X158438317Y-129364162D01*
X158625077Y-129243985D01*
X158791110Y-129357431D01*
X159043000Y-129408440D01*
X160743000Y-129408440D01*
X160978317Y-129364162D01*
X161165077Y-129243985D01*
X161331110Y-129357431D01*
X161583000Y-129408440D01*
X163283000Y-129408440D01*
X163518317Y-129364162D01*
X163705077Y-129243985D01*
X163871110Y-129357431D01*
X164123000Y-129408440D01*
X165823000Y-129408440D01*
X166058317Y-129364162D01*
X166246831Y-129242857D01*
X166303301Y-129299327D01*
X166536690Y-129396000D01*
X167227250Y-129396000D01*
X167386000Y-129237250D01*
X167386000Y-124784750D01*
X167640000Y-124784750D01*
X167640000Y-129237250D01*
X167798750Y-129396000D01*
X168489310Y-129396000D01*
X168722699Y-129299327D01*
X168780897Y-129241129D01*
X168951110Y-129357431D01*
X169203000Y-129408440D01*
X170903000Y-129408440D01*
X171138317Y-129364162D01*
X171325077Y-129243985D01*
X171491110Y-129357431D01*
X171743000Y-129408440D01*
X173443000Y-129408440D01*
X173678317Y-129364162D01*
X173865077Y-129243985D01*
X174031110Y-129357431D01*
X174283000Y-129408440D01*
X175983000Y-129408440D01*
X176218317Y-129364162D01*
X176405077Y-129243985D01*
X176571110Y-129357431D01*
X176823000Y-129408440D01*
X178523000Y-129408440D01*
X178758317Y-129364162D01*
X178946831Y-129242857D01*
X179003301Y-129299327D01*
X179236690Y-129396000D01*
X179927250Y-129396000D01*
X180086000Y-129237250D01*
X180086000Y-124784750D01*
X180340000Y-124784750D01*
X180340000Y-129237250D01*
X180498750Y-129396000D01*
X181189310Y-129396000D01*
X181422699Y-129299327D01*
X181480897Y-129241129D01*
X181651110Y-129357431D01*
X181903000Y-129408440D01*
X183603000Y-129408440D01*
X183838317Y-129364162D01*
X184025077Y-129243985D01*
X184191110Y-129357431D01*
X184443000Y-129408440D01*
X186143000Y-129408440D01*
X186378317Y-129364162D01*
X186594441Y-129225090D01*
X186739431Y-129012890D01*
X186790440Y-128761000D01*
X186790440Y-125261000D01*
X186746162Y-125025683D01*
X186607090Y-124809559D01*
X186394890Y-124664569D01*
X186143000Y-124613560D01*
X185376720Y-124613560D01*
X185293000Y-124596907D01*
X185209280Y-124613560D01*
X184443000Y-124613560D01*
X184207683Y-124657838D01*
X184020923Y-124778015D01*
X183854890Y-124664569D01*
X183603000Y-124613560D01*
X182836720Y-124613560D01*
X182753000Y-124596907D01*
X182669280Y-124613560D01*
X181903000Y-124613560D01*
X181667683Y-124657838D01*
X181479169Y-124779143D01*
X181422699Y-124722673D01*
X181189310Y-124626000D01*
X180498750Y-124626000D01*
X180340000Y-124784750D01*
X180086000Y-124784750D01*
X179927250Y-124626000D01*
X179236690Y-124626000D01*
X179003301Y-124722673D01*
X178945103Y-124780871D01*
X178774890Y-124664569D01*
X178523000Y-124613560D01*
X177756720Y-124613560D01*
X177673000Y-124596907D01*
X177589280Y-124613560D01*
X176823000Y-124613560D01*
X176587683Y-124657838D01*
X176400923Y-124778015D01*
X176234890Y-124664569D01*
X175983000Y-124613560D01*
X175216720Y-124613560D01*
X175133000Y-124596907D01*
X175049280Y-124613560D01*
X174283000Y-124613560D01*
X174047683Y-124657838D01*
X173860923Y-124778015D01*
X173694890Y-124664569D01*
X173443000Y-124613560D01*
X172676720Y-124613560D01*
X172593000Y-124596907D01*
X172509280Y-124613560D01*
X171743000Y-124613560D01*
X171507683Y-124657838D01*
X171320923Y-124778015D01*
X171154890Y-124664569D01*
X170903000Y-124613560D01*
X170136720Y-124613560D01*
X170053000Y-124596907D01*
X169969280Y-124613560D01*
X169203000Y-124613560D01*
X168967683Y-124657838D01*
X168779169Y-124779143D01*
X168722699Y-124722673D01*
X168489310Y-124626000D01*
X167798750Y-124626000D01*
X167640000Y-124784750D01*
X167386000Y-124784750D01*
X167227250Y-124626000D01*
X166536690Y-124626000D01*
X166303301Y-124722673D01*
X166245103Y-124780871D01*
X166074890Y-124664569D01*
X165823000Y-124613560D01*
X165056720Y-124613560D01*
X164973000Y-124596907D01*
X164889280Y-124613560D01*
X164123000Y-124613560D01*
X163887683Y-124657838D01*
X163700923Y-124778015D01*
X163534890Y-124664569D01*
X163283000Y-124613560D01*
X162516720Y-124613560D01*
X162433000Y-124596907D01*
X162349280Y-124613560D01*
X161583000Y-124613560D01*
X161347683Y-124657838D01*
X161160923Y-124778015D01*
X160994890Y-124664569D01*
X160743000Y-124613560D01*
X159976720Y-124613560D01*
X159893000Y-124596907D01*
X159809280Y-124613560D01*
X159043000Y-124613560D01*
X158807683Y-124657838D01*
X158620923Y-124778015D01*
X158454890Y-124664569D01*
X158203000Y-124613560D01*
X157436720Y-124613560D01*
X157353000Y-124596907D01*
X157269280Y-124613560D01*
X156503000Y-124613560D01*
X156267683Y-124657838D01*
X156079169Y-124779143D01*
X156022699Y-124722673D01*
X155789310Y-124626000D01*
X155098750Y-124626000D01*
X154940000Y-124784750D01*
X154686000Y-124784750D01*
X154527250Y-124626000D01*
X153836690Y-124626000D01*
X153603301Y-124722673D01*
X153545103Y-124780871D01*
X153374890Y-124664569D01*
X153123000Y-124613560D01*
X152356720Y-124613560D01*
X152273000Y-124596907D01*
X152189280Y-124613560D01*
X151423000Y-124613560D01*
X151187683Y-124657838D01*
X151000923Y-124778015D01*
X150834890Y-124664569D01*
X150749000Y-124647176D01*
X150749000Y-124404086D01*
X193711269Y-124404086D01*
X193913854Y-124894380D01*
X194288647Y-125269827D01*
X194778587Y-125473268D01*
X195309086Y-125473731D01*
X195799380Y-125271146D01*
X196174827Y-124896353D01*
X196378268Y-124406413D01*
X196378270Y-124404086D01*
X201331269Y-124404086D01*
X201533854Y-124894380D01*
X201908647Y-125269827D01*
X202398587Y-125473268D01*
X202929086Y-125473731D01*
X203419380Y-125271146D01*
X203794827Y-124896353D01*
X203998268Y-124406413D01*
X203998731Y-123875914D01*
X203796146Y-123385620D01*
X203550954Y-123140000D01*
X204092560Y-123140000D01*
X204092560Y-125140000D01*
X204136838Y-125375317D01*
X204275910Y-125591441D01*
X204418561Y-125688910D01*
X204354722Y-125752637D01*
X204105284Y-126353352D01*
X204104716Y-127003795D01*
X204353106Y-127604943D01*
X204812637Y-128065278D01*
X205413352Y-128314716D01*
X206063795Y-128315284D01*
X206664943Y-128066894D01*
X207125278Y-127607363D01*
X207374716Y-127006648D01*
X207375284Y-126356205D01*
X207126894Y-125755057D01*
X207060379Y-125688426D01*
X207191441Y-125604090D01*
X207336431Y-125391890D01*
X207387440Y-125140000D01*
X207387440Y-123140000D01*
X207343162Y-122904683D01*
X207204090Y-122688559D01*
X206991890Y-122543569D01*
X206740000Y-122492560D01*
X204740000Y-122492560D01*
X204504683Y-122536838D01*
X204288559Y-122675910D01*
X204143569Y-122888110D01*
X204092560Y-123140000D01*
X203550954Y-123140000D01*
X203421353Y-123010173D01*
X202931413Y-122806732D01*
X202400914Y-122806269D01*
X201910620Y-123008854D01*
X201535173Y-123383647D01*
X201331732Y-123873587D01*
X201331269Y-124404086D01*
X196378270Y-124404086D01*
X196378731Y-123875914D01*
X196176146Y-123385620D01*
X195801353Y-123010173D01*
X195311413Y-122806732D01*
X194780914Y-122806269D01*
X194290620Y-123008854D01*
X193915173Y-123383647D01*
X193711732Y-123873587D01*
X193711269Y-124404086D01*
X150749000Y-124404086D01*
X150749000Y-119495100D01*
X154065560Y-119495100D01*
X154065560Y-121195100D01*
X154109838Y-121430417D01*
X154248910Y-121646541D01*
X154461110Y-121791531D01*
X154517454Y-121802941D01*
X154512946Y-121805953D01*
X154191039Y-122287722D01*
X154078000Y-122856007D01*
X154078000Y-122914193D01*
X154191039Y-123482478D01*
X154512946Y-123964247D01*
X154994715Y-124286154D01*
X155563000Y-124399193D01*
X156131285Y-124286154D01*
X156613054Y-123964247D01*
X156934961Y-123482478D01*
X157048000Y-122914193D01*
X157048000Y-122856007D01*
X156934961Y-122287722D01*
X156613054Y-121805953D01*
X156611821Y-121805129D01*
X156648317Y-121798262D01*
X156864441Y-121659190D01*
X157009431Y-121446990D01*
X157060440Y-121195100D01*
X157060440Y-119495100D01*
X157016162Y-119259783D01*
X156877090Y-119043659D01*
X156664890Y-118898669D01*
X156608546Y-118887259D01*
X156613054Y-118884247D01*
X156934961Y-118402478D01*
X157048000Y-117834193D01*
X157048000Y-117776007D01*
X156934961Y-117207722D01*
X156613054Y-116725953D01*
X156131285Y-116404046D01*
X155563000Y-116291007D01*
X154994715Y-116404046D01*
X154512946Y-116725953D01*
X154191039Y-117207722D01*
X154078000Y-117776007D01*
X154078000Y-117834193D01*
X154191039Y-118402478D01*
X154512946Y-118884247D01*
X154514179Y-118885071D01*
X154477683Y-118891938D01*
X154261559Y-119031010D01*
X154116569Y-119243210D01*
X154065560Y-119495100D01*
X150749000Y-119495100D01*
X150749000Y-112903000D01*
X170180000Y-112903000D01*
X170180000Y-121412000D01*
X170188685Y-121458159D01*
X170215965Y-121500553D01*
X170257590Y-121528994D01*
X170307000Y-121539000D01*
X186563000Y-121539000D01*
X186609159Y-121530315D01*
X186651553Y-121503035D01*
X186679994Y-121461410D01*
X186690000Y-121412000D01*
X186690000Y-120016291D01*
X186698000Y-119976072D01*
X186698000Y-119915928D01*
X186690000Y-119875709D01*
X186690000Y-117800086D01*
X193711269Y-117800086D01*
X193913854Y-118290380D01*
X194288647Y-118665827D01*
X194778587Y-118869268D01*
X195309086Y-118869731D01*
X195799380Y-118667146D01*
X196174827Y-118292353D01*
X196378268Y-117802413D01*
X196378270Y-117800086D01*
X201331269Y-117800086D01*
X201533854Y-118290380D01*
X201908647Y-118665827D01*
X202398587Y-118869268D01*
X202929086Y-118869731D01*
X203419380Y-118667146D01*
X203794827Y-118292353D01*
X203998268Y-117802413D01*
X203998731Y-117271914D01*
X203796146Y-116781620D01*
X203550954Y-116536000D01*
X204092560Y-116536000D01*
X204092560Y-118536000D01*
X204136838Y-118771317D01*
X204275910Y-118987441D01*
X204418561Y-119084910D01*
X204354722Y-119148637D01*
X204105284Y-119749352D01*
X204104716Y-120399795D01*
X204353106Y-121000943D01*
X204812637Y-121461278D01*
X205413352Y-121710716D01*
X206063795Y-121711284D01*
X206664943Y-121462894D01*
X207125278Y-121003363D01*
X207374716Y-120402648D01*
X207375284Y-119752205D01*
X207126894Y-119151057D01*
X207060379Y-119084426D01*
X207191441Y-119000090D01*
X207336431Y-118787890D01*
X207387440Y-118536000D01*
X207387440Y-116536000D01*
X207343162Y-116300683D01*
X207204090Y-116084559D01*
X206991890Y-115939569D01*
X206740000Y-115888560D01*
X204740000Y-115888560D01*
X204504683Y-115932838D01*
X204288559Y-116071910D01*
X204143569Y-116284110D01*
X204092560Y-116536000D01*
X203550954Y-116536000D01*
X203421353Y-116406173D01*
X202931413Y-116202732D01*
X202400914Y-116202269D01*
X201910620Y-116404854D01*
X201535173Y-116779647D01*
X201331732Y-117269587D01*
X201331269Y-117800086D01*
X196378270Y-117800086D01*
X196378731Y-117271914D01*
X196176146Y-116781620D01*
X195801353Y-116406173D01*
X195311413Y-116202732D01*
X194780914Y-116202269D01*
X194290620Y-116404854D01*
X193915173Y-116779647D01*
X193711732Y-117269587D01*
X193711269Y-117800086D01*
X186690000Y-117800086D01*
X186690000Y-114566291D01*
X186698000Y-114526072D01*
X186698000Y-114465928D01*
X186690000Y-114425709D01*
X186690000Y-112903000D01*
X186681315Y-112856841D01*
X186654035Y-112814447D01*
X186612410Y-112786006D01*
X186563000Y-112776000D01*
X170307000Y-112776000D01*
X170260841Y-112784685D01*
X170218447Y-112811965D01*
X170190006Y-112853590D01*
X170180000Y-112903000D01*
X150749000Y-112903000D01*
X150749000Y-111196086D01*
X193711269Y-111196086D01*
X193913854Y-111686380D01*
X194288647Y-112061827D01*
X194778587Y-112265268D01*
X195309086Y-112265731D01*
X195799380Y-112063146D01*
X196174827Y-111688353D01*
X196378268Y-111198413D01*
X196378270Y-111196086D01*
X201331269Y-111196086D01*
X201533854Y-111686380D01*
X201908647Y-112061827D01*
X202398587Y-112265268D01*
X202929086Y-112265731D01*
X203419380Y-112063146D01*
X203794827Y-111688353D01*
X203998268Y-111198413D01*
X203998731Y-110667914D01*
X203796146Y-110177620D01*
X203550954Y-109932000D01*
X204092560Y-109932000D01*
X204092560Y-111932000D01*
X204136838Y-112167317D01*
X204275910Y-112383441D01*
X204418561Y-112480910D01*
X204354722Y-112544637D01*
X204105284Y-113145352D01*
X204104716Y-113795795D01*
X204353106Y-114396943D01*
X204812637Y-114857278D01*
X205413352Y-115106716D01*
X206063795Y-115107284D01*
X206664943Y-114858894D01*
X207125278Y-114399363D01*
X207374716Y-113798648D01*
X207375284Y-113148205D01*
X207126894Y-112547057D01*
X207060379Y-112480426D01*
X207191441Y-112396090D01*
X207336431Y-112183890D01*
X207387440Y-111932000D01*
X207387440Y-109932000D01*
X207343162Y-109696683D01*
X207204090Y-109480559D01*
X206991890Y-109335569D01*
X206740000Y-109284560D01*
X204740000Y-109284560D01*
X204504683Y-109328838D01*
X204288559Y-109467910D01*
X204143569Y-109680110D01*
X204092560Y-109932000D01*
X203550954Y-109932000D01*
X203421353Y-109802173D01*
X202931413Y-109598732D01*
X202400914Y-109598269D01*
X201910620Y-109800854D01*
X201535173Y-110175647D01*
X201331732Y-110665587D01*
X201331269Y-111196086D01*
X196378270Y-111196086D01*
X196378731Y-110667914D01*
X196176146Y-110177620D01*
X195801353Y-109802173D01*
X195311413Y-109598732D01*
X194780914Y-109598269D01*
X194290620Y-109800854D01*
X193915173Y-110175647D01*
X193711732Y-110665587D01*
X193711269Y-111196086D01*
X150749000Y-111196086D01*
X150749000Y-109855000D01*
X150740315Y-109808841D01*
X150734574Y-109799919D01*
X150818317Y-109784162D01*
X151005077Y-109663985D01*
X151171110Y-109777431D01*
X151423000Y-109828440D01*
X152189280Y-109828440D01*
X152273000Y-109845093D01*
X152356720Y-109828440D01*
X153123000Y-109828440D01*
X153358317Y-109784162D01*
X153546831Y-109662857D01*
X153603301Y-109719327D01*
X153836690Y-109816000D01*
X154527250Y-109816000D01*
X154686000Y-109657250D01*
X154686000Y-105204750D01*
X154940000Y-105204750D01*
X154940000Y-109657250D01*
X155098750Y-109816000D01*
X155789310Y-109816000D01*
X156022699Y-109719327D01*
X156080897Y-109661129D01*
X156251110Y-109777431D01*
X156503000Y-109828440D01*
X157269280Y-109828440D01*
X157353000Y-109845093D01*
X157436720Y-109828440D01*
X158203000Y-109828440D01*
X158438317Y-109784162D01*
X158625077Y-109663985D01*
X158791110Y-109777431D01*
X159043000Y-109828440D01*
X159809280Y-109828440D01*
X159893000Y-109845093D01*
X159976720Y-109828440D01*
X160743000Y-109828440D01*
X160978317Y-109784162D01*
X161165077Y-109663985D01*
X161331110Y-109777431D01*
X161583000Y-109828440D01*
X162349280Y-109828440D01*
X162433000Y-109845093D01*
X162516720Y-109828440D01*
X163283000Y-109828440D01*
X163518317Y-109784162D01*
X163705077Y-109663985D01*
X163871110Y-109777431D01*
X164123000Y-109828440D01*
X164889280Y-109828440D01*
X164973000Y-109845093D01*
X165056720Y-109828440D01*
X165823000Y-109828440D01*
X166058317Y-109784162D01*
X166246831Y-109662857D01*
X166303301Y-109719327D01*
X166536690Y-109816000D01*
X167227250Y-109816000D01*
X167386000Y-109657250D01*
X167386000Y-105204750D01*
X167227250Y-105046000D01*
X166536690Y-105046000D01*
X166303301Y-105142673D01*
X166245103Y-105200871D01*
X166074890Y-105084569D01*
X165823000Y-105033560D01*
X164123000Y-105033560D01*
X163887683Y-105077838D01*
X163700923Y-105198015D01*
X163534890Y-105084569D01*
X163283000Y-105033560D01*
X161583000Y-105033560D01*
X161347683Y-105077838D01*
X161160923Y-105198015D01*
X160994890Y-105084569D01*
X160743000Y-105033560D01*
X159043000Y-105033560D01*
X158807683Y-105077838D01*
X158620923Y-105198015D01*
X158454890Y-105084569D01*
X158203000Y-105033560D01*
X156503000Y-105033560D01*
X156267683Y-105077838D01*
X156079169Y-105199143D01*
X156022699Y-105142673D01*
X155789310Y-105046000D01*
X155098750Y-105046000D01*
X154940000Y-105204750D01*
X154686000Y-105204750D01*
X154527250Y-105046000D01*
X153836690Y-105046000D01*
X153603301Y-105142673D01*
X153545103Y-105200871D01*
X153374890Y-105084569D01*
X153123000Y-105033560D01*
X151423000Y-105033560D01*
X151187683Y-105077838D01*
X151000923Y-105198015D01*
X150834890Y-105084569D01*
X150583000Y-105033560D01*
X148883000Y-105033560D01*
X148647683Y-105077838D01*
X148460923Y-105198015D01*
X148294890Y-105084569D01*
X148043000Y-105033560D01*
X146343000Y-105033560D01*
X146107683Y-105077838D01*
X145920923Y-105198015D01*
X145754890Y-105084569D01*
X145503000Y-105033560D01*
X143803000Y-105033560D01*
X143567683Y-105077838D01*
X143379169Y-105199143D01*
X143322699Y-105142673D01*
X143089310Y-105046000D01*
X142398750Y-105046000D01*
X142240000Y-105204750D01*
X142240000Y-107578000D01*
X141986000Y-107578000D01*
X141986000Y-105204750D01*
X141827250Y-105046000D01*
X141136690Y-105046000D01*
X140903301Y-105142673D01*
X140845103Y-105200871D01*
X140674890Y-105084569D01*
X140423000Y-105033560D01*
X138723000Y-105033560D01*
X138487683Y-105077838D01*
X138300923Y-105198015D01*
X138134890Y-105084569D01*
X137883000Y-105033560D01*
X136183000Y-105033560D01*
X135947683Y-105077838D01*
X135731559Y-105216910D01*
X135586569Y-105429110D01*
X135535560Y-105681000D01*
X135535560Y-109181000D01*
X135579838Y-109416317D01*
X135718910Y-109632441D01*
X135858765Y-109728000D01*
X112690600Y-109728000D01*
X112690600Y-107208900D01*
X116832000Y-107208900D01*
X117103705Y-107154854D01*
X117334046Y-107000946D01*
X117487954Y-106770605D01*
X117542000Y-106498900D01*
X117542000Y-91805000D01*
X124837041Y-91805000D01*
X124951115Y-92378489D01*
X125275971Y-92864670D01*
X125590752Y-93075000D01*
X125275971Y-93285330D01*
X124951115Y-93771511D01*
X124837041Y-94345000D01*
X124951115Y-94918489D01*
X125275971Y-95404670D01*
X125590752Y-95615000D01*
X125275971Y-95825330D01*
X124951115Y-96311511D01*
X124837041Y-96885000D01*
X124951115Y-97458489D01*
X125275971Y-97944670D01*
X125590752Y-98155000D01*
X125275971Y-98365330D01*
X124951115Y-98851511D01*
X124837041Y-99425000D01*
X124951115Y-99998489D01*
X125275971Y-100484670D01*
X125590752Y-100695000D01*
X125275971Y-100905330D01*
X124951115Y-101391511D01*
X124837041Y-101965000D01*
X124951115Y-102538489D01*
X125275971Y-103024670D01*
X125762152Y-103349526D01*
X126335641Y-103463600D01*
X126394359Y-103463600D01*
X126720998Y-103398628D01*
X127493185Y-104170815D01*
X127740395Y-104335996D01*
X128032000Y-104394000D01*
X134440534Y-104394000D01*
X134470673Y-104424192D01*
X134814201Y-104566838D01*
X135186167Y-104567162D01*
X135529943Y-104425117D01*
X135793192Y-104162327D01*
X135935838Y-103818799D01*
X135936162Y-103446833D01*
X135794117Y-103103057D01*
X135531327Y-102839808D01*
X135187799Y-102697162D01*
X134815833Y-102696838D01*
X134472057Y-102838883D01*
X134440886Y-102870000D01*
X133392888Y-102870000D01*
X133624943Y-102774117D01*
X133888192Y-102511327D01*
X133963469Y-102330039D01*
X173137096Y-102330039D01*
X173154633Y-102412819D01*
X173424500Y-102905896D01*
X173862517Y-103258166D01*
X174402000Y-103416000D01*
X174752000Y-103416000D01*
X174752000Y-102108000D01*
X175006000Y-102108000D01*
X175006000Y-103416000D01*
X175356000Y-103416000D01*
X175895483Y-103258166D01*
X176333500Y-102905896D01*
X176603367Y-102412819D01*
X176620904Y-102330039D01*
X176498915Y-102108000D01*
X175006000Y-102108000D01*
X174752000Y-102108000D01*
X173259085Y-102108000D01*
X173137096Y-102330039D01*
X133963469Y-102330039D01*
X134030838Y-102167799D01*
X134031162Y-101795833D01*
X133925690Y-101540570D01*
X134179201Y-101645838D01*
X134551167Y-101646162D01*
X134894943Y-101504117D01*
X135158192Y-101241327D01*
X135300838Y-100897799D01*
X135301162Y-100525833D01*
X135159117Y-100182057D01*
X134896327Y-99918808D01*
X134552799Y-99776162D01*
X134180833Y-99775838D01*
X133837057Y-99917883D01*
X133805886Y-99949000D01*
X132627463Y-99949000D01*
X132760838Y-99627799D01*
X132761162Y-99255833D01*
X132691568Y-99087403D01*
X132989943Y-98964117D01*
X133253192Y-98701327D01*
X133395838Y-98357799D01*
X133396162Y-97985833D01*
X133348715Y-97871000D01*
X135257560Y-97871000D01*
X135257560Y-98471000D01*
X135301838Y-98706317D01*
X135440910Y-98922441D01*
X135653110Y-99067431D01*
X135905000Y-99118440D01*
X137905000Y-99118440D01*
X138140317Y-99074162D01*
X138162325Y-99060000D01*
X142450811Y-99060000D01*
X142561201Y-99105838D01*
X142933167Y-99106162D01*
X143276943Y-98964117D01*
X143540192Y-98701327D01*
X143641749Y-98456750D01*
X144670000Y-98456750D01*
X144670000Y-98597310D01*
X144766673Y-98830699D01*
X144945302Y-99009327D01*
X145178691Y-99106000D01*
X146019250Y-99106000D01*
X146178000Y-98947250D01*
X146178000Y-98298000D01*
X146432000Y-98298000D01*
X146432000Y-98947250D01*
X146590750Y-99106000D01*
X147431309Y-99106000D01*
X147664698Y-99009327D01*
X147843327Y-98830699D01*
X147940000Y-98597310D01*
X147940000Y-98456750D01*
X147781250Y-98298000D01*
X146432000Y-98298000D01*
X146178000Y-98298000D01*
X144828750Y-98298000D01*
X144670000Y-98456750D01*
X143641749Y-98456750D01*
X143682838Y-98357799D01*
X143683162Y-97985833D01*
X143541117Y-97642057D01*
X143278327Y-97378808D01*
X142934799Y-97236162D01*
X142562833Y-97235838D01*
X142451112Y-97282000D01*
X138540000Y-97282000D01*
X138540000Y-97186750D01*
X138381250Y-97028000D01*
X137032000Y-97028000D01*
X137032000Y-97048000D01*
X136778000Y-97048000D01*
X136778000Y-97028000D01*
X135428750Y-97028000D01*
X135270000Y-97186750D01*
X135270000Y-97327310D01*
X135359806Y-97544122D01*
X135308569Y-97619110D01*
X135257560Y-97871000D01*
X133348715Y-97871000D01*
X133290690Y-97730570D01*
X133544201Y-97835838D01*
X133916167Y-97836162D01*
X134259943Y-97694117D01*
X134523192Y-97431327D01*
X134665838Y-97087799D01*
X134666162Y-96715833D01*
X134532770Y-96393000D01*
X135303837Y-96393000D01*
X135270000Y-96474690D01*
X135270000Y-96615250D01*
X135428750Y-96774000D01*
X136778000Y-96774000D01*
X136778000Y-96754000D01*
X137032000Y-96754000D01*
X137032000Y-96774000D01*
X138381250Y-96774000D01*
X138540000Y-96615250D01*
X138540000Y-96474690D01*
X138450194Y-96257878D01*
X138501431Y-96182890D01*
X138552440Y-95931000D01*
X138552440Y-95331000D01*
X138508162Y-95095683D01*
X138444322Y-94996472D01*
X138501431Y-94912890D01*
X138552440Y-94661000D01*
X138552440Y-94061000D01*
X138508162Y-93825683D01*
X138444322Y-93726472D01*
X138501431Y-93642890D01*
X138552440Y-93391000D01*
X138552440Y-92791000D01*
X138508162Y-92555683D01*
X138444322Y-92456472D01*
X138501431Y-92372890D01*
X138552440Y-92121000D01*
X138552440Y-91521000D01*
X138508162Y-91285683D01*
X138444322Y-91186472D01*
X138501431Y-91102890D01*
X138552440Y-90851000D01*
X138552440Y-90251000D01*
X138508162Y-90015683D01*
X138444322Y-89916472D01*
X138501431Y-89832890D01*
X138552440Y-89581000D01*
X138552440Y-88981000D01*
X138508162Y-88745683D01*
X138444322Y-88646472D01*
X138501431Y-88562890D01*
X138552440Y-88311000D01*
X138552440Y-87711000D01*
X138508162Y-87475683D01*
X138444322Y-87376472D01*
X138501431Y-87292890D01*
X138552440Y-87041000D01*
X138552440Y-86441000D01*
X138508162Y-86205683D01*
X138444322Y-86106472D01*
X138501431Y-86022890D01*
X138552440Y-85771000D01*
X138552440Y-85171000D01*
X138508162Y-84935683D01*
X138444322Y-84836472D01*
X138501431Y-84752890D01*
X138552440Y-84501000D01*
X138552440Y-83901000D01*
X138508162Y-83665683D01*
X138449822Y-83575020D01*
X138540000Y-83357310D01*
X138540000Y-83216750D01*
X138381250Y-83058000D01*
X137032000Y-83058000D01*
X137032000Y-83078000D01*
X136778000Y-83078000D01*
X136778000Y-83058000D01*
X135428750Y-83058000D01*
X135270000Y-83216750D01*
X135270000Y-83357310D01*
X135303837Y-83439000D01*
X135055722Y-83439000D01*
X135155622Y-83151922D01*
X135126083Y-82641572D01*
X135035548Y-82423000D01*
X135303837Y-82423000D01*
X135270000Y-82504690D01*
X135270000Y-82645250D01*
X135428750Y-82804000D01*
X136778000Y-82804000D01*
X136778000Y-82784000D01*
X137032000Y-82784000D01*
X137032000Y-82804000D01*
X138381250Y-82804000D01*
X138540000Y-82645250D01*
X138540000Y-82504690D01*
X138450194Y-82287878D01*
X138501431Y-82212890D01*
X138552440Y-81961000D01*
X138552440Y-81361000D01*
X138508162Y-81125683D01*
X138369090Y-80909559D01*
X138156890Y-80764569D01*
X137905000Y-80713560D01*
X135905000Y-80713560D01*
X135669683Y-80757838D01*
X135453559Y-80896910D01*
X135452131Y-80899000D01*
X130339266Y-80899000D01*
X130187890Y-80795569D01*
X129936000Y-80744560D01*
X128636000Y-80744560D01*
X128400683Y-80788838D01*
X128184559Y-80927910D01*
X128039569Y-81140110D01*
X127988560Y-81392000D01*
X127988560Y-82692000D01*
X128032838Y-82927317D01*
X128171910Y-83143441D01*
X128384110Y-83288431D01*
X128636000Y-83339440D01*
X128831460Y-83339440D01*
X128559057Y-83451995D01*
X128197265Y-83813155D01*
X128001223Y-84285276D01*
X128000777Y-84796481D01*
X128195995Y-85268943D01*
X128557155Y-85630735D01*
X129029276Y-85826777D01*
X129540481Y-85827223D01*
X130012943Y-85632005D01*
X130374735Y-85270845D01*
X130502564Y-84963000D01*
X132560560Y-84963000D01*
X132560560Y-85979000D01*
X132386466Y-85979000D01*
X132356327Y-85948808D01*
X132012799Y-85806162D01*
X131640833Y-85805838D01*
X131297057Y-85947883D01*
X131033808Y-86210673D01*
X130891162Y-86554201D01*
X130890838Y-86926167D01*
X131032883Y-87269943D01*
X131295673Y-87533192D01*
X131595332Y-87657622D01*
X131526162Y-87824201D01*
X131525838Y-88196167D01*
X131667883Y-88539943D01*
X131930673Y-88803192D01*
X132230332Y-88927622D01*
X132161162Y-89094201D01*
X132160838Y-89466167D01*
X132302883Y-89809943D01*
X132565673Y-90073192D01*
X132865332Y-90197622D01*
X132796162Y-90364201D01*
X132795838Y-90736167D01*
X132937883Y-91079943D01*
X133200673Y-91343192D01*
X133500332Y-91467622D01*
X133431162Y-91634201D01*
X133430838Y-92006167D01*
X133572883Y-92349943D01*
X133835673Y-92613192D01*
X134179201Y-92755838D01*
X134180503Y-92755839D01*
X134066162Y-93031201D01*
X134065838Y-93403167D01*
X134146754Y-93599000D01*
X130203617Y-93599000D01*
X129994029Y-93285330D01*
X129670772Y-93069336D01*
X129793490Y-93011821D01*
X130187688Y-92579947D01*
X130359958Y-92164026D01*
X130238817Y-91932000D01*
X129032000Y-91932000D01*
X129032000Y-91952000D01*
X128778000Y-91952000D01*
X128778000Y-91932000D01*
X128758000Y-91932000D01*
X128758000Y-91678000D01*
X128778000Y-91678000D01*
X128778000Y-90470531D01*
X129032000Y-90470531D01*
X129032000Y-91678000D01*
X130238817Y-91678000D01*
X130359958Y-91445974D01*
X130187688Y-91030053D01*
X129793490Y-90598179D01*
X129264027Y-90350032D01*
X129032000Y-90470531D01*
X128778000Y-90470531D01*
X128545973Y-90350032D01*
X128016510Y-90598179D01*
X127634992Y-91016161D01*
X127454029Y-90745330D01*
X126967848Y-90420474D01*
X126394359Y-90306400D01*
X126335641Y-90306400D01*
X125762152Y-90420474D01*
X125275971Y-90745330D01*
X124951115Y-91231511D01*
X124837041Y-91805000D01*
X117542000Y-91805000D01*
X117542000Y-87271100D01*
X117487954Y-86999395D01*
X117334046Y-86769054D01*
X117103705Y-86615146D01*
X116832000Y-86561100D01*
X112690600Y-86561100D01*
X112690600Y-86212619D01*
X117214613Y-86212619D01*
X117554155Y-87034372D01*
X118182321Y-87663636D01*
X119003481Y-88004611D01*
X119892619Y-88005387D01*
X120714372Y-87665845D01*
X121343636Y-87037679D01*
X121684611Y-86216519D01*
X121685387Y-85327381D01*
X121345845Y-84505628D01*
X120717679Y-83876364D01*
X119896519Y-83535389D01*
X119007381Y-83534613D01*
X118185628Y-83874155D01*
X117556364Y-84502321D01*
X117215389Y-85323481D01*
X117214613Y-86212619D01*
X112690600Y-86212619D01*
X112690600Y-81141000D01*
X112636554Y-80869295D01*
X112482646Y-80638954D01*
X112252305Y-80485046D01*
X111980600Y-80431000D01*
X110430000Y-80431000D01*
X110430000Y-79258016D01*
X139528590Y-79258016D01*
X139584271Y-79488611D01*
X140067078Y-79656622D01*
X140577428Y-79627083D01*
X140911729Y-79488611D01*
X140967410Y-79258016D01*
X140248000Y-78538605D01*
X139528590Y-79258016D01*
X110430000Y-79258016D01*
X110430000Y-78178078D01*
X138950378Y-78178078D01*
X138979917Y-78688428D01*
X139118389Y-79022729D01*
X139348984Y-79078410D01*
X140068395Y-78359000D01*
X140427605Y-78359000D01*
X141147016Y-79078410D01*
X141377611Y-79022729D01*
X141450560Y-78813098D01*
X141450560Y-79009000D01*
X141494838Y-79244317D01*
X141633910Y-79460441D01*
X141846110Y-79605431D01*
X142098000Y-79656440D01*
X143398000Y-79656440D01*
X143633317Y-79612162D01*
X143849441Y-79473090D01*
X143994431Y-79260890D01*
X144045440Y-79009000D01*
X144045440Y-77709000D01*
X144001162Y-77473683D01*
X143862090Y-77257559D01*
X143649890Y-77112569D01*
X143398000Y-77061560D01*
X142098000Y-77061560D01*
X141862683Y-77105838D01*
X141646559Y-77244910D01*
X141501569Y-77457110D01*
X141450560Y-77709000D01*
X141450560Y-77871385D01*
X141377611Y-77695271D01*
X141147016Y-77639590D01*
X140427605Y-78359000D01*
X140068395Y-78359000D01*
X139348984Y-77639590D01*
X139118389Y-77695271D01*
X138950378Y-78178078D01*
X110430000Y-78178078D01*
X110430000Y-77459984D01*
X139528590Y-77459984D01*
X140248000Y-78179395D01*
X140967410Y-77459984D01*
X140911729Y-77229389D01*
X140428922Y-77061378D01*
X139918572Y-77090917D01*
X139584271Y-77229389D01*
X139528590Y-77459984D01*
X110430000Y-77459984D01*
X110430000Y-76540000D01*
X161775000Y-76540000D01*
X161775000Y-80975000D01*
X161775000Y-80975000D01*
G37*
X161775000Y-80975000D02*
X161788642Y-81043584D01*
X161788642Y-81113514D01*
X162040981Y-82382110D01*
X162070808Y-82454117D01*
X162146996Y-82638051D01*
X162865598Y-83713514D01*
X163061486Y-83909402D01*
X164136949Y-84628004D01*
X164209483Y-84658048D01*
X164180808Y-84686673D01*
X164038162Y-85030201D01*
X164037838Y-85402167D01*
X164179883Y-85745943D01*
X164442673Y-86009192D01*
X164786201Y-86151838D01*
X165158167Y-86152162D01*
X165501943Y-86010117D01*
X165533114Y-85979000D01*
X166825886Y-85979000D01*
X166593808Y-86210673D01*
X166451162Y-86554201D01*
X166450838Y-86926167D01*
X166592883Y-87269943D01*
X166855673Y-87533192D01*
X167199201Y-87675838D01*
X167571167Y-87676162D01*
X167914943Y-87534117D01*
X167946114Y-87503000D01*
X173310484Y-87503000D01*
X173479332Y-87755698D01*
X173861418Y-88011000D01*
X173479332Y-88266302D01*
X173247526Y-88613224D01*
X173123327Y-88488808D01*
X172779799Y-88346162D01*
X172407833Y-88345838D01*
X172064057Y-88487883D01*
X172032886Y-88519000D01*
X156884463Y-88519000D01*
X157017838Y-88197799D01*
X157018162Y-87825833D01*
X156876117Y-87482057D01*
X156613327Y-87218808D01*
X156269799Y-87076162D01*
X155897833Y-87075838D01*
X155554057Y-87217883D01*
X155522886Y-87249000D01*
X151550463Y-87249000D01*
X151683838Y-86927799D01*
X151684111Y-86614000D01*
X152106991Y-86614000D01*
X152433155Y-86940735D01*
X152905276Y-87136777D01*
X153416481Y-87137223D01*
X153888943Y-86942005D01*
X154250735Y-86580845D01*
X154403635Y-86212619D01*
X157214613Y-86212619D01*
X157554155Y-87034372D01*
X158182321Y-87663636D01*
X159003481Y-88004611D01*
X159892619Y-88005387D01*
X160714372Y-87665845D01*
X161343636Y-87037679D01*
X161684611Y-86216519D01*
X161685387Y-85327381D01*
X161345845Y-84505628D01*
X160717679Y-83876364D01*
X159896519Y-83535389D01*
X159007381Y-83534613D01*
X158185628Y-83874155D01*
X157556364Y-84502321D01*
X157215389Y-85323481D01*
X157214613Y-86212619D01*
X154403635Y-86212619D01*
X154446777Y-86108724D01*
X154447223Y-85597519D01*
X154252005Y-85125057D01*
X153890845Y-84763265D01*
X153418724Y-84567223D01*
X152907519Y-84566777D01*
X152435057Y-84761995D01*
X152106478Y-85090000D01*
X151030440Y-85090000D01*
X151030440Y-83932000D01*
X150986162Y-83696683D01*
X150847090Y-83480559D01*
X150634890Y-83335569D01*
X150383000Y-83284560D01*
X150187540Y-83284560D01*
X150459943Y-83172005D01*
X150821735Y-82810845D01*
X151017777Y-82338724D01*
X151018223Y-81827519D01*
X150896943Y-81534000D01*
X151885634Y-81534000D01*
X151908838Y-81657317D01*
X152047910Y-81873441D01*
X152260110Y-82018431D01*
X152512000Y-82069440D01*
X153812000Y-82069440D01*
X154047317Y-82025162D01*
X154263441Y-81886090D01*
X154408431Y-81673890D01*
X154459440Y-81422000D01*
X154459440Y-80122000D01*
X154415162Y-79886683D01*
X154276090Y-79670559D01*
X154063890Y-79525569D01*
X153812000Y-79474560D01*
X152512000Y-79474560D01*
X152276683Y-79518838D01*
X152060559Y-79657910D01*
X151915569Y-79870110D01*
X151887241Y-80010000D01*
X147194000Y-80010000D01*
X146902395Y-80068004D01*
X146711927Y-80195271D01*
X146655185Y-80233185D01*
X146174810Y-80713560D01*
X145305000Y-80713560D01*
X145069683Y-80757838D01*
X144853559Y-80896910D01*
X144708569Y-81109110D01*
X144657560Y-81361000D01*
X144657560Y-81961000D01*
X144701838Y-82196317D01*
X144765678Y-82295528D01*
X144708569Y-82379110D01*
X144657560Y-82631000D01*
X144657560Y-83231000D01*
X144672801Y-83312000D01*
X143045189Y-83312000D01*
X142934799Y-83266162D01*
X142562833Y-83265838D01*
X142219057Y-83407883D01*
X141955808Y-83670673D01*
X141813162Y-84014201D01*
X141812838Y-84386167D01*
X141954883Y-84729943D01*
X142217673Y-84993192D01*
X142561201Y-85135838D01*
X142933167Y-85136162D01*
X143044888Y-85090000D01*
X144673963Y-85090000D01*
X144657560Y-85171000D01*
X144657560Y-85771000D01*
X144701838Y-86006317D01*
X144765678Y-86105528D01*
X144708569Y-86189110D01*
X144657560Y-86441000D01*
X144657560Y-87041000D01*
X144701838Y-87276317D01*
X144765678Y-87375528D01*
X144708569Y-87459110D01*
X144657560Y-87711000D01*
X144657560Y-88311000D01*
X144701838Y-88546317D01*
X144765678Y-88645528D01*
X144708569Y-88729110D01*
X144657560Y-88981000D01*
X144657560Y-89581000D01*
X144701838Y-89816317D01*
X144765678Y-89915528D01*
X144708569Y-89999110D01*
X144657560Y-90251000D01*
X144657560Y-90851000D01*
X144701838Y-91086317D01*
X144765678Y-91185528D01*
X144708569Y-91269110D01*
X144657560Y-91521000D01*
X144657560Y-92121000D01*
X144701838Y-92356317D01*
X144765678Y-92455528D01*
X144708569Y-92539110D01*
X144657560Y-92791000D01*
X144657560Y-93391000D01*
X144701838Y-93626317D01*
X144765678Y-93725528D01*
X144708569Y-93809110D01*
X144657560Y-94061000D01*
X144657560Y-94661000D01*
X144701838Y-94896317D01*
X144765678Y-94995528D01*
X144708569Y-95079110D01*
X144657560Y-95331000D01*
X144657560Y-95931000D01*
X144701838Y-96166317D01*
X144765678Y-96265528D01*
X144708569Y-96349110D01*
X144657560Y-96601000D01*
X144657560Y-97201000D01*
X144701838Y-97436317D01*
X144760178Y-97526980D01*
X144670000Y-97744690D01*
X144670000Y-97885250D01*
X144828750Y-98044000D01*
X146178000Y-98044000D01*
X146178000Y-98024000D01*
X146432000Y-98024000D01*
X146432000Y-98044000D01*
X147781250Y-98044000D01*
X147940000Y-97885250D01*
X147940000Y-97744690D01*
X147850194Y-97527878D01*
X147901431Y-97452890D01*
X147952440Y-97201000D01*
X147952440Y-96601000D01*
X147913302Y-96393000D01*
X155395664Y-96393000D01*
X155290808Y-96497673D01*
X155148162Y-96841201D01*
X155147838Y-97213167D01*
X155289883Y-97556943D01*
X155552673Y-97820192D01*
X155896201Y-97962838D01*
X156268167Y-97963162D01*
X156611943Y-97821117D01*
X156770336Y-97663000D01*
X173310484Y-97663000D01*
X173479332Y-97915698D01*
X173861418Y-98171000D01*
X173479332Y-98426302D01*
X173310484Y-98679000D01*
X161596466Y-98679000D01*
X161566327Y-98648808D01*
X161222799Y-98506162D01*
X160850833Y-98505838D01*
X160507057Y-98647883D01*
X160243808Y-98910673D01*
X160101162Y-99254201D01*
X160100838Y-99626167D01*
X160242883Y-99969943D01*
X160505673Y-100233192D01*
X160738811Y-100330000D01*
X151309466Y-100330000D01*
X151279327Y-100299808D01*
X150935799Y-100157162D01*
X150563833Y-100156838D01*
X150220057Y-100298883D01*
X149956808Y-100561673D01*
X149814162Y-100905201D01*
X149813838Y-101277167D01*
X149955883Y-101620943D01*
X150218673Y-101884192D01*
X150562201Y-102026838D01*
X150934167Y-102027162D01*
X151277943Y-101885117D01*
X151309114Y-101854000D01*
X166825534Y-101854000D01*
X166855673Y-101884192D01*
X167199201Y-102026838D01*
X167571167Y-102027162D01*
X167914943Y-101885117D01*
X168178192Y-101622327D01*
X168320838Y-101278799D01*
X168321162Y-100906833D01*
X168179117Y-100563057D01*
X167916327Y-100299808D01*
X167683189Y-100203000D01*
X173310484Y-100203000D01*
X173479332Y-100455698D01*
X173857151Y-100708149D01*
X173424500Y-101056104D01*
X173154633Y-101549181D01*
X173137096Y-101631961D01*
X173259085Y-101854000D01*
X174752000Y-101854000D01*
X174752000Y-101834000D01*
X175006000Y-101834000D01*
X175006000Y-101854000D01*
X176498915Y-101854000D01*
X176620904Y-101631961D01*
X176603367Y-101549181D01*
X176333500Y-101056104D01*
X175900849Y-100708149D01*
X176278668Y-100455698D01*
X176447516Y-100203000D01*
X177112534Y-100203000D01*
X177142673Y-100233192D01*
X177486201Y-100375838D01*
X177858167Y-100376162D01*
X178201943Y-100234117D01*
X178465192Y-99971327D01*
X178607838Y-99627799D01*
X178608162Y-99255833D01*
X178466117Y-98912057D01*
X178203327Y-98648808D01*
X177859799Y-98506162D01*
X177487833Y-98505838D01*
X177144057Y-98647883D01*
X177112886Y-98679000D01*
X176447516Y-98679000D01*
X176278668Y-98426302D01*
X175896582Y-98171000D01*
X176278668Y-97915698D01*
X176589737Y-97450151D01*
X176698970Y-96901000D01*
X176589737Y-96351849D01*
X176278668Y-95886302D01*
X175896582Y-95631000D01*
X176278668Y-95375698D01*
X176589737Y-94910151D01*
X176698970Y-94361000D01*
X176589737Y-93811849D01*
X176278668Y-93346302D01*
X175896582Y-93091000D01*
X176278668Y-92835698D01*
X176589737Y-92370151D01*
X176698970Y-91821000D01*
X176589737Y-91271849D01*
X176278668Y-90806302D01*
X175896582Y-90551000D01*
X176278668Y-90295698D01*
X176447516Y-90043000D01*
X178128534Y-90043000D01*
X178158673Y-90073192D01*
X178502201Y-90215838D01*
X178874167Y-90216162D01*
X179217943Y-90074117D01*
X179481192Y-89811327D01*
X179623838Y-89467799D01*
X179624162Y-89095833D01*
X179482117Y-88752057D01*
X179219327Y-88488808D01*
X178875799Y-88346162D01*
X178503833Y-88345838D01*
X178160057Y-88487883D01*
X178128886Y-88519000D01*
X176447516Y-88519000D01*
X176278668Y-88266302D01*
X175896582Y-88011000D01*
X176278668Y-87755698D01*
X176447516Y-87503000D01*
X179271534Y-87503000D01*
X179301673Y-87533192D01*
X179645201Y-87675838D01*
X180017167Y-87676162D01*
X180360943Y-87534117D01*
X180624192Y-87271327D01*
X180732592Y-87010273D01*
X180788263Y-87290151D01*
X181099332Y-87755698D01*
X181481418Y-88011000D01*
X181099332Y-88266302D01*
X180788263Y-88731849D01*
X180679030Y-89281000D01*
X180788263Y-89830151D01*
X181099332Y-90295698D01*
X181481418Y-90551000D01*
X181099332Y-90806302D01*
X180788263Y-91271849D01*
X180679030Y-91821000D01*
X180788263Y-92370151D01*
X181099332Y-92835698D01*
X181481418Y-93091000D01*
X181099332Y-93346302D01*
X180788263Y-93811849D01*
X180679030Y-94361000D01*
X180788263Y-94910151D01*
X181099332Y-95375698D01*
X181481418Y-95631000D01*
X181099332Y-95886302D01*
X180788263Y-96351849D01*
X180679030Y-96901000D01*
X180788263Y-97450151D01*
X181099332Y-97915698D01*
X181481418Y-98171000D01*
X181099332Y-98426302D01*
X180788263Y-98891849D01*
X180679030Y-99441000D01*
X180788263Y-99990151D01*
X181099332Y-100455698D01*
X181481418Y-100711000D01*
X181099332Y-100966302D01*
X180788263Y-101431849D01*
X180679030Y-101981000D01*
X180788263Y-102530151D01*
X181099332Y-102995698D01*
X181564879Y-103306767D01*
X181922991Y-103378000D01*
X180392466Y-103378000D01*
X180362327Y-103347808D01*
X180018799Y-103205162D01*
X179646833Y-103204838D01*
X179303057Y-103346883D01*
X179039808Y-103609673D01*
X178897162Y-103953201D01*
X178897142Y-103976024D01*
X178875799Y-103967162D01*
X178503833Y-103966838D01*
X178160057Y-104108883D01*
X177896808Y-104371673D01*
X177754162Y-104715201D01*
X177753885Y-105033560D01*
X176823000Y-105033560D01*
X176587683Y-105077838D01*
X176400923Y-105198015D01*
X176234890Y-105084569D01*
X175983000Y-105033560D01*
X174283000Y-105033560D01*
X174047683Y-105077838D01*
X173860923Y-105198015D01*
X173694890Y-105084569D01*
X173443000Y-105033560D01*
X171743000Y-105033560D01*
X171507683Y-105077838D01*
X171320923Y-105198015D01*
X171154890Y-105084569D01*
X170903000Y-105033560D01*
X169203000Y-105033560D01*
X168967683Y-105077838D01*
X168779169Y-105199143D01*
X168722699Y-105142673D01*
X168489310Y-105046000D01*
X167798750Y-105046000D01*
X167640000Y-105204750D01*
X167640000Y-109657250D01*
X167798750Y-109816000D01*
X168489310Y-109816000D01*
X168722699Y-109719327D01*
X168780897Y-109661129D01*
X168951110Y-109777431D01*
X169203000Y-109828440D01*
X169969280Y-109828440D01*
X170053000Y-109845093D01*
X170136720Y-109828440D01*
X170903000Y-109828440D01*
X171138317Y-109784162D01*
X171325077Y-109663985D01*
X171491110Y-109777431D01*
X171743000Y-109828440D01*
X172509280Y-109828440D01*
X172593000Y-109845093D01*
X172676720Y-109828440D01*
X173443000Y-109828440D01*
X173678317Y-109784162D01*
X173865077Y-109663985D01*
X174031110Y-109777431D01*
X174283000Y-109828440D01*
X175049280Y-109828440D01*
X175133000Y-109845093D01*
X175216720Y-109828440D01*
X175983000Y-109828440D01*
X176218317Y-109784162D01*
X176405077Y-109663985D01*
X176571110Y-109777431D01*
X176823000Y-109828440D01*
X177589280Y-109828440D01*
X177673000Y-109845093D01*
X177756720Y-109828440D01*
X178523000Y-109828440D01*
X178758317Y-109784162D01*
X178946831Y-109662857D01*
X179003301Y-109719327D01*
X179236690Y-109816000D01*
X179927250Y-109816000D01*
X180086000Y-109657250D01*
X180086000Y-107284000D01*
X180340000Y-107284000D01*
X180340000Y-109657250D01*
X180498750Y-109816000D01*
X181189310Y-109816000D01*
X181422699Y-109719327D01*
X181480897Y-109661129D01*
X181651110Y-109777431D01*
X181903000Y-109828440D01*
X182669280Y-109828440D01*
X182753000Y-109845093D01*
X182836720Y-109828440D01*
X183603000Y-109828440D01*
X183838317Y-109784162D01*
X184025077Y-109663985D01*
X184191110Y-109777431D01*
X184443000Y-109828440D01*
X185209280Y-109828440D01*
X185293000Y-109845093D01*
X185376720Y-109828440D01*
X186143000Y-109828440D01*
X186378317Y-109784162D01*
X186594441Y-109645090D01*
X186739431Y-109432890D01*
X186790440Y-109181000D01*
X186790440Y-105681000D01*
X186746162Y-105445683D01*
X186607090Y-105229559D01*
X186394890Y-105084569D01*
X186143000Y-105033560D01*
X185578852Y-105033560D01*
X185821943Y-104933117D01*
X186085192Y-104670327D01*
X186117680Y-104592086D01*
X193711269Y-104592086D01*
X193913854Y-105082380D01*
X194288647Y-105457827D01*
X194778587Y-105661268D01*
X195309086Y-105661731D01*
X195799380Y-105459146D01*
X196174827Y-105084353D01*
X196378268Y-104594413D01*
X196378270Y-104592086D01*
X201331269Y-104592086D01*
X201533854Y-105082380D01*
X201908647Y-105457827D01*
X202398587Y-105661268D01*
X202929086Y-105661731D01*
X203419380Y-105459146D01*
X203794827Y-105084353D01*
X203998268Y-104594413D01*
X203998731Y-104063914D01*
X203796146Y-103573620D01*
X203550954Y-103328000D01*
X204092560Y-103328000D01*
X204092560Y-105328000D01*
X204136838Y-105563317D01*
X204275910Y-105779441D01*
X204418561Y-105876910D01*
X204354722Y-105940637D01*
X204105284Y-106541352D01*
X204104716Y-107191795D01*
X204353106Y-107792943D01*
X204812637Y-108253278D01*
X205413352Y-108502716D01*
X206063795Y-108503284D01*
X206664943Y-108254894D01*
X207125278Y-107795363D01*
X207374716Y-107194648D01*
X207375284Y-106544205D01*
X207126894Y-105943057D01*
X207060379Y-105876426D01*
X207191441Y-105792090D01*
X207336431Y-105579890D01*
X207387440Y-105328000D01*
X207387440Y-103328000D01*
X207343162Y-103092683D01*
X207204090Y-102876559D01*
X206991890Y-102731569D01*
X206740000Y-102680560D01*
X204740000Y-102680560D01*
X204504683Y-102724838D01*
X204288559Y-102863910D01*
X204143569Y-103076110D01*
X204092560Y-103328000D01*
X203550954Y-103328000D01*
X203421353Y-103198173D01*
X202931413Y-102994732D01*
X202400914Y-102994269D01*
X201910620Y-103196854D01*
X201535173Y-103571647D01*
X201331732Y-104061587D01*
X201331269Y-104592086D01*
X196378270Y-104592086D01*
X196378731Y-104063914D01*
X196176146Y-103573620D01*
X195801353Y-103198173D01*
X195311413Y-102994732D01*
X194780914Y-102994269D01*
X194290620Y-103196854D01*
X193915173Y-103571647D01*
X193711732Y-104061587D01*
X193711269Y-104592086D01*
X186117680Y-104592086D01*
X186227838Y-104326799D01*
X186228162Y-103954833D01*
X186086117Y-103611057D01*
X185823327Y-103347808D01*
X185479799Y-103205162D01*
X185107833Y-103204838D01*
X184764057Y-103346883D01*
X184732886Y-103378000D01*
X183075009Y-103378000D01*
X183433121Y-103306767D01*
X183898668Y-102995698D01*
X184209737Y-102530151D01*
X184318970Y-101981000D01*
X184209737Y-101431849D01*
X183898668Y-100966302D01*
X183516582Y-100711000D01*
X183898668Y-100455698D01*
X184209737Y-99990151D01*
X184318970Y-99441000D01*
X184209737Y-98891849D01*
X183898668Y-98426302D01*
X183516582Y-98171000D01*
X183790331Y-97988086D01*
X193711269Y-97988086D01*
X193913854Y-98478380D01*
X194288647Y-98853827D01*
X194778587Y-99057268D01*
X195309086Y-99057731D01*
X195799380Y-98855146D01*
X196174827Y-98480353D01*
X196378268Y-97990413D01*
X196378270Y-97988086D01*
X201331269Y-97988086D01*
X201533854Y-98478380D01*
X201908647Y-98853827D01*
X202398587Y-99057268D01*
X202929086Y-99057731D01*
X203419380Y-98855146D01*
X203794827Y-98480353D01*
X203998268Y-97990413D01*
X203998731Y-97459914D01*
X203796146Y-96969620D01*
X203550954Y-96724000D01*
X204092560Y-96724000D01*
X204092560Y-98724000D01*
X204136838Y-98959317D01*
X204275910Y-99175441D01*
X204418561Y-99272910D01*
X204354722Y-99336637D01*
X204105284Y-99937352D01*
X204104716Y-100587795D01*
X204353106Y-101188943D01*
X204812637Y-101649278D01*
X205413352Y-101898716D01*
X206063795Y-101899284D01*
X206664943Y-101650894D01*
X207125278Y-101191363D01*
X207374716Y-100590648D01*
X207375284Y-99940205D01*
X207126894Y-99339057D01*
X207060379Y-99272426D01*
X207191441Y-99188090D01*
X207336431Y-98975890D01*
X207387440Y-98724000D01*
X207387440Y-96724000D01*
X207343162Y-96488683D01*
X207204090Y-96272559D01*
X206991890Y-96127569D01*
X206740000Y-96076560D01*
X204740000Y-96076560D01*
X204504683Y-96120838D01*
X204288559Y-96259910D01*
X204143569Y-96472110D01*
X204092560Y-96724000D01*
X203550954Y-96724000D01*
X203421353Y-96594173D01*
X202931413Y-96390732D01*
X202400914Y-96390269D01*
X201910620Y-96592854D01*
X201535173Y-96967647D01*
X201331732Y-97457587D01*
X201331269Y-97988086D01*
X196378270Y-97988086D01*
X196378731Y-97459914D01*
X196176146Y-96969620D01*
X195801353Y-96594173D01*
X195311413Y-96390732D01*
X194780914Y-96390269D01*
X194290620Y-96592854D01*
X193915173Y-96967647D01*
X193711732Y-97457587D01*
X193711269Y-97988086D01*
X183790331Y-97988086D01*
X183898668Y-97915698D01*
X184209737Y-97450151D01*
X184318970Y-96901000D01*
X184209737Y-96351849D01*
X183898668Y-95886302D01*
X183516582Y-95631000D01*
X183898668Y-95375698D01*
X184209737Y-94910151D01*
X184318970Y-94361000D01*
X184209737Y-93811849D01*
X183898668Y-93346302D01*
X183516582Y-93091000D01*
X183898668Y-92835698D01*
X184209737Y-92370151D01*
X184318970Y-91821000D01*
X184232063Y-91384086D01*
X193711269Y-91384086D01*
X193913854Y-91874380D01*
X194288647Y-92249827D01*
X194778587Y-92453268D01*
X195309086Y-92453731D01*
X195799380Y-92251146D01*
X196174827Y-91876353D01*
X196378268Y-91386413D01*
X196378270Y-91384086D01*
X201331269Y-91384086D01*
X201533854Y-91874380D01*
X201908647Y-92249827D01*
X202398587Y-92453268D01*
X202929086Y-92453731D01*
X203419380Y-92251146D01*
X203794827Y-91876353D01*
X203998268Y-91386413D01*
X203998731Y-90855914D01*
X203796146Y-90365620D01*
X203550954Y-90120000D01*
X204092560Y-90120000D01*
X204092560Y-92120000D01*
X204136838Y-92355317D01*
X204275910Y-92571441D01*
X204418561Y-92668910D01*
X204354722Y-92732637D01*
X204105284Y-93333352D01*
X204104716Y-93983795D01*
X204353106Y-94584943D01*
X204812637Y-95045278D01*
X205413352Y-95294716D01*
X206063795Y-95295284D01*
X206664943Y-95046894D01*
X207125278Y-94587363D01*
X207374716Y-93986648D01*
X207375284Y-93336205D01*
X207126894Y-92735057D01*
X207060379Y-92668426D01*
X207191441Y-92584090D01*
X207336431Y-92371890D01*
X207387440Y-92120000D01*
X207387440Y-90120000D01*
X207343162Y-89884683D01*
X207204090Y-89668559D01*
X206991890Y-89523569D01*
X206740000Y-89472560D01*
X204740000Y-89472560D01*
X204504683Y-89516838D01*
X204288559Y-89655910D01*
X204143569Y-89868110D01*
X204092560Y-90120000D01*
X203550954Y-90120000D01*
X203421353Y-89990173D01*
X202931413Y-89786732D01*
X202400914Y-89786269D01*
X201910620Y-89988854D01*
X201535173Y-90363647D01*
X201331732Y-90853587D01*
X201331269Y-91384086D01*
X196378270Y-91384086D01*
X196378731Y-90855914D01*
X196176146Y-90365620D01*
X195801353Y-89990173D01*
X195311413Y-89786732D01*
X194780914Y-89786269D01*
X194290620Y-89988854D01*
X193915173Y-90363647D01*
X193711732Y-90853587D01*
X193711269Y-91384086D01*
X184232063Y-91384086D01*
X184209737Y-91271849D01*
X183898668Y-90806302D01*
X183516582Y-90551000D01*
X183898668Y-90295698D01*
X184209737Y-89830151D01*
X184318970Y-89281000D01*
X184209737Y-88731849D01*
X183898668Y-88266302D01*
X183516582Y-88011000D01*
X183898668Y-87755698D01*
X184209737Y-87290151D01*
X184318970Y-86741000D01*
X184213869Y-86212619D01*
X187214613Y-86212619D01*
X187554155Y-87034372D01*
X188182321Y-87663636D01*
X189003481Y-88004611D01*
X189892619Y-88005387D01*
X190714372Y-87665845D01*
X191343636Y-87037679D01*
X191684611Y-86216519D01*
X191685387Y-85327381D01*
X191459249Y-84780086D01*
X193711269Y-84780086D01*
X193913854Y-85270380D01*
X194288647Y-85645827D01*
X194778587Y-85849268D01*
X195309086Y-85849731D01*
X195799380Y-85647146D01*
X196174827Y-85272353D01*
X196378268Y-84782413D01*
X196378270Y-84780086D01*
X201331269Y-84780086D01*
X201533854Y-85270380D01*
X201908647Y-85645827D01*
X202398587Y-85849268D01*
X202929086Y-85849731D01*
X203419380Y-85647146D01*
X203794827Y-85272353D01*
X203998268Y-84782413D01*
X203998731Y-84251914D01*
X203796146Y-83761620D01*
X203550954Y-83516000D01*
X204092560Y-83516000D01*
X204092560Y-85516000D01*
X204136838Y-85751317D01*
X204275910Y-85967441D01*
X204418561Y-86064910D01*
X204354722Y-86128637D01*
X204105284Y-86729352D01*
X204104716Y-87379795D01*
X204353106Y-87980943D01*
X204812637Y-88441278D01*
X205413352Y-88690716D01*
X206063795Y-88691284D01*
X206664943Y-88442894D01*
X207125278Y-87983363D01*
X207374716Y-87382648D01*
X207375284Y-86732205D01*
X207126894Y-86131057D01*
X207060379Y-86064426D01*
X207191441Y-85980090D01*
X207336431Y-85767890D01*
X207387440Y-85516000D01*
X207387440Y-83516000D01*
X207343162Y-83280683D01*
X207204090Y-83064559D01*
X206991890Y-82919569D01*
X206740000Y-82868560D01*
X204740000Y-82868560D01*
X204504683Y-82912838D01*
X204288559Y-83051910D01*
X204143569Y-83264110D01*
X204092560Y-83516000D01*
X203550954Y-83516000D01*
X203421353Y-83386173D01*
X202931413Y-83182732D01*
X202400914Y-83182269D01*
X201910620Y-83384854D01*
X201535173Y-83759647D01*
X201331732Y-84249587D01*
X201331269Y-84780086D01*
X196378270Y-84780086D01*
X196378731Y-84251914D01*
X196176146Y-83761620D01*
X195801353Y-83386173D01*
X195311413Y-83182732D01*
X194780914Y-83182269D01*
X194290620Y-83384854D01*
X193915173Y-83759647D01*
X193711732Y-84249587D01*
X193711269Y-84780086D01*
X191459249Y-84780086D01*
X191345845Y-84505628D01*
X190717679Y-83876364D01*
X189896519Y-83535389D01*
X189007381Y-83534613D01*
X188185628Y-83874155D01*
X187556364Y-84502321D01*
X187215389Y-85323481D01*
X187214613Y-86212619D01*
X184213869Y-86212619D01*
X184209737Y-86191849D01*
X183898668Y-85726302D01*
X183516582Y-85471000D01*
X183898668Y-85215698D01*
X184209737Y-84750151D01*
X184318970Y-84201000D01*
X184209737Y-83651849D01*
X183898668Y-83186302D01*
X183520849Y-82933851D01*
X183953500Y-82585896D01*
X184223367Y-82092819D01*
X184240904Y-82010039D01*
X184118915Y-81788000D01*
X182626000Y-81788000D01*
X182626000Y-81808000D01*
X182372000Y-81808000D01*
X182372000Y-81788000D01*
X180879085Y-81788000D01*
X180757096Y-82010039D01*
X180774633Y-82092819D01*
X181044500Y-82585896D01*
X181477151Y-82933851D01*
X181099332Y-83186302D01*
X180788263Y-83651849D01*
X180679030Y-84201000D01*
X180788263Y-84750151D01*
X181099332Y-85215698D01*
X181481418Y-85471000D01*
X181099332Y-85726302D01*
X180788263Y-86191849D01*
X180732533Y-86472024D01*
X180625117Y-86212057D01*
X180362327Y-85948808D01*
X180018799Y-85806162D01*
X179646833Y-85805838D01*
X179303057Y-85947883D01*
X179271886Y-85979000D01*
X176447516Y-85979000D01*
X176278668Y-85726302D01*
X175896582Y-85471000D01*
X176278668Y-85215698D01*
X176589737Y-84750151D01*
X176698970Y-84201000D01*
X176589737Y-83651849D01*
X176278668Y-83186302D01*
X175896582Y-82931000D01*
X176278668Y-82675698D01*
X176589737Y-82210151D01*
X176679672Y-81758016D01*
X185462590Y-81758016D01*
X185518271Y-81988611D01*
X186001078Y-82156622D01*
X186511428Y-82127083D01*
X186845729Y-81988611D01*
X186901410Y-81758016D01*
X186182000Y-81038605D01*
X185462590Y-81758016D01*
X176679672Y-81758016D01*
X176698970Y-81661000D01*
X176589737Y-81111849D01*
X176278668Y-80646302D01*
X175896582Y-80391000D01*
X176278668Y-80135698D01*
X176362657Y-80010000D01*
X181015343Y-80010000D01*
X181099332Y-80135698D01*
X181477151Y-80388149D01*
X181044500Y-80736104D01*
X180774633Y-81229181D01*
X180757096Y-81311961D01*
X180879085Y-81534000D01*
X182372000Y-81534000D01*
X182372000Y-81514000D01*
X182626000Y-81514000D01*
X182626000Y-81534000D01*
X184118915Y-81534000D01*
X184240904Y-81311961D01*
X184223367Y-81229181D01*
X183953500Y-80736104D01*
X183881350Y-80678078D01*
X184884378Y-80678078D01*
X184913917Y-81188428D01*
X185052389Y-81522729D01*
X185282984Y-81578410D01*
X186002395Y-80859000D01*
X186361605Y-80859000D01*
X187081016Y-81578410D01*
X187311611Y-81522729D01*
X187479622Y-81039922D01*
X187450083Y-80529572D01*
X187311611Y-80195271D01*
X187081016Y-80139590D01*
X186361605Y-80859000D01*
X186002395Y-80859000D01*
X185282984Y-80139590D01*
X185052389Y-80195271D01*
X184884378Y-80678078D01*
X183881350Y-80678078D01*
X183520849Y-80388149D01*
X183898668Y-80135698D01*
X184209737Y-79670151D01*
X184318970Y-79121000D01*
X184209737Y-78571849D01*
X183898668Y-78106302D01*
X183433121Y-77795233D01*
X182999599Y-77709000D01*
X184884560Y-77709000D01*
X184884560Y-79009000D01*
X184928838Y-79244317D01*
X185067910Y-79460441D01*
X185280110Y-79605431D01*
X185532000Y-79656440D01*
X185694385Y-79656440D01*
X185518271Y-79729389D01*
X185462590Y-79959984D01*
X186182000Y-80679395D01*
X186901410Y-79959984D01*
X186845729Y-79729389D01*
X186636098Y-79656440D01*
X186832000Y-79656440D01*
X187067317Y-79612162D01*
X187283441Y-79473090D01*
X187428431Y-79260890D01*
X187479440Y-79009000D01*
X187479440Y-77709000D01*
X187435162Y-77473683D01*
X187296090Y-77257559D01*
X187083890Y-77112569D01*
X186832000Y-77061560D01*
X185532000Y-77061560D01*
X185296683Y-77105838D01*
X185080559Y-77244910D01*
X184935569Y-77457110D01*
X184884560Y-77709000D01*
X182999599Y-77709000D01*
X182883970Y-77686000D01*
X182114030Y-77686000D01*
X181564879Y-77795233D01*
X181099332Y-78106302D01*
X181015343Y-78232000D01*
X176362657Y-78232000D01*
X176278668Y-78106302D01*
X175813121Y-77795233D01*
X175263970Y-77686000D01*
X174494030Y-77686000D01*
X173944879Y-77795233D01*
X173479332Y-78106302D01*
X173168263Y-78571849D01*
X173059030Y-79121000D01*
X173168263Y-79670151D01*
X173479332Y-80135698D01*
X173861418Y-80391000D01*
X173479332Y-80646302D01*
X173310484Y-80899000D01*
X170613466Y-80899000D01*
X170583327Y-80868808D01*
X170239799Y-80726162D01*
X169867833Y-80725838D01*
X169825000Y-80743536D01*
X169825000Y-76540000D01*
X209010000Y-76540000D01*
X209010000Y-141260000D01*
X169825000Y-141260000D01*
X169825000Y-136825000D01*
X169811358Y-136756416D01*
X169811358Y-136686486D01*
X169559019Y-135417890D01*
X169459362Y-135177299D01*
X169453004Y-135161949D01*
X168734402Y-134086486D01*
X168538514Y-133890598D01*
X167837559Y-133422234D01*
X170958226Y-133422234D01*
X171206538Y-134023195D01*
X171665927Y-134483386D01*
X172266453Y-134732746D01*
X172916694Y-134733314D01*
X173517655Y-134485002D01*
X173977846Y-134025613D01*
X174227206Y-133425087D01*
X174227774Y-132774846D01*
X173979462Y-132173885D01*
X173904758Y-132099050D01*
X181106070Y-132099050D01*
X181106070Y-134098030D01*
X181150348Y-134333347D01*
X181289420Y-134549471D01*
X181501620Y-134694461D01*
X181753510Y-134745470D01*
X183752490Y-134745470D01*
X183987807Y-134701192D01*
X184203931Y-134562120D01*
X184348921Y-134349920D01*
X184399930Y-134098030D01*
X184399930Y-132462619D01*
X187214613Y-132462619D01*
X187554155Y-133284372D01*
X188182321Y-133913636D01*
X189003481Y-134254611D01*
X189892619Y-134255387D01*
X190714372Y-133915845D01*
X191343636Y-133287679D01*
X191684611Y-132466519D01*
X191685387Y-131577381D01*
X191450159Y-131008086D01*
X193711269Y-131008086D01*
X193913854Y-131498380D01*
X194288647Y-131873827D01*
X194778587Y-132077268D01*
X195309086Y-132077731D01*
X195799380Y-131875146D01*
X196174827Y-131500353D01*
X196378268Y-131010413D01*
X196378270Y-131008086D01*
X201331269Y-131008086D01*
X201533854Y-131498380D01*
X201908647Y-131873827D01*
X202398587Y-132077268D01*
X202929086Y-132077731D01*
X203419380Y-131875146D01*
X203794827Y-131500353D01*
X203998268Y-131010413D01*
X203998731Y-130479914D01*
X203796146Y-129989620D01*
X203550954Y-129744000D01*
X204092560Y-129744000D01*
X204092560Y-131744000D01*
X204136838Y-131979317D01*
X204275910Y-132195441D01*
X204418561Y-132292910D01*
X204354722Y-132356637D01*
X204105284Y-132957352D01*
X204104716Y-133607795D01*
X204353106Y-134208943D01*
X204812637Y-134669278D01*
X205413352Y-134918716D01*
X206063795Y-134919284D01*
X206664943Y-134670894D01*
X207125278Y-134211363D01*
X207374716Y-133610648D01*
X207375284Y-132960205D01*
X207126894Y-132359057D01*
X207060379Y-132292426D01*
X207191441Y-132208090D01*
X207336431Y-131995890D01*
X207387440Y-131744000D01*
X207387440Y-129744000D01*
X207343162Y-129508683D01*
X207204090Y-129292559D01*
X206991890Y-129147569D01*
X206740000Y-129096560D01*
X204740000Y-129096560D01*
X204504683Y-129140838D01*
X204288559Y-129279910D01*
X204143569Y-129492110D01*
X204092560Y-129744000D01*
X203550954Y-129744000D01*
X203421353Y-129614173D01*
X202931413Y-129410732D01*
X202400914Y-129410269D01*
X201910620Y-129612854D01*
X201535173Y-129987647D01*
X201331732Y-130477587D01*
X201331269Y-131008086D01*
X196378270Y-131008086D01*
X196378731Y-130479914D01*
X196176146Y-129989620D01*
X195801353Y-129614173D01*
X195311413Y-129410732D01*
X194780914Y-129410269D01*
X194290620Y-129612854D01*
X193915173Y-129987647D01*
X193711732Y-130477587D01*
X193711269Y-131008086D01*
X191450159Y-131008086D01*
X191345845Y-130755628D01*
X190717679Y-130126364D01*
X189896519Y-129785389D01*
X189007381Y-129784613D01*
X188185628Y-130124155D01*
X187556364Y-130752321D01*
X187215389Y-131573481D01*
X187214613Y-132462619D01*
X184399930Y-132462619D01*
X184399930Y-132099050D01*
X184355652Y-131863733D01*
X184216580Y-131647609D01*
X184004380Y-131502619D01*
X183752490Y-131451610D01*
X181753510Y-131451610D01*
X181518193Y-131495888D01*
X181302069Y-131634960D01*
X181157079Y-131847160D01*
X181106070Y-132099050D01*
X173904758Y-132099050D01*
X173520073Y-131713694D01*
X172919547Y-131464334D01*
X172269306Y-131463766D01*
X171668345Y-131712078D01*
X171208154Y-132171467D01*
X170958794Y-132771993D01*
X170958226Y-133422234D01*
X167837559Y-133422234D01*
X167463051Y-133171996D01*
X167388087Y-133140945D01*
X167207110Y-133065981D01*
X165938514Y-132813642D01*
X165800000Y-132813643D01*
X165661486Y-132813642D01*
X164392890Y-133065981D01*
X164211913Y-133140945D01*
X164136949Y-133171996D01*
X163061486Y-133890598D01*
X162865598Y-134086486D01*
X162146996Y-135161949D01*
X162140638Y-135177299D01*
X162040981Y-135417890D01*
X161788642Y-136686486D01*
X161788642Y-136756416D01*
X161775000Y-136825000D01*
X161775000Y-141260000D01*
X110430000Y-141260000D01*
X110430000Y-137526000D01*
X110462560Y-137526000D01*
X110462560Y-138826000D01*
X110506838Y-139061317D01*
X110645910Y-139277441D01*
X110858110Y-139422431D01*
X111110000Y-139473440D01*
X112410000Y-139473440D01*
X112645317Y-139429162D01*
X112861441Y-139290090D01*
X113006431Y-139077890D01*
X113007012Y-139075016D01*
X113540590Y-139075016D01*
X113596271Y-139305611D01*
X114079078Y-139473622D01*
X114589428Y-139444083D01*
X114923729Y-139305611D01*
X114979410Y-139075016D01*
X114260000Y-138355605D01*
X113540590Y-139075016D01*
X113007012Y-139075016D01*
X113057440Y-138826000D01*
X113057440Y-138663615D01*
X113130389Y-138839729D01*
X113360984Y-138895410D01*
X114080395Y-138176000D01*
X114066252Y-138161858D01*
X114245858Y-137982252D01*
X114260000Y-137996395D01*
X114274142Y-137982252D01*
X114453748Y-138161858D01*
X114439605Y-138176000D01*
X115159016Y-138895410D01*
X115389611Y-138839729D01*
X115557622Y-138356922D01*
X115528083Y-137846572D01*
X115389611Y-137512271D01*
X115159018Y-137456590D01*
X115274478Y-137341130D01*
X115220348Y-137287000D01*
X130131811Y-137287000D01*
X130242201Y-137332838D01*
X130614167Y-137333162D01*
X130957943Y-137191117D01*
X130989114Y-137160000D01*
X146895811Y-137160000D01*
X147006201Y-137205838D01*
X147378167Y-137206162D01*
X147721943Y-137064117D01*
X147985192Y-136801327D01*
X148127838Y-136457799D01*
X148128162Y-136085833D01*
X147986117Y-135742057D01*
X147801715Y-135557333D01*
X147947380Y-135497146D01*
X148322827Y-135122353D01*
X148526268Y-134632413D01*
X148526731Y-134101914D01*
X148324146Y-133611620D01*
X147949353Y-133236173D01*
X147459413Y-133032732D01*
X146928914Y-133032269D01*
X146438620Y-133234854D01*
X146063173Y-133609647D01*
X145859732Y-134099587D01*
X145859269Y-134630086D01*
X146061854Y-135120380D01*
X146323018Y-135382000D01*
X140442727Y-135382000D01*
X140702827Y-135122353D01*
X140906268Y-134632413D01*
X140906731Y-134101914D01*
X140704146Y-133611620D01*
X140329353Y-133236173D01*
X139839413Y-133032732D01*
X139308914Y-133032269D01*
X138818620Y-133234854D01*
X138448830Y-133604000D01*
X137593466Y-133604000D01*
X137563327Y-133573808D01*
X137219799Y-133431162D01*
X137175754Y-133431124D01*
X136555815Y-132811185D01*
X136483628Y-132762951D01*
X136308605Y-132646004D01*
X136017000Y-132588000D01*
X134283516Y-132588000D01*
X134114668Y-132335302D01*
X133732582Y-132080000D01*
X134114668Y-131824698D01*
X134283516Y-131572000D01*
X134685370Y-131572000D01*
X135351185Y-132237815D01*
X135598395Y-132402996D01*
X135890000Y-132461000D01*
X138576240Y-132461000D01*
X138816647Y-132701827D01*
X139306587Y-132905268D01*
X139837086Y-132905731D01*
X140327380Y-132703146D01*
X140702827Y-132328353D01*
X140906268Y-131838413D01*
X140906270Y-131836086D01*
X145859269Y-131836086D01*
X146061854Y-132326380D01*
X146436647Y-132701827D01*
X146926587Y-132905268D01*
X147457086Y-132905731D01*
X147947380Y-132703146D01*
X148188326Y-132462619D01*
X157214613Y-132462619D01*
X157554155Y-133284372D01*
X158182321Y-133913636D01*
X159003481Y-134254611D01*
X159892619Y-134255387D01*
X160714372Y-133915845D01*
X161343636Y-133287679D01*
X161684611Y-132466519D01*
X161685387Y-131577381D01*
X161345845Y-130755628D01*
X160717679Y-130126364D01*
X159896519Y-129785389D01*
X159007381Y-129784613D01*
X158185628Y-130124155D01*
X157556364Y-130752321D01*
X157215389Y-131573481D01*
X157214613Y-132462619D01*
X148188326Y-132462619D01*
X148322827Y-132328353D01*
X148526268Y-131838413D01*
X148526731Y-131307914D01*
X148324146Y-130817620D01*
X147949353Y-130442173D01*
X147459413Y-130238732D01*
X146928914Y-130238269D01*
X146438620Y-130440854D01*
X146063173Y-130815647D01*
X145859732Y-131305587D01*
X145859269Y-131836086D01*
X140906270Y-131836086D01*
X140906731Y-131307914D01*
X140704146Y-130817620D01*
X140329353Y-130442173D01*
X139839413Y-130238732D01*
X139308914Y-130238269D01*
X138818620Y-130440854D01*
X138443173Y-130815647D01*
X138392783Y-130937000D01*
X136205630Y-130937000D01*
X135539815Y-130271185D01*
X135490553Y-130238269D01*
X135292605Y-130106004D01*
X135001000Y-130048000D01*
X134283516Y-130048000D01*
X134114668Y-129795302D01*
X133736849Y-129542851D01*
X134169500Y-129194896D01*
X134439367Y-128701819D01*
X134456904Y-128619039D01*
X134334915Y-128397000D01*
X132842000Y-128397000D01*
X132842000Y-128417000D01*
X132588000Y-128417000D01*
X132588000Y-128397000D01*
X131095085Y-128397000D01*
X130973096Y-128619039D01*
X130990633Y-128701819D01*
X131260500Y-129194896D01*
X131693151Y-129542851D01*
X131315332Y-129795302D01*
X131004263Y-130260849D01*
X130895030Y-130810000D01*
X131004263Y-131359151D01*
X131315332Y-131824698D01*
X131697418Y-132080000D01*
X131315332Y-132335302D01*
X131004263Y-132800849D01*
X130895030Y-133350000D01*
X131004263Y-133899151D01*
X131315332Y-134364698D01*
X131780879Y-134675767D01*
X132330030Y-134785000D01*
X133099970Y-134785000D01*
X133649121Y-134675767D01*
X134114668Y-134364698D01*
X134283516Y-134112000D01*
X135701370Y-134112000D01*
X136097875Y-134508505D01*
X136097838Y-134551167D01*
X136239883Y-134894943D01*
X136502673Y-135158192D01*
X136846201Y-135300838D01*
X137218167Y-135301162D01*
X137561943Y-135159117D01*
X137593114Y-135128000D01*
X138449461Y-135128000D01*
X138703018Y-135382000D01*
X130556000Y-135382000D01*
X130215794Y-135449671D01*
X130127002Y-135509000D01*
X112057189Y-135509000D01*
X111946799Y-135463162D01*
X111574833Y-135462838D01*
X111231057Y-135604883D01*
X110967808Y-135867673D01*
X110825162Y-136211201D01*
X110824838Y-136583167D01*
X110958658Y-136907037D01*
X110874683Y-136922838D01*
X110658559Y-137061910D01*
X110513569Y-137274110D01*
X110462560Y-137526000D01*
X110430000Y-137526000D01*
X110430000Y-133529865D01*
X110675420Y-133529865D01*
X110675420Y-134186135D01*
X110757979Y-134601186D01*
X110993086Y-134953049D01*
X111344949Y-135188156D01*
X111760000Y-135270715D01*
X112175051Y-135188156D01*
X112399238Y-135038359D01*
X112736065Y-135202981D01*
X112903000Y-135076068D01*
X112903000Y-133985000D01*
X112883000Y-133985000D01*
X112883000Y-133731000D01*
X112903000Y-133731000D01*
X112903000Y-132639932D01*
X113157000Y-132639932D01*
X113157000Y-133731000D01*
X113177000Y-133731000D01*
X113177000Y-133985000D01*
X113157000Y-133985000D01*
X113157000Y-135076068D01*
X113323935Y-135202981D01*
X113660762Y-135038359D01*
X113884949Y-135188156D01*
X114300000Y-135270715D01*
X114715051Y-135188156D01*
X115066914Y-134953049D01*
X115302021Y-134601186D01*
X115384580Y-134186135D01*
X115384580Y-133529865D01*
X115302021Y-133114814D01*
X115066914Y-132762951D01*
X114715051Y-132527844D01*
X114387144Y-132462619D01*
X117214613Y-132462619D01*
X117554155Y-133284372D01*
X118182321Y-133913636D01*
X119003481Y-134254611D01*
X119892619Y-134255387D01*
X120714372Y-133915845D01*
X120931556Y-133699039D01*
X123353096Y-133699039D01*
X123370633Y-133781819D01*
X123640500Y-134274896D01*
X124078517Y-134627166D01*
X124618000Y-134785000D01*
X124968000Y-134785000D01*
X124968000Y-133477000D01*
X125222000Y-133477000D01*
X125222000Y-134785000D01*
X125572000Y-134785000D01*
X126111483Y-134627166D01*
X126549500Y-134274896D01*
X126819367Y-133781819D01*
X126836904Y-133699039D01*
X126714915Y-133477000D01*
X125222000Y-133477000D01*
X124968000Y-133477000D01*
X123475085Y-133477000D01*
X123353096Y-133699039D01*
X120931556Y-133699039D01*
X121343636Y-133287679D01*
X121684611Y-132466519D01*
X121685387Y-131577381D01*
X121512532Y-131159039D01*
X123353096Y-131159039D01*
X123370633Y-131241819D01*
X123640500Y-131734896D01*
X124069607Y-132080000D01*
X123640500Y-132425104D01*
X123370633Y-132918181D01*
X123353096Y-133000961D01*
X123475085Y-133223000D01*
X124968000Y-133223000D01*
X124968000Y-130937000D01*
X125222000Y-130937000D01*
X125222000Y-133223000D01*
X126714915Y-133223000D01*
X126836904Y-133000961D01*
X126819367Y-132918181D01*
X126549500Y-132425104D01*
X126120393Y-132080000D01*
X126549500Y-131734896D01*
X126819367Y-131241819D01*
X126836904Y-131159039D01*
X126714915Y-130937000D01*
X125222000Y-130937000D01*
X124968000Y-130937000D01*
X123475085Y-130937000D01*
X123353096Y-131159039D01*
X121512532Y-131159039D01*
X121345845Y-130755628D01*
X120717679Y-130126364D01*
X119896519Y-129785389D01*
X119007381Y-129784613D01*
X118185628Y-130124155D01*
X117556364Y-130752321D01*
X117215389Y-131573481D01*
X117214613Y-132462619D01*
X114387144Y-132462619D01*
X114300000Y-132445285D01*
X113884949Y-132527844D01*
X113660762Y-132677641D01*
X113323935Y-132513019D01*
X113157000Y-132639932D01*
X112903000Y-132639932D01*
X112736065Y-132513019D01*
X112399238Y-132677641D01*
X112175051Y-132527844D01*
X111760000Y-132445285D01*
X111344949Y-132527844D01*
X110993086Y-132762951D01*
X110757979Y-133114814D01*
X110675420Y-133529865D01*
X110430000Y-133529865D01*
X110430000Y-124841000D01*
X114322704Y-124841000D01*
X114263909Y-124927050D01*
X114212900Y-125178940D01*
X114212900Y-128679060D01*
X114257178Y-128914377D01*
X114396250Y-129130501D01*
X114608450Y-129275491D01*
X114860340Y-129326500D01*
X118360460Y-129326500D01*
X118595777Y-129282222D01*
X118811901Y-129143150D01*
X118956891Y-128930950D01*
X119007900Y-128679060D01*
X119007900Y-128619039D01*
X123353096Y-128619039D01*
X123370633Y-128701819D01*
X123640500Y-129194896D01*
X124069607Y-129540000D01*
X123640500Y-129885104D01*
X123370633Y-130378181D01*
X123353096Y-130460961D01*
X123475085Y-130683000D01*
X124968000Y-130683000D01*
X124968000Y-128397000D01*
X125222000Y-128397000D01*
X125222000Y-130683000D01*
X126714915Y-130683000D01*
X126836904Y-130460961D01*
X126819367Y-130378181D01*
X126549500Y-129885104D01*
X126120393Y-129540000D01*
X126549500Y-129194896D01*
X126819367Y-128701819D01*
X126836904Y-128619039D01*
X126714915Y-128397000D01*
X125222000Y-128397000D01*
X124968000Y-128397000D01*
X123475085Y-128397000D01*
X123353096Y-128619039D01*
X119007900Y-128619039D01*
X119007900Y-126079039D01*
X123353096Y-126079039D01*
X123370633Y-126161819D01*
X123640500Y-126654896D01*
X124069607Y-127000000D01*
X123640500Y-127345104D01*
X123370633Y-127838181D01*
X123353096Y-127920961D01*
X123475085Y-128143000D01*
X124968000Y-128143000D01*
X124968000Y-125857000D01*
X125222000Y-125857000D01*
X125222000Y-128143000D01*
X126714915Y-128143000D01*
X126836904Y-127920961D01*
X126819367Y-127838181D01*
X126549500Y-127345104D01*
X126120393Y-127000000D01*
X126549500Y-126654896D01*
X126819367Y-126161819D01*
X126836904Y-126079039D01*
X126714915Y-125857000D01*
X125222000Y-125857000D01*
X124968000Y-125857000D01*
X123475085Y-125857000D01*
X123353096Y-126079039D01*
X119007900Y-126079039D01*
X119007900Y-125178940D01*
X118963622Y-124943623D01*
X118897586Y-124841000D01*
X123620854Y-124841000D01*
X123370633Y-125298181D01*
X123353096Y-125380961D01*
X123475085Y-125603000D01*
X124968000Y-125603000D01*
X124968000Y-125583000D01*
X125222000Y-125583000D01*
X125222000Y-125603000D01*
X126714915Y-125603000D01*
X126836904Y-125380961D01*
X126819367Y-125298181D01*
X126569146Y-124841000D01*
X130132112Y-124841000D01*
X129900057Y-124936883D01*
X129636808Y-125199673D01*
X129494162Y-125543201D01*
X129493838Y-125915167D01*
X129635883Y-126258943D01*
X129898673Y-126522192D01*
X130242201Y-126664838D01*
X130614167Y-126665162D01*
X130725888Y-126619000D01*
X131231343Y-126619000D01*
X131315332Y-126744698D01*
X131693151Y-126997149D01*
X131260500Y-127345104D01*
X130990633Y-127838181D01*
X130973096Y-127920961D01*
X131095085Y-128143000D01*
X132588000Y-128143000D01*
X132588000Y-128123000D01*
X132842000Y-128123000D01*
X132842000Y-128143000D01*
X134334915Y-128143000D01*
X134456904Y-127920961D01*
X134439367Y-127838181D01*
X134169500Y-127345104D01*
X133736849Y-126997149D01*
X134114668Y-126744698D01*
X134425737Y-126279151D01*
X134534970Y-125730000D01*
X134425737Y-125180849D01*
X134198657Y-124841000D01*
X135701434Y-124841000D01*
X135586569Y-125009110D01*
X135535560Y-125261000D01*
X135535560Y-128761000D01*
X135579838Y-128996317D01*
X135718910Y-129212441D01*
X135931110Y-129357431D01*
X136183000Y-129408440D01*
X137883000Y-129408440D01*
X138118317Y-129364162D01*
X138305077Y-129243985D01*
X138471110Y-129357431D01*
X138723000Y-129408440D01*
X140423000Y-129408440D01*
X140658317Y-129364162D01*
X140846831Y-129242857D01*
X140903301Y-129299327D01*
X141136690Y-129396000D01*
X141827250Y-129396000D01*
X141986000Y-129237250D01*
X141986000Y-126864000D01*
X142240000Y-126864000D01*
X142240000Y-129237250D01*
X142398750Y-129396000D01*
X143089310Y-129396000D01*
X143322699Y-129299327D01*
X143380897Y-129241129D01*
X143551110Y-129357431D01*
X143803000Y-129408440D01*
X145503000Y-129408440D01*
X145738317Y-129364162D01*
X145925077Y-129243985D01*
X146091110Y-129357431D01*
X146343000Y-129408440D01*
X148043000Y-129408440D01*
X148278317Y-129364162D01*
X148465077Y-129243985D01*
X148631110Y-129357431D01*
X148883000Y-129408440D01*
X150583000Y-129408440D01*
X150818317Y-129364162D01*
X151005077Y-129243985D01*
X151171110Y-129357431D01*
X151423000Y-129408440D01*
X153123000Y-129408440D01*
X153358317Y-129364162D01*
X153546831Y-129242857D01*
X153603301Y-129299327D01*
X153836690Y-129396000D01*
X154527250Y-129396000D01*
X154686000Y-129237250D01*
X154686000Y-124784750D01*
X154940000Y-124784750D01*
X154940000Y-129237250D01*
X155098750Y-129396000D01*
X155789310Y-129396000D01*
X156022699Y-129299327D01*
X156080897Y-129241129D01*
X156251110Y-129357431D01*
X156503000Y-129408440D01*
X158203000Y-129408440D01*
X158438317Y-129364162D01*
X158625077Y-129243985D01*
X158791110Y-129357431D01*
X159043000Y-129408440D01*
X160743000Y-129408440D01*
X160978317Y-129364162D01*
X161165077Y-129243985D01*
X161331110Y-129357431D01*
X161583000Y-129408440D01*
X163283000Y-129408440D01*
X163518317Y-129364162D01*
X163705077Y-129243985D01*
X163871110Y-129357431D01*
X164123000Y-129408440D01*
X165823000Y-129408440D01*
X166058317Y-129364162D01*
X166246831Y-129242857D01*
X166303301Y-129299327D01*
X166536690Y-129396000D01*
X167227250Y-129396000D01*
X167386000Y-129237250D01*
X167386000Y-124784750D01*
X167640000Y-124784750D01*
X167640000Y-129237250D01*
X167798750Y-129396000D01*
X168489310Y-129396000D01*
X168722699Y-129299327D01*
X168780897Y-129241129D01*
X168951110Y-129357431D01*
X169203000Y-129408440D01*
X170903000Y-129408440D01*
X171138317Y-129364162D01*
X171325077Y-129243985D01*
X171491110Y-129357431D01*
X171743000Y-129408440D01*
X173443000Y-129408440D01*
X173678317Y-129364162D01*
X173865077Y-129243985D01*
X174031110Y-129357431D01*
X174283000Y-129408440D01*
X175983000Y-129408440D01*
X176218317Y-129364162D01*
X176405077Y-129243985D01*
X176571110Y-129357431D01*
X176823000Y-129408440D01*
X178523000Y-129408440D01*
X178758317Y-129364162D01*
X178946831Y-129242857D01*
X179003301Y-129299327D01*
X179236690Y-129396000D01*
X179927250Y-129396000D01*
X180086000Y-129237250D01*
X180086000Y-124784750D01*
X180340000Y-124784750D01*
X180340000Y-129237250D01*
X180498750Y-129396000D01*
X181189310Y-129396000D01*
X181422699Y-129299327D01*
X181480897Y-129241129D01*
X181651110Y-129357431D01*
X181903000Y-129408440D01*
X183603000Y-129408440D01*
X183838317Y-129364162D01*
X184025077Y-129243985D01*
X184191110Y-129357431D01*
X184443000Y-129408440D01*
X186143000Y-129408440D01*
X186378317Y-129364162D01*
X186594441Y-129225090D01*
X186739431Y-129012890D01*
X186790440Y-128761000D01*
X186790440Y-125261000D01*
X186746162Y-125025683D01*
X186607090Y-124809559D01*
X186394890Y-124664569D01*
X186143000Y-124613560D01*
X185376720Y-124613560D01*
X185293000Y-124596907D01*
X185209280Y-124613560D01*
X184443000Y-124613560D01*
X184207683Y-124657838D01*
X184020923Y-124778015D01*
X183854890Y-124664569D01*
X183603000Y-124613560D01*
X182836720Y-124613560D01*
X182753000Y-124596907D01*
X182669280Y-124613560D01*
X181903000Y-124613560D01*
X181667683Y-124657838D01*
X181479169Y-124779143D01*
X181422699Y-124722673D01*
X181189310Y-124626000D01*
X180498750Y-124626000D01*
X180340000Y-124784750D01*
X180086000Y-124784750D01*
X179927250Y-124626000D01*
X179236690Y-124626000D01*
X179003301Y-124722673D01*
X178945103Y-124780871D01*
X178774890Y-124664569D01*
X178523000Y-124613560D01*
X177756720Y-124613560D01*
X177673000Y-124596907D01*
X177589280Y-124613560D01*
X176823000Y-124613560D01*
X176587683Y-124657838D01*
X176400923Y-124778015D01*
X176234890Y-124664569D01*
X175983000Y-124613560D01*
X175216720Y-124613560D01*
X175133000Y-124596907D01*
X175049280Y-124613560D01*
X174283000Y-124613560D01*
X174047683Y-124657838D01*
X173860923Y-124778015D01*
X173694890Y-124664569D01*
X173443000Y-124613560D01*
X172676720Y-124613560D01*
X172593000Y-124596907D01*
X172509280Y-124613560D01*
X171743000Y-124613560D01*
X171507683Y-124657838D01*
X171320923Y-124778015D01*
X171154890Y-124664569D01*
X170903000Y-124613560D01*
X170136720Y-124613560D01*
X170053000Y-124596907D01*
X169969280Y-124613560D01*
X169203000Y-124613560D01*
X168967683Y-124657838D01*
X168779169Y-124779143D01*
X168722699Y-124722673D01*
X168489310Y-124626000D01*
X167798750Y-124626000D01*
X167640000Y-124784750D01*
X167386000Y-124784750D01*
X167227250Y-124626000D01*
X166536690Y-124626000D01*
X166303301Y-124722673D01*
X166245103Y-124780871D01*
X166074890Y-124664569D01*
X165823000Y-124613560D01*
X165056720Y-124613560D01*
X164973000Y-124596907D01*
X164889280Y-124613560D01*
X164123000Y-124613560D01*
X163887683Y-124657838D01*
X163700923Y-124778015D01*
X163534890Y-124664569D01*
X163283000Y-124613560D01*
X162516720Y-124613560D01*
X162433000Y-124596907D01*
X162349280Y-124613560D01*
X161583000Y-124613560D01*
X161347683Y-124657838D01*
X161160923Y-124778015D01*
X160994890Y-124664569D01*
X160743000Y-124613560D01*
X159976720Y-124613560D01*
X159893000Y-124596907D01*
X159809280Y-124613560D01*
X159043000Y-124613560D01*
X158807683Y-124657838D01*
X158620923Y-124778015D01*
X158454890Y-124664569D01*
X158203000Y-124613560D01*
X157436720Y-124613560D01*
X157353000Y-124596907D01*
X157269280Y-124613560D01*
X156503000Y-124613560D01*
X156267683Y-124657838D01*
X156079169Y-124779143D01*
X156022699Y-124722673D01*
X155789310Y-124626000D01*
X155098750Y-124626000D01*
X154940000Y-124784750D01*
X154686000Y-124784750D01*
X154527250Y-124626000D01*
X153836690Y-124626000D01*
X153603301Y-124722673D01*
X153545103Y-124780871D01*
X153374890Y-124664569D01*
X153123000Y-124613560D01*
X152356720Y-124613560D01*
X152273000Y-124596907D01*
X152189280Y-124613560D01*
X151423000Y-124613560D01*
X151187683Y-124657838D01*
X151000923Y-124778015D01*
X150834890Y-124664569D01*
X150749000Y-124647176D01*
X150749000Y-124404086D01*
X193711269Y-124404086D01*
X193913854Y-124894380D01*
X194288647Y-125269827D01*
X194778587Y-125473268D01*
X195309086Y-125473731D01*
X195799380Y-125271146D01*
X196174827Y-124896353D01*
X196378268Y-124406413D01*
X196378270Y-124404086D01*
X201331269Y-124404086D01*
X201533854Y-124894380D01*
X201908647Y-125269827D01*
X202398587Y-125473268D01*
X202929086Y-125473731D01*
X203419380Y-125271146D01*
X203794827Y-124896353D01*
X203998268Y-124406413D01*
X203998731Y-123875914D01*
X203796146Y-123385620D01*
X203550954Y-123140000D01*
X204092560Y-123140000D01*
X204092560Y-125140000D01*
X204136838Y-125375317D01*
X204275910Y-125591441D01*
X204418561Y-125688910D01*
X204354722Y-125752637D01*
X204105284Y-126353352D01*
X204104716Y-127003795D01*
X204353106Y-127604943D01*
X204812637Y-128065278D01*
X205413352Y-128314716D01*
X206063795Y-128315284D01*
X206664943Y-128066894D01*
X207125278Y-127607363D01*
X207374716Y-127006648D01*
X207375284Y-126356205D01*
X207126894Y-125755057D01*
X207060379Y-125688426D01*
X207191441Y-125604090D01*
X207336431Y-125391890D01*
X207387440Y-125140000D01*
X207387440Y-123140000D01*
X207343162Y-122904683D01*
X207204090Y-122688559D01*
X206991890Y-122543569D01*
X206740000Y-122492560D01*
X204740000Y-122492560D01*
X204504683Y-122536838D01*
X204288559Y-122675910D01*
X204143569Y-122888110D01*
X204092560Y-123140000D01*
X203550954Y-123140000D01*
X203421353Y-123010173D01*
X202931413Y-122806732D01*
X202400914Y-122806269D01*
X201910620Y-123008854D01*
X201535173Y-123383647D01*
X201331732Y-123873587D01*
X201331269Y-124404086D01*
X196378270Y-124404086D01*
X196378731Y-123875914D01*
X196176146Y-123385620D01*
X195801353Y-123010173D01*
X195311413Y-122806732D01*
X194780914Y-122806269D01*
X194290620Y-123008854D01*
X193915173Y-123383647D01*
X193711732Y-123873587D01*
X193711269Y-124404086D01*
X150749000Y-124404086D01*
X150749000Y-119495100D01*
X154065560Y-119495100D01*
X154065560Y-121195100D01*
X154109838Y-121430417D01*
X154248910Y-121646541D01*
X154461110Y-121791531D01*
X154517454Y-121802941D01*
X154512946Y-121805953D01*
X154191039Y-122287722D01*
X154078000Y-122856007D01*
X154078000Y-122914193D01*
X154191039Y-123482478D01*
X154512946Y-123964247D01*
X154994715Y-124286154D01*
X155563000Y-124399193D01*
X156131285Y-124286154D01*
X156613054Y-123964247D01*
X156934961Y-123482478D01*
X157048000Y-122914193D01*
X157048000Y-122856007D01*
X156934961Y-122287722D01*
X156613054Y-121805953D01*
X156611821Y-121805129D01*
X156648317Y-121798262D01*
X156864441Y-121659190D01*
X157009431Y-121446990D01*
X157060440Y-121195100D01*
X157060440Y-119495100D01*
X157016162Y-119259783D01*
X156877090Y-119043659D01*
X156664890Y-118898669D01*
X156608546Y-118887259D01*
X156613054Y-118884247D01*
X156934961Y-118402478D01*
X157048000Y-117834193D01*
X157048000Y-117776007D01*
X156934961Y-117207722D01*
X156613054Y-116725953D01*
X156131285Y-116404046D01*
X155563000Y-116291007D01*
X154994715Y-116404046D01*
X154512946Y-116725953D01*
X154191039Y-117207722D01*
X154078000Y-117776007D01*
X154078000Y-117834193D01*
X154191039Y-118402478D01*
X154512946Y-118884247D01*
X154514179Y-118885071D01*
X154477683Y-118891938D01*
X154261559Y-119031010D01*
X154116569Y-119243210D01*
X154065560Y-119495100D01*
X150749000Y-119495100D01*
X150749000Y-112903000D01*
X170180000Y-112903000D01*
X170180000Y-121412000D01*
X170188685Y-121458159D01*
X170215965Y-121500553D01*
X170257590Y-121528994D01*
X170307000Y-121539000D01*
X186563000Y-121539000D01*
X186609159Y-121530315D01*
X186651553Y-121503035D01*
X186679994Y-121461410D01*
X186690000Y-121412000D01*
X186690000Y-120016291D01*
X186698000Y-119976072D01*
X186698000Y-119915928D01*
X186690000Y-119875709D01*
X186690000Y-117800086D01*
X193711269Y-117800086D01*
X193913854Y-118290380D01*
X194288647Y-118665827D01*
X194778587Y-118869268D01*
X195309086Y-118869731D01*
X195799380Y-118667146D01*
X196174827Y-118292353D01*
X196378268Y-117802413D01*
X196378270Y-117800086D01*
X201331269Y-117800086D01*
X201533854Y-118290380D01*
X201908647Y-118665827D01*
X202398587Y-118869268D01*
X202929086Y-118869731D01*
X203419380Y-118667146D01*
X203794827Y-118292353D01*
X203998268Y-117802413D01*
X203998731Y-117271914D01*
X203796146Y-116781620D01*
X203550954Y-116536000D01*
X204092560Y-116536000D01*
X204092560Y-118536000D01*
X204136838Y-118771317D01*
X204275910Y-118987441D01*
X204418561Y-119084910D01*
X204354722Y-119148637D01*
X204105284Y-119749352D01*
X204104716Y-120399795D01*
X204353106Y-121000943D01*
X204812637Y-121461278D01*
X205413352Y-121710716D01*
X206063795Y-121711284D01*
X206664943Y-121462894D01*
X207125278Y-121003363D01*
X207374716Y-120402648D01*
X207375284Y-119752205D01*
X207126894Y-119151057D01*
X207060379Y-119084426D01*
X207191441Y-119000090D01*
X207336431Y-118787890D01*
X207387440Y-118536000D01*
X207387440Y-116536000D01*
X207343162Y-116300683D01*
X207204090Y-116084559D01*
X206991890Y-115939569D01*
X206740000Y-115888560D01*
X204740000Y-115888560D01*
X204504683Y-115932838D01*
X204288559Y-116071910D01*
X204143569Y-116284110D01*
X204092560Y-116536000D01*
X203550954Y-116536000D01*
X203421353Y-116406173D01*
X202931413Y-116202732D01*
X202400914Y-116202269D01*
X201910620Y-116404854D01*
X201535173Y-116779647D01*
X201331732Y-117269587D01*
X201331269Y-117800086D01*
X196378270Y-117800086D01*
X196378731Y-117271914D01*
X196176146Y-116781620D01*
X195801353Y-116406173D01*
X195311413Y-116202732D01*
X194780914Y-116202269D01*
X194290620Y-116404854D01*
X193915173Y-116779647D01*
X193711732Y-117269587D01*
X193711269Y-117800086D01*
X186690000Y-117800086D01*
X186690000Y-114566291D01*
X186698000Y-114526072D01*
X186698000Y-114465928D01*
X186690000Y-114425709D01*
X186690000Y-112903000D01*
X186681315Y-112856841D01*
X186654035Y-112814447D01*
X186612410Y-112786006D01*
X186563000Y-112776000D01*
X170307000Y-112776000D01*
X170260841Y-112784685D01*
X170218447Y-112811965D01*
X170190006Y-112853590D01*
X170180000Y-112903000D01*
X150749000Y-112903000D01*
X150749000Y-111196086D01*
X193711269Y-111196086D01*
X193913854Y-111686380D01*
X194288647Y-112061827D01*
X194778587Y-112265268D01*
X195309086Y-112265731D01*
X195799380Y-112063146D01*
X196174827Y-111688353D01*
X196378268Y-111198413D01*
X196378270Y-111196086D01*
X201331269Y-111196086D01*
X201533854Y-111686380D01*
X201908647Y-112061827D01*
X202398587Y-112265268D01*
X202929086Y-112265731D01*
X203419380Y-112063146D01*
X203794827Y-111688353D01*
X203998268Y-111198413D01*
X203998731Y-110667914D01*
X203796146Y-110177620D01*
X203550954Y-109932000D01*
X204092560Y-109932000D01*
X204092560Y-111932000D01*
X204136838Y-112167317D01*
X204275910Y-112383441D01*
X204418561Y-112480910D01*
X204354722Y-112544637D01*
X204105284Y-113145352D01*
X204104716Y-113795795D01*
X204353106Y-114396943D01*
X204812637Y-114857278D01*
X205413352Y-115106716D01*
X206063795Y-115107284D01*
X206664943Y-114858894D01*
X207125278Y-114399363D01*
X207374716Y-113798648D01*
X207375284Y-113148205D01*
X207126894Y-112547057D01*
X207060379Y-112480426D01*
X207191441Y-112396090D01*
X207336431Y-112183890D01*
X207387440Y-111932000D01*
X207387440Y-109932000D01*
X207343162Y-109696683D01*
X207204090Y-109480559D01*
X206991890Y-109335569D01*
X206740000Y-109284560D01*
X204740000Y-109284560D01*
X204504683Y-109328838D01*
X204288559Y-109467910D01*
X204143569Y-109680110D01*
X204092560Y-109932000D01*
X203550954Y-109932000D01*
X203421353Y-109802173D01*
X202931413Y-109598732D01*
X202400914Y-109598269D01*
X201910620Y-109800854D01*
X201535173Y-110175647D01*
X201331732Y-110665587D01*
X201331269Y-111196086D01*
X196378270Y-111196086D01*
X196378731Y-110667914D01*
X196176146Y-110177620D01*
X195801353Y-109802173D01*
X195311413Y-109598732D01*
X194780914Y-109598269D01*
X194290620Y-109800854D01*
X193915173Y-110175647D01*
X193711732Y-110665587D01*
X193711269Y-111196086D01*
X150749000Y-111196086D01*
X150749000Y-109855000D01*
X150740315Y-109808841D01*
X150734574Y-109799919D01*
X150818317Y-109784162D01*
X151005077Y-109663985D01*
X151171110Y-109777431D01*
X151423000Y-109828440D01*
X152189280Y-109828440D01*
X152273000Y-109845093D01*
X152356720Y-109828440D01*
X153123000Y-109828440D01*
X153358317Y-109784162D01*
X153546831Y-109662857D01*
X153603301Y-109719327D01*
X153836690Y-109816000D01*
X154527250Y-109816000D01*
X154686000Y-109657250D01*
X154686000Y-105204750D01*
X154940000Y-105204750D01*
X154940000Y-109657250D01*
X155098750Y-109816000D01*
X155789310Y-109816000D01*
X156022699Y-109719327D01*
X156080897Y-109661129D01*
X156251110Y-109777431D01*
X156503000Y-109828440D01*
X157269280Y-109828440D01*
X157353000Y-109845093D01*
X157436720Y-109828440D01*
X158203000Y-109828440D01*
X158438317Y-109784162D01*
X158625077Y-109663985D01*
X158791110Y-109777431D01*
X159043000Y-109828440D01*
X159809280Y-109828440D01*
X159893000Y-109845093D01*
X159976720Y-109828440D01*
X160743000Y-109828440D01*
X160978317Y-109784162D01*
X161165077Y-109663985D01*
X161331110Y-109777431D01*
X161583000Y-109828440D01*
X162349280Y-109828440D01*
X162433000Y-109845093D01*
X162516720Y-109828440D01*
X163283000Y-109828440D01*
X163518317Y-109784162D01*
X163705077Y-109663985D01*
X163871110Y-109777431D01*
X164123000Y-109828440D01*
X164889280Y-109828440D01*
X164973000Y-109845093D01*
X165056720Y-109828440D01*
X165823000Y-109828440D01*
X166058317Y-109784162D01*
X166246831Y-109662857D01*
X166303301Y-109719327D01*
X166536690Y-109816000D01*
X167227250Y-109816000D01*
X167386000Y-109657250D01*
X167386000Y-105204750D01*
X167227250Y-105046000D01*
X166536690Y-105046000D01*
X166303301Y-105142673D01*
X166245103Y-105200871D01*
X166074890Y-105084569D01*
X165823000Y-105033560D01*
X164123000Y-105033560D01*
X163887683Y-105077838D01*
X163700923Y-105198015D01*
X163534890Y-105084569D01*
X163283000Y-105033560D01*
X161583000Y-105033560D01*
X161347683Y-105077838D01*
X161160923Y-105198015D01*
X160994890Y-105084569D01*
X160743000Y-105033560D01*
X159043000Y-105033560D01*
X158807683Y-105077838D01*
X158620923Y-105198015D01*
X158454890Y-105084569D01*
X158203000Y-105033560D01*
X156503000Y-105033560D01*
X156267683Y-105077838D01*
X156079169Y-105199143D01*
X156022699Y-105142673D01*
X155789310Y-105046000D01*
X155098750Y-105046000D01*
X154940000Y-105204750D01*
X154686000Y-105204750D01*
X154527250Y-105046000D01*
X153836690Y-105046000D01*
X153603301Y-105142673D01*
X153545103Y-105200871D01*
X153374890Y-105084569D01*
X153123000Y-105033560D01*
X151423000Y-105033560D01*
X151187683Y-105077838D01*
X151000923Y-105198015D01*
X150834890Y-105084569D01*
X150583000Y-105033560D01*
X148883000Y-105033560D01*
X148647683Y-105077838D01*
X148460923Y-105198015D01*
X148294890Y-105084569D01*
X148043000Y-105033560D01*
X146343000Y-105033560D01*
X146107683Y-105077838D01*
X145920923Y-105198015D01*
X145754890Y-105084569D01*
X145503000Y-105033560D01*
X143803000Y-105033560D01*
X143567683Y-105077838D01*
X143379169Y-105199143D01*
X143322699Y-105142673D01*
X143089310Y-105046000D01*
X142398750Y-105046000D01*
X142240000Y-105204750D01*
X142240000Y-107578000D01*
X141986000Y-107578000D01*
X141986000Y-105204750D01*
X141827250Y-105046000D01*
X141136690Y-105046000D01*
X140903301Y-105142673D01*
X140845103Y-105200871D01*
X140674890Y-105084569D01*
X140423000Y-105033560D01*
X138723000Y-105033560D01*
X138487683Y-105077838D01*
X138300923Y-105198015D01*
X138134890Y-105084569D01*
X137883000Y-105033560D01*
X136183000Y-105033560D01*
X135947683Y-105077838D01*
X135731559Y-105216910D01*
X135586569Y-105429110D01*
X135535560Y-105681000D01*
X135535560Y-109181000D01*
X135579838Y-109416317D01*
X135718910Y-109632441D01*
X135858765Y-109728000D01*
X112690600Y-109728000D01*
X112690600Y-107208900D01*
X116832000Y-107208900D01*
X117103705Y-107154854D01*
X117334046Y-107000946D01*
X117487954Y-106770605D01*
X117542000Y-106498900D01*
X117542000Y-91805000D01*
X124837041Y-91805000D01*
X124951115Y-92378489D01*
X125275971Y-92864670D01*
X125590752Y-93075000D01*
X125275971Y-93285330D01*
X124951115Y-93771511D01*
X124837041Y-94345000D01*
X124951115Y-94918489D01*
X125275971Y-95404670D01*
X125590752Y-95615000D01*
X125275971Y-95825330D01*
X124951115Y-96311511D01*
X124837041Y-96885000D01*
X124951115Y-97458489D01*
X125275971Y-97944670D01*
X125590752Y-98155000D01*
X125275971Y-98365330D01*
X124951115Y-98851511D01*
X124837041Y-99425000D01*
X124951115Y-99998489D01*
X125275971Y-100484670D01*
X125590752Y-100695000D01*
X125275971Y-100905330D01*
X124951115Y-101391511D01*
X124837041Y-101965000D01*
X124951115Y-102538489D01*
X125275971Y-103024670D01*
X125762152Y-103349526D01*
X126335641Y-103463600D01*
X126394359Y-103463600D01*
X126720998Y-103398628D01*
X127493185Y-104170815D01*
X127740395Y-104335996D01*
X128032000Y-104394000D01*
X134440534Y-104394000D01*
X134470673Y-104424192D01*
X134814201Y-104566838D01*
X135186167Y-104567162D01*
X135529943Y-104425117D01*
X135793192Y-104162327D01*
X135935838Y-103818799D01*
X135936162Y-103446833D01*
X135794117Y-103103057D01*
X135531327Y-102839808D01*
X135187799Y-102697162D01*
X134815833Y-102696838D01*
X134472057Y-102838883D01*
X134440886Y-102870000D01*
X133392888Y-102870000D01*
X133624943Y-102774117D01*
X133888192Y-102511327D01*
X133963469Y-102330039D01*
X173137096Y-102330039D01*
X173154633Y-102412819D01*
X173424500Y-102905896D01*
X173862517Y-103258166D01*
X174402000Y-103416000D01*
X174752000Y-103416000D01*
X174752000Y-102108000D01*
X175006000Y-102108000D01*
X175006000Y-103416000D01*
X175356000Y-103416000D01*
X175895483Y-103258166D01*
X176333500Y-102905896D01*
X176603367Y-102412819D01*
X176620904Y-102330039D01*
X176498915Y-102108000D01*
X175006000Y-102108000D01*
X174752000Y-102108000D01*
X173259085Y-102108000D01*
X173137096Y-102330039D01*
X133963469Y-102330039D01*
X134030838Y-102167799D01*
X134031162Y-101795833D01*
X133925690Y-101540570D01*
X134179201Y-101645838D01*
X134551167Y-101646162D01*
X134894943Y-101504117D01*
X135158192Y-101241327D01*
X135300838Y-100897799D01*
X135301162Y-100525833D01*
X135159117Y-100182057D01*
X134896327Y-99918808D01*
X134552799Y-99776162D01*
X134180833Y-99775838D01*
X133837057Y-99917883D01*
X133805886Y-99949000D01*
X132627463Y-99949000D01*
X132760838Y-99627799D01*
X132761162Y-99255833D01*
X132691568Y-99087403D01*
X132989943Y-98964117D01*
X133253192Y-98701327D01*
X133395838Y-98357799D01*
X133396162Y-97985833D01*
X133348715Y-97871000D01*
X135257560Y-97871000D01*
X135257560Y-98471000D01*
X135301838Y-98706317D01*
X135440910Y-98922441D01*
X135653110Y-99067431D01*
X135905000Y-99118440D01*
X137905000Y-99118440D01*
X138140317Y-99074162D01*
X138162325Y-99060000D01*
X142450811Y-99060000D01*
X142561201Y-99105838D01*
X142933167Y-99106162D01*
X143276943Y-98964117D01*
X143540192Y-98701327D01*
X143641749Y-98456750D01*
X144670000Y-98456750D01*
X144670000Y-98597310D01*
X144766673Y-98830699D01*
X144945302Y-99009327D01*
X145178691Y-99106000D01*
X146019250Y-99106000D01*
X146178000Y-98947250D01*
X146178000Y-98298000D01*
X146432000Y-98298000D01*
X146432000Y-98947250D01*
X146590750Y-99106000D01*
X147431309Y-99106000D01*
X147664698Y-99009327D01*
X147843327Y-98830699D01*
X147940000Y-98597310D01*
X147940000Y-98456750D01*
X147781250Y-98298000D01*
X146432000Y-98298000D01*
X146178000Y-98298000D01*
X144828750Y-98298000D01*
X144670000Y-98456750D01*
X143641749Y-98456750D01*
X143682838Y-98357799D01*
X143683162Y-97985833D01*
X143541117Y-97642057D01*
X143278327Y-97378808D01*
X142934799Y-97236162D01*
X142562833Y-97235838D01*
X142451112Y-97282000D01*
X138540000Y-97282000D01*
X138540000Y-97186750D01*
X138381250Y-97028000D01*
X137032000Y-97028000D01*
X137032000Y-97048000D01*
X136778000Y-97048000D01*
X136778000Y-97028000D01*
X135428750Y-97028000D01*
X135270000Y-97186750D01*
X135270000Y-97327310D01*
X135359806Y-97544122D01*
X135308569Y-97619110D01*
X135257560Y-97871000D01*
X133348715Y-97871000D01*
X133290690Y-97730570D01*
X133544201Y-97835838D01*
X133916167Y-97836162D01*
X134259943Y-97694117D01*
X134523192Y-97431327D01*
X134665838Y-97087799D01*
X134666162Y-96715833D01*
X134532770Y-96393000D01*
X135303837Y-96393000D01*
X135270000Y-96474690D01*
X135270000Y-96615250D01*
X135428750Y-96774000D01*
X136778000Y-96774000D01*
X136778000Y-96754000D01*
X137032000Y-96754000D01*
X137032000Y-96774000D01*
X138381250Y-96774000D01*
X138540000Y-96615250D01*
X138540000Y-96474690D01*
X138450194Y-96257878D01*
X138501431Y-96182890D01*
X138552440Y-95931000D01*
X138552440Y-95331000D01*
X138508162Y-95095683D01*
X138444322Y-94996472D01*
X138501431Y-94912890D01*
X138552440Y-94661000D01*
X138552440Y-94061000D01*
X138508162Y-93825683D01*
X138444322Y-93726472D01*
X138501431Y-93642890D01*
X138552440Y-93391000D01*
X138552440Y-92791000D01*
X138508162Y-92555683D01*
X138444322Y-92456472D01*
X138501431Y-92372890D01*
X138552440Y-92121000D01*
X138552440Y-91521000D01*
X138508162Y-91285683D01*
X138444322Y-91186472D01*
X138501431Y-91102890D01*
X138552440Y-90851000D01*
X138552440Y-90251000D01*
X138508162Y-90015683D01*
X138444322Y-89916472D01*
X138501431Y-89832890D01*
X138552440Y-89581000D01*
X138552440Y-88981000D01*
X138508162Y-88745683D01*
X138444322Y-88646472D01*
X138501431Y-88562890D01*
X138552440Y-88311000D01*
X138552440Y-87711000D01*
X138508162Y-87475683D01*
X138444322Y-87376472D01*
X138501431Y-87292890D01*
X138552440Y-87041000D01*
X138552440Y-86441000D01*
X138508162Y-86205683D01*
X138444322Y-86106472D01*
X138501431Y-86022890D01*
X138552440Y-85771000D01*
X138552440Y-85171000D01*
X138508162Y-84935683D01*
X138444322Y-84836472D01*
X138501431Y-84752890D01*
X138552440Y-84501000D01*
X138552440Y-83901000D01*
X138508162Y-83665683D01*
X138449822Y-83575020D01*
X138540000Y-83357310D01*
X138540000Y-83216750D01*
X138381250Y-83058000D01*
X137032000Y-83058000D01*
X137032000Y-83078000D01*
X136778000Y-83078000D01*
X136778000Y-83058000D01*
X135428750Y-83058000D01*
X135270000Y-83216750D01*
X135270000Y-83357310D01*
X135303837Y-83439000D01*
X135055722Y-83439000D01*
X135155622Y-83151922D01*
X135126083Y-82641572D01*
X135035548Y-82423000D01*
X135303837Y-82423000D01*
X135270000Y-82504690D01*
X135270000Y-82645250D01*
X135428750Y-82804000D01*
X136778000Y-82804000D01*
X136778000Y-82784000D01*
X137032000Y-82784000D01*
X137032000Y-82804000D01*
X138381250Y-82804000D01*
X138540000Y-82645250D01*
X138540000Y-82504690D01*
X138450194Y-82287878D01*
X138501431Y-82212890D01*
X138552440Y-81961000D01*
X138552440Y-81361000D01*
X138508162Y-81125683D01*
X138369090Y-80909559D01*
X138156890Y-80764569D01*
X137905000Y-80713560D01*
X135905000Y-80713560D01*
X135669683Y-80757838D01*
X135453559Y-80896910D01*
X135452131Y-80899000D01*
X130339266Y-80899000D01*
X130187890Y-80795569D01*
X129936000Y-80744560D01*
X128636000Y-80744560D01*
X128400683Y-80788838D01*
X128184559Y-80927910D01*
X128039569Y-81140110D01*
X127988560Y-81392000D01*
X127988560Y-82692000D01*
X128032838Y-82927317D01*
X128171910Y-83143441D01*
X128384110Y-83288431D01*
X128636000Y-83339440D01*
X128831460Y-83339440D01*
X128559057Y-83451995D01*
X128197265Y-83813155D01*
X128001223Y-84285276D01*
X128000777Y-84796481D01*
X128195995Y-85268943D01*
X128557155Y-85630735D01*
X129029276Y-85826777D01*
X129540481Y-85827223D01*
X130012943Y-85632005D01*
X130374735Y-85270845D01*
X130502564Y-84963000D01*
X132560560Y-84963000D01*
X132560560Y-85979000D01*
X132386466Y-85979000D01*
X132356327Y-85948808D01*
X132012799Y-85806162D01*
X131640833Y-85805838D01*
X131297057Y-85947883D01*
X131033808Y-86210673D01*
X130891162Y-86554201D01*
X130890838Y-86926167D01*
X131032883Y-87269943D01*
X131295673Y-87533192D01*
X131595332Y-87657622D01*
X131526162Y-87824201D01*
X131525838Y-88196167D01*
X131667883Y-88539943D01*
X131930673Y-88803192D01*
X132230332Y-88927622D01*
X132161162Y-89094201D01*
X132160838Y-89466167D01*
X132302883Y-89809943D01*
X132565673Y-90073192D01*
X132865332Y-90197622D01*
X132796162Y-90364201D01*
X132795838Y-90736167D01*
X132937883Y-91079943D01*
X133200673Y-91343192D01*
X133500332Y-91467622D01*
X133431162Y-91634201D01*
X133430838Y-92006167D01*
X133572883Y-92349943D01*
X133835673Y-92613192D01*
X134179201Y-92755838D01*
X134180503Y-92755839D01*
X134066162Y-93031201D01*
X134065838Y-93403167D01*
X134146754Y-93599000D01*
X130203617Y-93599000D01*
X129994029Y-93285330D01*
X129670772Y-93069336D01*
X129793490Y-93011821D01*
X130187688Y-92579947D01*
X130359958Y-92164026D01*
X130238817Y-91932000D01*
X129032000Y-91932000D01*
X129032000Y-91952000D01*
X128778000Y-91952000D01*
X128778000Y-91932000D01*
X128758000Y-91932000D01*
X128758000Y-91678000D01*
X128778000Y-91678000D01*
X128778000Y-90470531D01*
X129032000Y-90470531D01*
X129032000Y-91678000D01*
X130238817Y-91678000D01*
X130359958Y-91445974D01*
X130187688Y-91030053D01*
X129793490Y-90598179D01*
X129264027Y-90350032D01*
X129032000Y-90470531D01*
X128778000Y-90470531D01*
X128545973Y-90350032D01*
X128016510Y-90598179D01*
X127634992Y-91016161D01*
X127454029Y-90745330D01*
X126967848Y-90420474D01*
X126394359Y-90306400D01*
X126335641Y-90306400D01*
X125762152Y-90420474D01*
X125275971Y-90745330D01*
X124951115Y-91231511D01*
X124837041Y-91805000D01*
X117542000Y-91805000D01*
X117542000Y-87271100D01*
X117487954Y-86999395D01*
X117334046Y-86769054D01*
X117103705Y-86615146D01*
X116832000Y-86561100D01*
X112690600Y-86561100D01*
X112690600Y-86212619D01*
X117214613Y-86212619D01*
X117554155Y-87034372D01*
X118182321Y-87663636D01*
X119003481Y-88004611D01*
X119892619Y-88005387D01*
X120714372Y-87665845D01*
X121343636Y-87037679D01*
X121684611Y-86216519D01*
X121685387Y-85327381D01*
X121345845Y-84505628D01*
X120717679Y-83876364D01*
X119896519Y-83535389D01*
X119007381Y-83534613D01*
X118185628Y-83874155D01*
X117556364Y-84502321D01*
X117215389Y-85323481D01*
X117214613Y-86212619D01*
X112690600Y-86212619D01*
X112690600Y-81141000D01*
X112636554Y-80869295D01*
X112482646Y-80638954D01*
X112252305Y-80485046D01*
X111980600Y-80431000D01*
X110430000Y-80431000D01*
X110430000Y-79258016D01*
X139528590Y-79258016D01*
X139584271Y-79488611D01*
X140067078Y-79656622D01*
X140577428Y-79627083D01*
X140911729Y-79488611D01*
X140967410Y-79258016D01*
X140248000Y-78538605D01*
X139528590Y-79258016D01*
X110430000Y-79258016D01*
X110430000Y-78178078D01*
X138950378Y-78178078D01*
X138979917Y-78688428D01*
X139118389Y-79022729D01*
X139348984Y-79078410D01*
X140068395Y-78359000D01*
X140427605Y-78359000D01*
X141147016Y-79078410D01*
X141377611Y-79022729D01*
X141450560Y-78813098D01*
X141450560Y-79009000D01*
X141494838Y-79244317D01*
X141633910Y-79460441D01*
X141846110Y-79605431D01*
X142098000Y-79656440D01*
X143398000Y-79656440D01*
X143633317Y-79612162D01*
X143849441Y-79473090D01*
X143994431Y-79260890D01*
X144045440Y-79009000D01*
X144045440Y-77709000D01*
X144001162Y-77473683D01*
X143862090Y-77257559D01*
X143649890Y-77112569D01*
X143398000Y-77061560D01*
X142098000Y-77061560D01*
X141862683Y-77105838D01*
X141646559Y-77244910D01*
X141501569Y-77457110D01*
X141450560Y-77709000D01*
X141450560Y-77871385D01*
X141377611Y-77695271D01*
X141147016Y-77639590D01*
X140427605Y-78359000D01*
X140068395Y-78359000D01*
X139348984Y-77639590D01*
X139118389Y-77695271D01*
X138950378Y-78178078D01*
X110430000Y-78178078D01*
X110430000Y-77459984D01*
X139528590Y-77459984D01*
X140248000Y-78179395D01*
X140967410Y-77459984D01*
X140911729Y-77229389D01*
X140428922Y-77061378D01*
X139918572Y-77090917D01*
X139584271Y-77229389D01*
X139528590Y-77459984D01*
X110430000Y-77459984D01*
X110430000Y-76540000D01*
X161775000Y-76540000D01*
X161775000Y-80975000D01*
G36*
X134051748Y-82956858D02*
X134037605Y-82971000D01*
X134051748Y-82985142D01*
X133872143Y-83164748D01*
X133858000Y-83150605D01*
X133843858Y-83164748D01*
X133664252Y-82985142D01*
X133678395Y-82971000D01*
X133664252Y-82956858D01*
X133843858Y-82777252D01*
X133858000Y-82791395D01*
X133872142Y-82777252D01*
X134051748Y-82956858D01*
X134051748Y-82956858D01*
G37*
X134051748Y-82956858D02*
X134037605Y-82971000D01*
X134051748Y-82985142D01*
X133872143Y-83164748D01*
X133858000Y-83150605D01*
X133843858Y-83164748D01*
X133664252Y-82985142D01*
X133678395Y-82971000D01*
X133664252Y-82956858D01*
X133843858Y-82777252D01*
X133858000Y-82791395D01*
X133872142Y-82777252D01*
X134051748Y-82956858D01*
M02*
