G04 #@! TF.FileFunction,Soldermask,Bot*
%FSLAX46Y46*%
G04 Gerber Fmt 4.6, Leading zero omitted, Abs format (unit mm)*
G04 Created by KiCad (PCBNEW 4.0.5+dfsg1-4) date Sat Oct 15 20:35:36 2022*
%MOMM*%
%LPD*%
G01*
G04 APERTURE LIST*
%ADD10C,0.150000*%
%ADD11C,3.600000*%
%ADD12R,1.700000X1.700000*%
%ADD13C,1.700000*%
%ADD14R,3.900120X3.900120*%
%ADD15R,2.400000X2.400000*%
%ADD16C,2.400000*%
%ADD17C,2.398980*%
%ADD18R,2.398980X2.398980*%
%ADD19R,2.127200X2.127200*%
%ADD20O,2.127200X2.127200*%
%ADD21C,1.797000*%
%ADD22O,2.700000X2.000000*%
%ADD23O,2.100000X2.100000*%
%ADD24R,2.100000X2.100000*%
%ADD25O,2.200000X2.200000*%
%ADD26O,1.900000X1.900000*%
%ADD27O,1.299160X1.901140*%
G04 APERTURE END LIST*
D10*
D11*
X119450000Y-85770000D03*
X119450000Y-132020000D03*
X159450000Y-132020000D03*
X159450000Y-85770000D03*
X189450000Y-85770000D03*
X189450000Y-132020000D03*
D12*
X129286000Y-82042000D03*
D13*
X129286000Y-84542000D03*
D12*
X133858000Y-85471000D03*
D13*
X133858000Y-82971000D03*
D12*
X149733000Y-84582000D03*
D13*
X149733000Y-82082000D03*
D12*
X142748000Y-78359000D03*
D13*
X140248000Y-78359000D03*
D12*
X186182000Y-78359000D03*
D13*
X186182000Y-80859000D03*
D12*
X153162000Y-80772000D03*
D13*
X153162000Y-85852000D03*
D12*
X111760000Y-138176000D03*
D13*
X114260000Y-138176000D03*
D14*
X119610140Y-122230000D03*
X113610660Y-122230000D03*
X116610400Y-126929000D03*
D15*
X205740000Y-84516000D03*
D16*
X205740000Y-87056000D03*
D15*
X205740000Y-91120000D03*
D16*
X205740000Y-93660000D03*
D15*
X205740000Y-97724000D03*
D16*
X205740000Y-100264000D03*
D15*
X205740000Y-104328000D03*
D16*
X205740000Y-106868000D03*
D15*
X205740000Y-110932000D03*
D16*
X205740000Y-113472000D03*
D15*
X205740000Y-117536000D03*
D16*
X205740000Y-120076000D03*
D15*
X205740000Y-124140000D03*
D16*
X205740000Y-126680000D03*
D15*
X205740000Y-130744000D03*
D16*
X205740000Y-133284000D03*
D17*
X172593000Y-133098540D03*
D18*
X182753000Y-133098540D03*
D19*
X128905000Y-101965000D03*
D20*
X126365000Y-101965000D03*
X128905000Y-99425000D03*
X126365000Y-99425000D03*
X128905000Y-96885000D03*
X126365000Y-96885000D03*
X128905000Y-94345000D03*
X126365000Y-94345000D03*
X128905000Y-91805000D03*
X126365000Y-91805000D03*
D21*
X195045000Y-84516000D03*
X202665000Y-84516000D03*
X195045000Y-91120000D03*
X202665000Y-91120000D03*
X195045000Y-97724000D03*
X202665000Y-97724000D03*
X195045000Y-104328000D03*
X202665000Y-104328000D03*
X195045000Y-110932000D03*
X202665000Y-110932000D03*
X195045000Y-117536000D03*
X202665000Y-117536000D03*
X195045000Y-124140000D03*
X202665000Y-124140000D03*
X195045000Y-130744000D03*
X202665000Y-130744000D03*
X147193000Y-131572000D03*
X139573000Y-131572000D03*
X147193000Y-134366000D03*
X139573000Y-134366000D03*
D22*
X174879000Y-79121000D03*
X174879000Y-81661000D03*
X174879000Y-84201000D03*
X174879000Y-86741000D03*
X174879000Y-89281000D03*
X174879000Y-91821000D03*
X174879000Y-94361000D03*
X174879000Y-96901000D03*
X174879000Y-99441000D03*
X174879000Y-101981000D03*
X182499000Y-101981000D03*
X182499000Y-99441000D03*
X182499000Y-96901000D03*
X182499000Y-94361000D03*
X182499000Y-91821000D03*
X182499000Y-89281000D03*
X182499000Y-86741000D03*
X182499000Y-84201000D03*
X182499000Y-81661000D03*
X182499000Y-79121000D03*
D23*
X185293000Y-108331000D03*
X182753000Y-108331000D03*
D24*
X180213000Y-108331000D03*
D23*
X177673000Y-108331000D03*
X175133000Y-108331000D03*
X172593000Y-108331000D03*
X170053000Y-108331000D03*
D24*
X167513000Y-108331000D03*
D23*
X164973000Y-108331000D03*
X162433000Y-108331000D03*
X159893000Y-108331000D03*
X157353000Y-108331000D03*
D24*
X154813000Y-108331000D03*
D23*
X152273000Y-108331000D03*
X149733000Y-108331000D03*
X147193000Y-108331000D03*
X144653000Y-108331000D03*
D24*
X142113000Y-108331000D03*
D23*
X139573000Y-108331000D03*
X137033000Y-108331000D03*
X137033000Y-126111000D03*
X139573000Y-126111000D03*
D24*
X142113000Y-126111000D03*
D23*
X144653000Y-126111000D03*
X147193000Y-126111000D03*
X149733000Y-126111000D03*
X152273000Y-126111000D03*
D24*
X154813000Y-126111000D03*
D23*
X157353000Y-126111000D03*
X159893000Y-126111000D03*
X162433000Y-126111000D03*
X164973000Y-126111000D03*
D24*
X167513000Y-126111000D03*
D23*
X170053000Y-126111000D03*
X172593000Y-126111000D03*
X175133000Y-126111000D03*
X177673000Y-126111000D03*
D24*
X180213000Y-126111000D03*
D23*
X182753000Y-126111000D03*
X185293000Y-126111000D03*
D25*
X185163000Y-119946000D03*
X185163000Y-114496000D03*
D26*
X182133000Y-114796000D03*
X182133000Y-119646000D03*
D23*
X155563000Y-117805100D03*
D24*
X155563000Y-120345100D03*
D23*
X155563000Y-122885100D03*
D27*
X113030000Y-133858000D03*
X114300000Y-133858000D03*
X111760000Y-133858000D03*
D22*
X125095000Y-125730000D03*
X125095000Y-128270000D03*
X125095000Y-130810000D03*
X125095000Y-133350000D03*
X132715000Y-133350000D03*
X132715000Y-130810000D03*
X132715000Y-128270000D03*
X132715000Y-125730000D03*
M02*
